# MagicaVoxel @ Ephtracy

# group
o 

# material
mtllib crown2.mtl
usemtl palette

# normals
vn -1 0 0
vn 1 0 0
vn 0 0 1
vn 0 0 -1
vn 0 -1 0
vn 0 1 0

# texcoords
vt 0.751953 0.5
vt 0.755859 0.5
vt 0.759766 0.5

# verts
v -0.3 0 0.1
v -0.3 0 -0.2
v -0.3 0.1 0
v -0.3 0.1 -0.1
v -0.3 0.2 0
v -0.3 0.2 -0.1
v -0.3 0.3 0
v -0.3 0.3 -0.1
v -0.3 0.4 0.1
v -0.3 0.4 0
v -0.3 0.4 -0.1
v -0.3 0.4 -0.2
v -0.3 0.5 0
v -0.3 0.5 -0.1
v -0.2 0 0.2
v -0.2 0 0.1
v -0.2 0 -0.2
v -0.2 0 -0.3
v -0.2 0.1 0.2
v -0.2 0.1 0.1
v -0.2 0.1 -0.2
v -0.2 0.1 -0.3
v -0.2 0.2 0.2
v -0.2 0.2 0.1
v -0.2 0.2 -0.2
v -0.2 0.2 -0.3
v -0.2 0.3 0.2
v -0.2 0.3 0.1
v -0.2 0.3 -0.2
v -0.2 0.3 -0.3
v -0.2 0.4 0.2
v -0.2 0.4 0.1
v -0.2 0.4 -0.2
v -0.2 0.4 -0.3
v -0.2 0.5 0.2
v -0.2 0.5 0.1
v -0.2 0.5 -0.2
v -0.2 0.5 -0.3
v -0.1 0 0.3
v -0.1 0 0.2
v -0.1 0 -0.3
v -0.1 0 -0.4
v -0.1 0.1 0.2
v -0.1 0.1 -0.3
v -0.1 0.2 0.2
v -0.1 0.2 -0.3
v -0.1 0.3 0.2
v -0.1 0.3 -0.3
v -0.1 0.4 0.3
v -0.1 0.4 0.2
v -0.1 0.4 -0.3
v -0.1 0.4 -0.4
v 0 0.4 0.3
v 0 0.4 0.2
v 0 0.4 -0.3
v 0 0.4 -0.4
v 0 0.5 0.3
v 0 0.5 0.2
v 0 0.5 -0.3
v 0 0.5 -0.4
v 0.1 0.3 0.3
v 0.1 0.3 0.2
v 0.1 0.3 -0.3
v 0.1 0.3 -0.4
v 0.1 0.4 0.3
v 0.1 0.4 0.2
v 0.1 0.4 -0.3
v 0.1 0.4 -0.4
v 0.2 0 0.2
v 0.2 0 0.1
v 0.2 0 -0.2
v 0.2 0 -0.3
v 0.2 0.1 0.2
v 0.2 0.1 0.1
v 0.2 0.1 -0.2
v 0.2 0.1 -0.3
v 0.2 0.2 0.2
v 0.2 0.2 0.1
v 0.2 0.2 -0.2
v 0.2 0.2 -0.3
v 0.2 0.3 0.2
v 0.2 0.3 0.1
v 0.2 0.3 -0.2
v 0.2 0.3 -0.3
v 0.2 0.4 0.2
v 0.2 0.4 0.1
v 0.2 0.4 -0.2
v 0.2 0.4 -0.3
v 0.2 0.5 0.2
v 0.2 0.5 0.1
v 0.2 0.5 -0.2
v 0.2 0.5 -0.3
v 0.3 0 0.1
v 0.3 0 -0.2
v 0.3 0.1 0.1
v 0.3 0.1 0
v 0.3 0.1 -0.1
v 0.3 0.1 -0.2
v 0.3 0.2 0.1
v 0.3 0.2 0
v 0.3 0.2 -0.1
v 0.3 0.2 -0.2
v 0.3 0.3 0.1
v 0.3 0.3 0
v 0.3 0.3 -0.1
v 0.3 0.3 -0.2
v 0.3 0.4 0.1
v 0.3 0.4 0
v 0.3 0.4 -0.1
v 0.3 0.4 -0.2
v 0.3 0.5 0
v 0.3 0.5 -0.1
v -0.2 0 0.1
v -0.2 0 -0.2
v -0.2 0.1 0.1
v -0.2 0.1 0
v -0.2 0.1 -0.1
v -0.2 0.1 -0.2
v -0.2 0.2 0.1
v -0.2 0.2 0
v -0.2 0.2 -0.1
v -0.2 0.2 -0.2
v -0.2 0.3 0.1
v -0.2 0.3 0
v -0.2 0.3 -0.1
v -0.2 0.3 -0.2
v -0.2 0.4 0.1
v -0.2 0.4 0
v -0.2 0.4 -0.1
v -0.2 0.4 -0.2
v -0.2 0.5 0
v -0.2 0.5 -0.1
v -0.1 0 0.2
v -0.1 0 0.1
v -0.1 0 -0.2
v -0.1 0 -0.3
v -0.1 0.1 0.2
v -0.1 0.1 0.1
v -0.1 0.1 -0.2
v -0.1 0.1 -0.3
v -0.1 0.2 0.2
v -0.1 0.2 0.1
v -0.1 0.2 -0.2
v -0.1 0.2 -0.3
v -0.1 0.3 0.2
v -0.1 0.3 0.1
v -0.1 0.3 -0.2
v -0.1 0.3 -0.3
v -0.1 0.4 0.2
v -0.1 0.4 0.1
v -0.1 0.4 -0.2
v -0.1 0.4 -0.3
v -0.1 0.5 0.2
v -0.1 0.5 0.1
v -0.1 0.5 -0.2
v -0.1 0.5 -0.3
v 0 0.3 0.3
v 0 0.3 0.2
v 0 0.3 -0.3
v 0 0.3 -0.4
v 0 0.4 0.3
v 0 0.4 0.2
v 0 0.4 -0.3
v 0 0.4 -0.4
v 0.1 0.4 0.3
v 0.1 0.4 0.2
v 0.1 0.4 -0.3
v 0.1 0.4 -0.4
v 0.1 0.5 0.3
v 0.1 0.5 0.2
v 0.1 0.5 -0.3
v 0.1 0.5 -0.4
v 0.2 0 0.3
v 0.2 0 0.2
v 0.2 0 -0.3
v 0.2 0 -0.4
v 0.2 0.1 0.2
v 0.2 0.1 -0.3
v 0.2 0.2 0.2
v 0.2 0.2 -0.3
v 0.2 0.3 0.2
v 0.2 0.3 -0.3
v 0.2 0.4 0.3
v 0.2 0.4 0.2
v 0.2 0.4 -0.3
v 0.2 0.4 -0.4
v 0.3 0 0.2
v 0.3 0 0.1
v 0.3 0 -0.2
v 0.3 0 -0.3
v 0.3 0.1 0.2
v 0.3 0.1 0.1
v 0.3 0.1 -0.2
v 0.3 0.1 -0.3
v 0.3 0.2 0.2
v 0.3 0.2 0.1
v 0.3 0.2 -0.2
v 0.3 0.2 -0.3
v 0.3 0.3 0.2
v 0.3 0.3 0.1
v 0.3 0.3 -0.2
v 0.3 0.3 -0.3
v 0.3 0.4 0.2
v 0.3 0.4 0.1
v 0.3 0.4 -0.2
v 0.3 0.4 -0.3
v 0.3 0.5 0.2
v 0.3 0.5 0.1
v 0.3 0.5 -0.2
v 0.3 0.5 -0.3
v 0.4 0 0.1
v 0.4 0 -0.2
v 0.4 0.1 0
v 0.4 0.1 -0.1
v 0.4 0.2 0
v 0.4 0.2 -0.1
v 0.4 0.3 0
v 0.4 0.3 -0.1
v 0.4 0.4 0.1
v 0.4 0.4 0
v 0.4 0.4 -0.1
v 0.4 0.4 -0.2
v 0.4 0.5 0
v 0.4 0.5 -0.1
v -0.1 0 0.3
v -0.1 0.4 0.3
v 0 0.1 0.3
v 0 0.2 0.3
v 0 0.3 0.3
v 0 0.4 0.3
v 0 0.5 0.3
v 0.1 0.1 0.3
v 0.1 0.2 0.3
v 0.1 0.3 0.3
v 0.1 0.4 0.3
v 0.1 0.5 0.3
v 0.2 0 0.3
v 0.2 0.4 0.3
v -0.2 0 0.2
v -0.2 0.1 0.2
v -0.2 0.2 0.2
v -0.2 0.3 0.2
v -0.2 0.4 0.2
v -0.2 0.5 0.2
v -0.1 0 0.2
v -0.1 0.1 0.2
v -0.1 0.2 0.2
v -0.1 0.3 0.2
v -0.1 0.4 0.2
v -0.1 0.5 0.2
v 0.2 0 0.2
v 0.2 0.1 0.2
v 0.2 0.2 0.2
v 0.2 0.3 0.2
v 0.2 0.4 0.2
v 0.2 0.5 0.2
v 0.3 0 0.2
v 0.3 0.1 0.2
v 0.3 0.2 0.2
v 0.3 0.3 0.2
v 0.3 0.4 0.2
v 0.3 0.5 0.2
v -0.3 0 0.1
v -0.3 0.4 0.1
v -0.2 0 0.1
v -0.2 0.1 0.1
v -0.2 0.2 0.1
v -0.2 0.3 0.1
v -0.2 0.4 0.1
v 0.3 0 0.1
v 0.3 0.1 0.1
v 0.3 0.2 0.1
v 0.3 0.3 0.1
v 0.3 0.4 0.1
v 0.4 0 0.1
v 0.4 0.4 0.1
v -0.3 0.4 0
v -0.3 0.5 0
v -0.2 0.4 0
v -0.2 0.5 0
v 0.3 0.4 0
v 0.3 0.5 0
v 0.4 0.4 0
v 0.4 0.5 0
v -0.3 0.3 -0.1
v -0.3 0.4 -0.1
v -0.2 0.3 -0.1
v -0.2 0.4 -0.1
v 0.3 0.3 -0.1
v 0.3 0.4 -0.1
v 0.4 0.3 -0.1
v 0.4 0.4 -0.1
v -0.2 0 -0.2
v -0.2 0.1 -0.2
v -0.2 0.2 -0.2
v -0.2 0.3 -0.2
v -0.2 0.4 -0.2
v -0.2 0.5 -0.2
v -0.1 0 -0.2
v -0.1 0.1 -0.2
v -0.1 0.2 -0.2
v -0.1 0.3 -0.2
v -0.1 0.4 -0.2
v -0.1 0.5 -0.2
v 0.2 0 -0.2
v 0.2 0.1 -0.2
v 0.2 0.2 -0.2
v 0.2 0.3 -0.2
v 0.2 0.4 -0.2
v 0.2 0.5 -0.2
v 0.3 0 -0.2
v 0.3 0.1 -0.2
v 0.3 0.2 -0.2
v 0.3 0.3 -0.2
v 0.3 0.4 -0.2
v 0.3 0.5 -0.2
v -0.1 0 -0.3
v -0.1 0.1 -0.3
v -0.1 0.2 -0.3
v -0.1 0.3 -0.3
v -0.1 0.4 -0.3
v 0 0.1 -0.3
v 0 0.2 -0.3
v 0 0.3 -0.3
v 0 0.4 -0.3
v 0 0.5 -0.3
v 0.1 0.1 -0.3
v 0.1 0.2 -0.3
v 0.1 0.3 -0.3
v 0.1 0.4 -0.3
v 0.1 0.5 -0.3
v 0.2 0 -0.3
v 0.2 0.1 -0.3
v 0.2 0.2 -0.3
v 0.2 0.3 -0.3
v 0.2 0.4 -0.3
v -0.1 0 0.2
v -0.1 0.1 0.2
v -0.1 0.2 0.2
v -0.1 0.3 0.2
v -0.1 0.4 0.2
v 0 0.1 0.2
v 0 0.2 0.2
v 0 0.3 0.2
v 0 0.4 0.2
v 0 0.5 0.2
v 0.1 0.1 0.2
v 0.1 0.2 0.2
v 0.1 0.3 0.2
v 0.1 0.4 0.2
v 0.1 0.5 0.2
v 0.2 0 0.2
v 0.2 0.1 0.2
v 0.2 0.2 0.2
v 0.2 0.3 0.2
v 0.2 0.4 0.2
v -0.2 0 0.1
v -0.2 0.1 0.1
v -0.2 0.2 0.1
v -0.2 0.3 0.1
v -0.2 0.4 0.1
v -0.2 0.5 0.1
v -0.1 0 0.1
v -0.1 0.1 0.1
v -0.1 0.2 0.1
v -0.1 0.3 0.1
v -0.1 0.4 0.1
v -0.1 0.5 0.1
v 0.2 0 0.1
v 0.2 0.1 0.1
v 0.2 0.2 0.1
v 0.2 0.3 0.1
v 0.2 0.4 0.1
v 0.2 0.5 0.1
v 0.3 0 0.1
v 0.3 0.1 0.1
v 0.3 0.2 0.1
v 0.3 0.3 0.1
v 0.3 0.4 0.1
v 0.3 0.5 0.1
v -0.3 0.3 0
v -0.3 0.4 0
v -0.2 0.3 0
v -0.2 0.4 0
v 0.3 0.3 0
v 0.3 0.4 0
v 0.4 0.3 0
v 0.4 0.4 0
v -0.3 0.4 -0.1
v -0.3 0.5 -0.1
v -0.2 0.4 -0.1
v -0.2 0.5 -0.1
v 0.3 0.4 -0.1
v 0.3 0.5 -0.1
v 0.4 0.4 -0.1
v 0.4 0.5 -0.1
v -0.3 0 -0.2
v -0.3 0.4 -0.2
v -0.2 0 -0.2
v -0.2 0.1 -0.2
v -0.2 0.2 -0.2
v -0.2 0.3 -0.2
v -0.2 0.4 -0.2
v 0.3 0 -0.2
v 0.3 0.1 -0.2
v 0.3 0.2 -0.2
v 0.3 0.3 -0.2
v 0.3 0.4 -0.2
v 0.4 0 -0.2
v 0.4 0.4 -0.2
v -0.2 0 -0.3
v -0.2 0.1 -0.3
v -0.2 0.2 -0.3
v -0.2 0.3 -0.3
v -0.2 0.4 -0.3
v -0.2 0.5 -0.3
v -0.1 0 -0.3
v -0.1 0.1 -0.3
v -0.1 0.2 -0.3
v -0.1 0.3 -0.3
v -0.1 0.4 -0.3
v -0.1 0.5 -0.3
v 0.2 0 -0.3
v 0.2 0.1 -0.3
v 0.2 0.2 -0.3
v 0.2 0.3 -0.3
v 0.2 0.4 -0.3
v 0.2 0.5 -0.3
v 0.3 0 -0.3
v 0.3 0.1 -0.3
v 0.3 0.2 -0.3
v 0.3 0.3 -0.3
v 0.3 0.4 -0.3
v 0.3 0.5 -0.3
v -0.1 0 -0.4
v -0.1 0.4 -0.4
v 0 0.1 -0.4
v 0 0.2 -0.4
v 0 0.3 -0.4
v 0 0.4 -0.4
v 0 0.5 -0.4
v 0.1 0.1 -0.4
v 0.1 0.2 -0.4
v 0.1 0.3 -0.4
v 0.1 0.4 -0.4
v 0.1 0.5 -0.4
v 0.2 0 -0.4
v 0.2 0.4 -0.4
v -0.1 0 0.3
v 0.2 0 0.3
v -0.2 0 0.2
v -0.1 0 0.2
v 0.2 0 0.2
v 0.3 0 0.2
v -0.3 0 0.1
v -0.2 0 0.1
v -0.1 0 0.1
v 0.2 0 0.1
v 0.3 0 0.1
v 0.4 0 0.1
v -0.3 0 -0.2
v -0.2 0 -0.2
v -0.1 0 -0.2
v 0.2 0 -0.2
v 0.3 0 -0.2
v 0.4 0 -0.2
v -0.2 0 -0.3
v -0.1 0 -0.3
v 0.2 0 -0.3
v 0.3 0 -0.3
v -0.1 0 -0.4
v 0.2 0 -0.4
v 0 0.4 0.3
v 0.1 0.4 0.3
v -0.2 0.4 0.2
v -0.1 0.4 0.2
v 0 0.4 0.2
v 0.1 0.4 0.2
v 0.2 0.4 0.2
v 0.3 0.4 0.2
v -0.2 0.4 0.1
v -0.1 0.4 0.1
v 0.2 0.4 0.1
v 0.3 0.4 0.1
v -0.3 0.4 0
v -0.2 0.4 0
v 0.3 0.4 0
v 0.4 0.4 0
v -0.3 0.4 -0.1
v -0.2 0.4 -0.1
v 0.3 0.4 -0.1
v 0.4 0.4 -0.1
v -0.2 0.4 -0.2
v -0.1 0.4 -0.2
v 0.2 0.4 -0.2
v 0.3 0.4 -0.2
v -0.2 0.4 -0.3
v -0.1 0.4 -0.3
v 0 0.4 -0.3
v 0.1 0.4 -0.3
v 0.2 0.4 -0.3
v 0.3 0.4 -0.3
v 0 0.4 -0.4
v 0.1 0.4 -0.4
v 0 0.3 0.3
v 0.1 0.3 0.3
v -0.2 0.3 0.2
v -0.1 0.3 0.2
v 0 0.3 0.2
v 0.1 0.3 0.2
v 0.2 0.3 0.2
v 0.3 0.3 0.2
v -0.2 0.3 0.1
v -0.1 0.3 0.1
v 0.2 0.3 0.1
v 0.3 0.3 0.1
v -0.3 0.3 0
v -0.2 0.3 0
v 0.3 0.3 0
v 0.4 0.3 0
v -0.3 0.3 -0.1
v -0.2 0.3 -0.1
v 0.3 0.3 -0.1
v 0.4 0.3 -0.1
v -0.2 0.3 -0.2
v -0.1 0.3 -0.2
v 0.2 0.3 -0.2
v 0.3 0.3 -0.2
v -0.2 0.3 -0.3
v -0.1 0.3 -0.3
v 0 0.3 -0.3
v 0.1 0.3 -0.3
v 0.2 0.3 -0.3
v 0.3 0.3 -0.3
v 0 0.3 -0.4
v 0.1 0.3 -0.4
v -0.1 0.4 0.3
v 0 0.4 0.3
v 0.1 0.4 0.3
v 0.2 0.4 0.3
v -0.1 0.4 0.2
v 0 0.4 0.2
v 0.1 0.4 0.2
v 0.2 0.4 0.2
v -0.3 0.4 0.1
v -0.2 0.4 0.1
v 0.3 0.4 0.1
v 0.4 0.4 0.1
v -0.3 0.4 0
v -0.2 0.4 0
v 0.3 0.4 0
v 0.4 0.4 0
v -0.3 0.4 -0.1
v -0.2 0.4 -0.1
v 0.3 0.4 -0.1
v 0.4 0.4 -0.1
v -0.3 0.4 -0.2
v -0.2 0.4 -0.2
v 0.3 0.4 -0.2
v 0.4 0.4 -0.2
v -0.1 0.4 -0.3
v 0 0.4 -0.3
v 0.1 0.4 -0.3
v 0.2 0.4 -0.3
v -0.1 0.4 -0.4
v 0 0.4 -0.4
v 0.1 0.4 -0.4
v 0.2 0.4 -0.4
v 0 0.5 0.3
v 0.1 0.5 0.3
v -0.2 0.5 0.2
v -0.1 0.5 0.2
v 0 0.5 0.2
v 0.1 0.5 0.2
v 0.2 0.5 0.2
v 0.3 0.5 0.2
v -0.2 0.5 0.1
v -0.1 0.5 0.1
v 0.2 0.5 0.1
v 0.3 0.5 0.1
v -0.3 0.5 0
v -0.2 0.5 0
v 0.3 0.5 0
v 0.4 0.5 0
v -0.3 0.5 -0.1
v -0.2 0.5 -0.1
v 0.3 0.5 -0.1
v 0.4 0.5 -0.1
v -0.2 0.5 -0.2
v -0.1 0.5 -0.2
v 0.2 0.5 -0.2
v 0.3 0.5 -0.2
v -0.2 0.5 -0.3
v -0.1 0.5 -0.3
v 0 0.5 -0.3
v 0.1 0.5 -0.3
v 0.2 0.5 -0.3
v 0.3 0.5 -0.3
v 0 0.5 -0.4
v 0.1 0.5 -0.4

# faces
f 3/1/1 2/1/1 1/1/1
f 4/1/1 2/1/1 3/1/1
f 5/1/1 3/1/1 1/1/1
f 5/3/1 4/3/1 3/3/1
f 6/1/1 2/1/1 4/1/1
f 6/3/1 4/3/1 5/3/1
f 7/1/1 5/1/1 1/1/1
f 7/1/1 6/1/1 5/1/1
f 8/1/1 2/1/1 6/1/1
f 8/1/1 6/1/1 7/1/1
f 9/1/1 7/1/1 1/1/1
f 10/1/1 7/1/1 9/1/1
f 11/1/1 2/1/1 8/1/1
f 12/1/1 2/1/1 11/1/1
f 13/2/1 11/2/1 10/2/1
f 14/2/1 11/2/1 13/2/1
f 19/1/1 16/1/1 15/1/1
f 20/1/1 16/1/1 19/1/1
f 21/1/1 18/1/1 17/1/1
f 22/1/1 18/1/1 21/1/1
f 23/3/1 20/3/1 19/3/1
f 24/3/1 20/3/1 23/3/1
f 25/3/1 22/3/1 21/3/1
f 26/3/1 22/3/1 25/3/1
f 27/1/1 24/1/1 23/1/1
f 28/1/1 24/1/1 27/1/1
f 29/1/1 26/1/1 25/1/1
f 30/1/1 26/1/1 29/1/1
f 35/2/1 32/2/1 31/2/1
f 36/2/1 32/2/1 35/2/1
f 37/2/1 34/2/1 33/2/1
f 38/2/1 34/2/1 37/2/1
f 43/1/1 40/1/1 39/1/1
f 44/1/1 42/1/1 41/1/1
f 45/1/1 43/1/1 39/1/1
f 46/1/1 42/1/1 44/1/1
f 47/1/1 45/1/1 39/1/1
f 48/1/1 42/1/1 46/1/1
f 49/1/1 47/1/1 39/1/1
f 50/1/1 47/1/1 49/1/1
f 51/1/1 42/1/1 48/1/1
f 52/1/1 42/1/1 51/1/1
f 57/2/1 54/2/1 53/2/1
f 58/2/1 54/2/1 57/2/1
f 59/2/1 56/2/1 55/2/1
f 60/2/1 56/2/1 59/2/1
f 65/1/1 62/1/1 61/1/1
f 66/1/1 62/1/1 65/1/1
f 67/1/1 64/1/1 63/1/1
f 68/1/1 64/1/1 67/1/1
f 73/1/1 70/1/1 69/1/1
f 74/1/1 70/1/1 73/1/1
f 75/1/1 72/1/1 71/1/1
f 76/1/1 72/1/1 75/1/1
f 77/3/1 74/3/1 73/3/1
f 78/3/1 74/3/1 77/3/1
f 79/3/1 76/3/1 75/3/1
f 80/3/1 76/3/1 79/3/1
f 81/1/1 78/1/1 77/1/1
f 82/1/1 78/1/1 81/1/1
f 83/1/1 80/1/1 79/1/1
f 84/1/1 80/1/1 83/1/1
f 89/2/1 86/2/1 85/2/1
f 90/2/1 86/2/1 89/2/1
f 91/2/1 88/2/1 87/2/1
f 92/2/1 88/2/1 91/2/1
f 95/1/1 94/1/1 93/1/1
f 96/1/1 94/1/1 95/1/1
f 97/1/1 94/1/1 96/1/1
f 98/1/1 94/1/1 97/1/1
f 99/1/1 96/1/1 95/1/1
f 100/3/1 97/3/1 96/3/1
f 100/1/1 96/1/1 99/1/1
f 101/1/1 98/1/1 97/1/1
f 101/3/1 97/3/1 100/3/1
f 102/1/1 98/1/1 101/1/1
f 103/1/1 100/1/1 99/1/1
f 103/1/1 101/1/1 100/1/1
f 103/1/1 102/1/1 101/1/1
f 104/1/1 102/1/1 103/1/1
f 105/1/1 102/1/1 104/1/1
f 106/1/1 102/1/1 105/1/1
f 107/1/1 104/1/1 103/1/1
f 108/1/1 104/1/1 107/1/1
f 109/1/1 106/1/1 105/1/1
f 110/1/1 106/1/1 109/1/1
f 111/2/1 109/2/1 108/2/1
f 112/2/1 109/2/1 111/2/1
f 113/1/2 114/1/2 115/1/2
f 115/1/2 114/1/2 116/1/2
f 116/1/2 114/1/2 117/1/2
f 117/1/2 114/1/2 118/1/2
f 115/1/2 116/1/2 119/1/2
f 116/3/2 117/3/2 120/3/2
f 119/1/2 116/1/2 120/1/2
f 117/1/2 118/1/2 121/1/2
f 120/3/2 117/3/2 121/3/2
f 121/1/2 118/1/2 122/1/2
f 119/1/2 120/1/2 123/1/2
f 120/1/2 121/1/2 123/1/2
f 121/1/2 122/1/2 123/1/2
f 123/1/2 122/1/2 124/1/2
f 124/1/2 122/1/2 125/1/2
f 125/1/2 122/1/2 126/1/2
f 123/1/2 124/1/2 127/1/2
f 127/1/2 124/1/2 128/1/2
f 125/1/2 126/1/2 129/1/2
f 129/1/2 126/1/2 130/1/2
f 128/2/2 129/2/2 131/2/2
f 131/2/2 129/2/2 132/2/2
f 133/1/2 134/1/2 137/1/2
f 137/1/2 134/1/2 138/1/2
f 135/1/2 136/1/2 139/1/2
f 139/1/2 136/1/2 140/1/2
f 137/3/2 138/3/2 141/3/2
f 141/3/2 138/3/2 142/3/2
f 139/3/2 140/3/2 143/3/2
f 143/3/2 140/3/2 144/3/2
f 141/1/2 142/1/2 145/1/2
f 145/1/2 142/1/2 146/1/2
f 143/1/2 144/1/2 147/1/2
f 147/1/2 144/1/2 148/1/2
f 149/2/2 150/2/2 153/2/2
f 153/2/2 150/2/2 154/2/2
f 151/2/2 152/2/2 155/2/2
f 155/2/2 152/2/2 156/2/2
f 157/1/2 158/1/2 161/1/2
f 161/1/2 158/1/2 162/1/2
f 159/1/2 160/1/2 163/1/2
f 163/1/2 160/1/2 164/1/2
f 165/2/2 166/2/2 169/2/2
f 169/2/2 166/2/2 170/2/2
f 167/2/2 168/2/2 171/2/2
f 171/2/2 168/2/2 172/2/2
f 173/1/2 174/1/2 177/1/2
f 175/1/2 176/1/2 178/1/2
f 173/1/2 177/1/2 179/1/2
f 178/1/2 176/1/2 180/1/2
f 173/1/2 179/1/2 181/1/2
f 180/1/2 176/1/2 182/1/2
f 173/1/2 181/1/2 183/1/2
f 183/1/2 181/1/2 184/1/2
f 182/1/2 176/1/2 185/1/2
f 185/1/2 176/1/2 186/1/2
f 187/1/2 188/1/2 191/1/2
f 191/1/2 188/1/2 192/1/2
f 189/1/2 190/1/2 193/1/2
f 193/1/2 190/1/2 194/1/2
f 191/3/2 192/3/2 195/3/2
f 195/3/2 192/3/2 196/3/2
f 193/3/2 194/3/2 197/3/2
f 197/3/2 194/3/2 198/3/2
f 195/1/2 196/1/2 199/1/2
f 199/1/2 196/1/2 200/1/2
f 197/1/2 198/1/2 201/1/2
f 201/1/2 198/1/2 202/1/2
f 203/2/2 204/2/2 207/2/2
f 207/2/2 204/2/2 208/2/2
f 205/2/2 206/2/2 209/2/2
f 209/2/2 206/2/2 210/2/2
f 211/1/2 212/1/2 213/1/2
f 213/1/2 212/1/2 214/1/2
f 211/1/2 213/1/2 215/1/2
f 213/3/2 214/3/2 215/3/2
f 214/1/2 212/1/2 216/1/2
f 215/3/2 214/3/2 216/3/2
f 211/1/2 215/1/2 217/1/2
f 215/1/2 216/1/2 217/1/2
f 216/1/2 212/1/2 218/1/2
f 217/1/2 216/1/2 218/1/2
f 211/1/2 217/1/2 219/1/2
f 219/1/2 217/1/2 220/1/2
f 218/1/2 212/1/2 221/1/2
f 221/1/2 212/1/2 222/1/2
f 220/2/2 221/2/2 223/2/2
f 223/2/2 221/2/2 224/2/2
f 227/1/3 226/1/3 225/1/3
f 228/1/3 226/1/3 227/1/3
f 229/1/3 226/1/3 228/1/3
f 230/1/3 226/1/3 229/1/3
f 232/1/3 227/1/3 225/1/3
f 232/3/3 228/3/3 227/3/3
f 233/1/3 229/1/3 228/1/3
f 233/3/3 228/3/3 232/3/3
f 234/1/3 229/1/3 233/1/3
f 235/2/3 231/2/3 230/2/3
f 236/2/3 231/2/3 235/2/3
f 237/1/3 234/1/3 233/1/3
f 237/1/3 232/1/3 225/1/3
f 237/1/3 235/1/3 234/1/3
f 237/1/3 233/1/3 232/1/3
f 238/1/3 235/1/3 237/1/3
f 245/1/3 240/1/3 239/1/3
f 246/3/3 241/3/3 240/3/3
f 246/1/3 240/1/3 245/1/3
f 247/1/3 242/1/3 241/1/3
f 247/3/3 241/3/3 246/3/3
f 248/1/3 242/1/3 247/1/3
f 249/2/3 244/2/3 243/2/3
f 250/2/3 244/2/3 249/2/3
f 257/1/3 252/1/3 251/1/3
f 258/3/3 253/3/3 252/3/3
f 258/1/3 252/1/3 257/1/3
f 259/1/3 254/1/3 253/1/3
f 259/3/3 253/3/3 258/3/3
f 260/1/3 254/1/3 259/1/3
f 261/2/3 256/2/3 255/2/3
f 262/2/3 256/2/3 261/2/3
f 265/1/3 264/1/3 263/1/3
f 266/1/3 264/1/3 265/1/3
f 267/1/3 264/1/3 266/1/3
f 268/1/3 264/1/3 267/1/3
f 269/1/3 264/1/3 268/1/3
f 275/1/3 271/1/3 270/1/3
f 275/1/3 274/1/3 273/1/3
f 275/1/3 273/1/3 272/1/3
f 275/1/3 272/1/3 271/1/3
f 276/1/3 274/1/3 275/1/3
f 279/2/3 278/2/3 277/2/3
f 280/2/3 278/2/3 279/2/3
f 283/2/3 282/2/3 281/2/3
f 284/2/3 282/2/3 283/2/3
f 287/1/3 286/1/3 285/1/3
f 288/1/3 286/1/3 287/1/3
f 291/1/3 290/1/3 289/1/3
f 292/1/3 290/1/3 291/1/3
f 299/1/3 294/1/3 293/1/3
f 300/3/3 295/3/3 294/3/3
f 300/1/3 294/1/3 299/1/3
f 301/1/3 296/1/3 295/1/3
f 301/3/3 295/3/3 300/3/3
f 302/1/3 296/1/3 301/1/3
f 303/2/3 298/2/3 297/2/3
f 304/2/3 298/2/3 303/2/3
f 311/1/3 306/1/3 305/1/3
f 312/3/3 307/3/3 306/3/3
f 312/1/3 306/1/3 311/1/3
f 313/1/3 308/1/3 307/1/3
f 313/3/3 307/3/3 312/3/3
f 314/1/3 308/1/3 313/1/3
f 315/2/3 310/2/3 309/2/3
f 316/2/3 310/2/3 315/2/3
f 322/1/3 318/1/3 317/1/3
f 322/1/3 321/1/3 320/1/3
f 322/1/3 320/1/3 319/1/3
f 322/1/3 319/1/3 318/1/3
f 323/1/3 321/1/3 322/1/3
f 324/1/3 321/1/3 323/1/3
f 325/1/3 321/1/3 324/1/3
f 327/1/3 322/1/3 317/1/3
f 327/3/3 323/3/3 322/3/3
f 328/1/3 324/1/3 323/1/3
f 328/3/3 323/3/3 327/3/3
f 329/1/3 324/1/3 328/1/3
f 330/2/3 326/2/3 325/2/3
f 331/2/3 326/2/3 330/2/3
f 332/1/3 329/1/3 328/1/3
f 332/1/3 327/1/3 317/1/3
f 332/1/3 330/1/3 329/1/3
f 332/1/3 328/1/3 327/1/3
f 333/1/3 330/1/3 332/1/3
f 334/1/3 330/1/3 333/1/3
f 335/1/3 330/1/3 334/1/3
f 336/1/3 330/1/3 335/1/3
f 337/1/4 338/1/4 342/1/4
f 340/1/4 341/1/4 342/1/4
f 339/1/4 340/1/4 342/1/4
f 338/1/4 339/1/4 342/1/4
f 342/1/4 341/1/4 343/1/4
f 343/1/4 341/1/4 344/1/4
f 344/1/4 341/1/4 345/1/4
f 337/1/4 342/1/4 347/1/4
f 342/3/4 343/3/4 347/3/4
f 343/1/4 344/1/4 348/1/4
f 347/3/4 343/3/4 348/3/4
f 348/1/4 344/1/4 349/1/4
f 345/2/4 346/2/4 350/2/4
f 350/2/4 346/2/4 351/2/4
f 348/1/4 349/1/4 352/1/4
f 337/1/4 347/1/4 352/1/4
f 349/1/4 350/1/4 352/1/4
f 347/1/4 348/1/4 352/1/4
f 352/1/4 350/1/4 353/1/4
f 353/1/4 350/1/4 354/1/4
f 354/1/4 350/1/4 355/1/4
f 355/1/4 350/1/4 356/1/4
f 357/1/4 358/1/4 363/1/4
f 358/3/4 359/3/4 364/3/4
f 363/1/4 358/1/4 364/1/4
f 359/1/4 360/1/4 365/1/4
f 364/3/4 359/3/4 365/3/4
f 365/1/4 360/1/4 366/1/4
f 361/2/4 362/2/4 367/2/4
f 367/2/4 362/2/4 368/2/4
f 369/1/4 370/1/4 375/1/4
f 370/3/4 371/3/4 376/3/4
f 375/1/4 370/1/4 376/1/4
f 371/1/4 372/1/4 377/1/4
f 376/3/4 371/3/4 377/3/4
f 377/1/4 372/1/4 378/1/4
f 373/2/4 374/2/4 379/2/4
f 379/2/4 374/2/4 380/2/4
f 381/1/4 382/1/4 383/1/4
f 383/1/4 382/1/4 384/1/4
f 385/1/4 386/1/4 387/1/4
f 387/1/4 386/1/4 388/1/4
f 389/2/4 390/2/4 391/2/4
f 391/2/4 390/2/4 392/2/4
f 393/2/4 394/2/4 395/2/4
f 395/2/4 394/2/4 396/2/4
f 397/1/4 398/1/4 399/1/4
f 399/1/4 398/1/4 400/1/4
f 400/1/4 398/1/4 401/1/4
f 401/1/4 398/1/4 402/1/4
f 402/1/4 398/1/4 403/1/4
f 404/1/4 405/1/4 409/1/4
f 407/1/4 408/1/4 409/1/4
f 406/1/4 407/1/4 409/1/4
f 405/1/4 406/1/4 409/1/4
f 409/1/4 408/1/4 410/1/4
f 411/1/4 412/1/4 417/1/4
f 412/3/4 413/3/4 418/3/4
f 417/1/4 412/1/4 418/1/4
f 413/1/4 414/1/4 419/1/4
f 418/3/4 413/3/4 419/3/4
f 419/1/4 414/1/4 420/1/4
f 415/2/4 416/2/4 421/2/4
f 421/2/4 416/2/4 422/2/4
f 423/1/4 424/1/4 429/1/4
f 424/3/4 425/3/4 430/3/4
f 429/1/4 424/1/4 430/1/4
f 425/1/4 426/1/4 431/1/4
f 430/3/4 425/3/4 431/3/4
f 431/1/4 426/1/4 432/1/4
f 427/2/4 428/2/4 433/2/4
f 433/2/4 428/2/4 434/2/4
f 435/1/4 436/1/4 437/1/4
f 437/1/4 436/1/4 438/1/4
f 438/1/4 436/1/4 439/1/4
f 439/1/4 436/1/4 440/1/4
f 435/1/4 437/1/4 442/1/4
f 437/3/4 438/3/4 442/3/4
f 438/1/4 439/1/4 443/1/4
f 442/3/4 438/3/4 443/3/4
f 443/1/4 439/1/4 444/1/4
f 440/2/4 441/2/4 445/2/4
f 445/2/4 441/2/4 446/2/4
f 443/1/4 444/1/4 447/1/4
f 435/1/4 442/1/4 447/1/4
f 444/1/4 445/1/4 447/1/4
f 442/1/4 443/1/4 447/1/4
f 447/1/4 445/1/4 448/1/4
f 452/1/5 450/1/5 449/1/5
f 453/1/5 450/1/5 452/1/5
f 456/1/5 452/1/5 451/1/5
f 457/1/5 452/1/5 456/1/5
f 458/1/5 454/1/5 453/1/5
f 459/1/5 454/1/5 458/1/5
f 461/1/5 456/1/5 455/1/5
f 462/1/5 456/1/5 461/1/5
f 465/1/5 460/1/5 459/1/5
f 466/1/5 460/1/5 465/1/5
f 467/1/5 463/1/5 462/1/5
f 468/1/5 463/1/5 467/1/5
f 469/1/5 465/1/5 464/1/5
f 470/1/5 465/1/5 469/1/5
f 471/1/5 469/1/5 468/1/5
f 472/1/5 469/1/5 471/1/5
f 477/2/5 474/2/5 473/2/5
f 478/2/5 474/2/5 477/2/5
f 481/2/5 476/2/5 475/2/5
f 482/2/5 476/2/5 481/2/5
f 483/2/5 480/2/5 479/2/5
f 484/2/5 480/2/5 483/2/5
f 489/2/5 486/2/5 485/2/5
f 490/2/5 486/2/5 489/2/5
f 491/2/5 488/2/5 487/2/5
f 492/2/5 488/2/5 491/2/5
f 497/2/5 494/2/5 493/2/5
f 498/2/5 494/2/5 497/2/5
f 501/2/5 496/2/5 495/2/5
f 502/2/5 496/2/5 501/2/5
f 503/2/5 500/2/5 499/2/5
f 504/2/5 500/2/5 503/2/5
f 505/1/6 506/1/6 509/1/6
f 509/1/6 506/1/6 510/1/6
f 507/1/6 508/1/6 513/1/6
f 513/1/6 508/1/6 514/1/6
f 511/1/6 512/1/6 515/1/6
f 515/1/6 512/1/6 516/1/6
f 517/1/6 518/1/6 521/1/6
f 521/1/6 518/1/6 522/1/6
f 519/1/6 520/1/6 523/1/6
f 523/1/6 520/1/6 524/1/6
f 525/1/6 526/1/6 529/1/6
f 529/1/6 526/1/6 530/1/6
f 527/1/6 528/1/6 533/1/6
f 533/1/6 528/1/6 534/1/6
f 531/1/6 532/1/6 535/1/6
f 535/1/6 532/1/6 536/1/6
f 537/1/6 538/1/6 541/1/6
f 541/1/6 538/1/6 542/1/6
f 539/1/6 540/1/6 543/1/6
f 543/1/6 540/1/6 544/1/6
f 545/1/6 546/1/6 549/1/6
f 549/1/6 546/1/6 550/1/6
f 547/1/6 548/1/6 551/1/6
f 551/1/6 548/1/6 552/1/6
f 553/1/6 554/1/6 557/1/6
f 557/1/6 554/1/6 558/1/6
f 555/1/6 556/1/6 559/1/6
f 559/1/6 556/1/6 560/1/6
f 561/1/6 562/1/6 565/1/6
f 565/1/6 562/1/6 566/1/6
f 563/1/6 564/1/6 567/1/6
f 567/1/6 564/1/6 568/1/6
f 569/2/6 570/2/6 573/2/6
f 573/2/6 570/2/6 574/2/6
f 571/2/6 572/2/6 577/2/6
f 577/2/6 572/2/6 578/2/6
f 575/2/6 576/2/6 579/2/6
f 579/2/6 576/2/6 580/2/6
f 581/2/6 582/2/6 585/2/6
f 585/2/6 582/2/6 586/2/6
f 583/2/6 584/2/6 587/2/6
f 587/2/6 584/2/6 588/2/6
f 589/2/6 590/2/6 593/2/6
f 593/2/6 590/2/6 594/2/6
f 591/2/6 592/2/6 597/2/6
f 597/2/6 592/2/6 598/2/6
f 595/2/6 596/2/6 599/2/6
f 599/2/6 596/2/6 600/2/6
