# Blender 3.6.23
# www.blender.org
mtllib Treasure4.mtl
o Untitled.003
v -0.200000 -0.200000 0.200000
v -0.200000 -0.200000 -0.000000
v -0.200000 -0.100000 0.300000
v -0.200000 -0.100000 0.200000
v -0.200000 -0.100000 -0.000000
v -0.200000 -0.100000 -0.100000
v -0.200000 -0.000000 0.100000
v -0.200000 -0.000000 -0.000000
v -0.200000 0.100000 0.300000
v -0.200000 0.100000 0.200000
v -0.200000 0.100000 0.100000
v -0.200000 0.100000 -0.000000
v -0.200000 0.100000 -0.100000
v -0.200000 0.200000 0.200000
v -0.200000 0.200000 0.100000
v -0.200000 0.200000 -0.000000
v -0.100000 -0.300000 0.200000
v -0.100000 -0.300000 -0.000000
v -0.100000 -0.200000 0.300000
v -0.100000 -0.200000 0.200000
v -0.100000 -0.200000 -0.000000
v -0.100000 -0.200000 -0.100000
v -0.100000 -0.100000 0.300000
v -0.100000 -0.100000 0.200000
v -0.100000 -0.100000 -0.000000
v -0.100000 -0.100000 -0.100000
v -0.100000 0.100000 0.300000
v -0.100000 0.100000 0.200000
v -0.100000 0.100000 -0.000000
v -0.100000 0.100000 -0.100000
v -0.100000 0.200000 0.300000
v -0.100000 0.200000 0.200000
v -0.100000 0.200000 0.100000
v -0.100000 0.200000 -0.000000
v -0.100000 0.200000 -0.100000
v -0.100000 0.300000 0.200000
v -0.100000 0.300000 -0.000000
v 0.100000 -0.300000 0.200000
v 0.100000 -0.300000 -0.000000
v 0.100000 -0.200000 0.300000
v 0.100000 -0.200000 0.200000
v 0.100000 -0.200000 -0.000000
v 0.100000 -0.200000 -0.100000
v 0.100000 -0.100000 0.300000
v 0.100000 -0.100000 0.200000
v 0.100000 -0.100000 -0.000000
v 0.100000 -0.100000 -0.100000
v 0.100000 0.100000 0.300000
v 0.100000 0.100000 0.200000
v 0.100000 0.100000 -0.000000
v 0.100000 0.100000 -0.100000
v 0.100000 0.200000 0.300000
v 0.100000 0.200000 0.200000
v 0.100000 0.200000 0.100000
v 0.100000 0.200000 -0.000000
v 0.100000 0.200000 -0.100000
v 0.100000 0.300000 0.200000
v 0.100000 0.300000 -0.000000
v 0.200000 -0.200000 0.200000
v 0.200000 -0.200000 -0.000000
v 0.200000 -0.100000 0.300000
v 0.200000 -0.100000 0.200000
v 0.200000 -0.100000 0.100000
v 0.200000 -0.100000 -0.000000
v 0.200000 -0.100000 -0.100000
v 0.200000 0.000000 0.200000
v 0.200000 -0.000000 0.100000
v 0.200000 -0.000000 -0.000000
v 0.200000 0.100000 0.300000
v 0.200000 0.100000 0.200000
v 0.200000 0.100000 0.100000
v 0.200000 0.100000 -0.000000
v 0.200000 0.100000 -0.100000
v 0.200000 0.200000 0.200000
v 0.200000 0.200000 0.100000
v 0.200000 0.200000 -0.000000
v -0.200000 -0.100000 0.300000
v -0.200000 0.100000 0.300000
v -0.100000 -0.200000 0.300000
v -0.100000 -0.100000 0.300000
v -0.100000 0.000000 0.300000
v -0.100000 0.100000 0.300000
v -0.100000 0.200000 0.300000
v 0.000000 -0.100000 0.300000
v 0.000000 0.000000 0.300000
v 0.000000 0.100000 0.300000
v 0.000000 0.200000 0.300000
v 0.100000 -0.200000 0.300000
v 0.100000 -0.100000 0.300000
v 0.100000 0.000000 0.300000
v 0.100000 0.100000 0.300000
v 0.100000 0.200000 0.300000
v 0.200000 -0.100000 0.300000
v 0.200000 0.100000 0.300000
v -0.200000 -0.200000 0.200000
v -0.200000 -0.100000 0.200000
v -0.200000 0.100000 0.200000
v -0.200000 0.200000 0.200000
v -0.100000 -0.300000 0.200000
v -0.100000 -0.200000 0.200000
v -0.100000 -0.100000 0.200000
v -0.100000 0.100000 0.200000
v -0.100000 0.200000 0.200000
v -0.100000 0.300000 0.200000
v 0.000000 0.200000 0.200000
v 0.100000 -0.300000 0.200000
v 0.100000 -0.200000 0.200000
v 0.100000 -0.100000 0.200000
v 0.100000 0.100000 0.200000
v 0.100000 0.200000 0.200000
v 0.100000 0.300000 0.200000
v 0.200000 -0.200000 0.200000
v 0.200000 -0.100000 0.200000
v 0.200000 0.100000 0.200000
v 0.200000 0.200000 0.200000
v -0.200000 -0.200000 -0.000000
v -0.200000 -0.100000 -0.000000
v -0.200000 0.100000 -0.000000
v -0.200000 0.200000 -0.000000
v -0.100000 -0.300000 -0.000000
v -0.100000 -0.200000 -0.000000
v -0.100000 -0.100000 -0.000000
v -0.100000 0.100000 -0.000000
v -0.100000 0.200000 -0.000000
v -0.100000 0.300000 -0.000000
v 0.000000 0.200000 -0.000000
v 0.100000 -0.300000 -0.000000
v 0.100000 -0.200000 -0.000000
v 0.100000 -0.100000 -0.000000
v 0.100000 0.100000 -0.000000
v 0.100000 0.200000 -0.000000
v 0.100000 0.300000 -0.000000
v 0.200000 -0.200000 -0.000000
v 0.200000 -0.100000 -0.000000
v 0.200000 0.100000 -0.000000
v 0.200000 0.200000 -0.000000
v -0.200000 -0.100000 -0.100000
v -0.200000 0.100000 -0.100000
v -0.100000 -0.200000 -0.100000
v -0.100000 -0.100000 -0.100000
v -0.100000 -0.000000 -0.100000
v -0.100000 0.100000 -0.100000
v -0.100000 0.200000 -0.100000
v 0.000000 -0.100000 -0.100000
v 0.000000 -0.000000 -0.100000
v 0.000000 0.100000 -0.100000
v 0.000000 0.200000 -0.100000
v 0.100000 -0.200000 -0.100000
v 0.100000 -0.100000 -0.100000
v 0.100000 -0.000000 -0.100000
v 0.100000 0.100000 -0.100000
v 0.100000 0.200000 -0.100000
v 0.200000 -0.100000 -0.100000
v 0.200000 0.100000 -0.100000
v -0.100000 -0.300000 0.200000
v 0.100000 -0.300000 0.200000
v -0.100000 -0.300000 -0.000000
v 0.100000 -0.300000 -0.000000
v -0.100000 -0.200000 0.300000
v 0.100000 -0.200000 0.300000
v -0.200000 -0.200000 0.200000
v -0.100000 -0.200000 0.200000
v 0.100000 -0.200000 0.200000
v 0.200000 -0.200000 0.200000
v -0.200000 -0.200000 -0.000000
v -0.100000 -0.200000 -0.000000
v 0.100000 -0.200000 -0.000000
v 0.200000 -0.200000 -0.000000
v -0.100000 -0.200000 -0.100000
v 0.100000 -0.200000 -0.100000
v -0.200000 -0.100000 0.300000
v -0.100000 -0.100000 0.300000
v 0.100000 -0.100000 0.300000
v 0.200000 -0.100000 0.300000
v -0.200000 -0.100000 0.200000
v -0.100000 -0.100000 0.200000
v 0.100000 -0.100000 0.200000
v 0.200000 -0.100000 0.200000
v -0.200000 -0.100000 -0.000000
v -0.100000 -0.100000 -0.000000
v 0.100000 -0.100000 -0.000000
v 0.200000 -0.100000 -0.000000
v -0.200000 -0.100000 -0.100000
v -0.100000 -0.100000 -0.100000
v 0.100000 -0.100000 -0.100000
v 0.200000 -0.100000 -0.100000
v -0.200000 0.100000 0.300000
v -0.100000 0.100000 0.300000
v 0.100000 0.100000 0.300000
v 0.200000 0.100000 0.300000
v -0.200000 0.100000 0.200000
v -0.100000 0.100000 0.200000
v 0.100000 0.100000 0.200000
v 0.200000 0.100000 0.200000
v -0.200000 0.100000 -0.000000
v -0.100000 0.100000 -0.000000
v 0.100000 0.100000 -0.000000
v 0.200000 0.100000 -0.000000
v -0.200000 0.100000 -0.100000
v -0.100000 0.100000 -0.100000
v 0.100000 0.100000 -0.100000
v 0.200000 0.100000 -0.100000
v -0.100000 0.200000 0.300000
v 0.000000 0.200000 0.300000
v 0.100000 0.200000 0.300000
v -0.200000 0.200000 0.200000
v -0.100000 0.200000 0.200000
v 0.000000 0.200000 0.200000
v 0.100000 0.200000 0.200000
v 0.200000 0.200000 0.200000
v -0.200000 0.200000 0.100000
v -0.100000 0.200000 0.100000
v 0.100000 0.200000 0.100000
v 0.200000 0.200000 0.100000
v -0.200000 0.200000 -0.000000
v -0.100000 0.200000 -0.000000
v 0.000000 0.200000 -0.000000
v 0.100000 0.200000 -0.000000
v 0.200000 0.200000 -0.000000
v -0.100000 0.200000 -0.100000
v 0.000000 0.200000 -0.100000
v 0.100000 0.200000 -0.100000
v -0.100000 0.300000 0.200000
v 0.100000 0.300000 0.200000
v -0.100000 0.300000 -0.000000
v 0.100000 0.300000 -0.000000
vn -1.0000 -0.0000 -0.0000
vn 1.0000 -0.0000 -0.0000
vn -0.0000 -0.0000 1.0000
vn -0.0000 -0.0000 -1.0000
vn -0.0000 -1.0000 -0.0000
vn -0.0000 1.0000 -0.0000
vt 0.693359 0.500000
vt 0.701172 0.500000
vt 0.708984 0.500000
vt 0.705078 0.500000
vt 0.697266 0.500000
vt 0.712891 0.500000
vt 0.689453 0.500000
s 0
usemtl palette.006
f 4/1/1 2/1/1 1/1/1
f 5/1/1 2/1/1 4/1/1
f 7/1/1 5/1/1 4/1/1
f 8/2/1 6/2/1 5/2/1
f 8/1/1 5/1/1 7/1/1
f 9/3/1 4/3/1 3/3/1
f 10/1/1 7/1/1 4/1/1
f 10/3/1 4/3/1 9/3/1
f 11/4/1 8/4/1 7/4/1
f 11/1/1 7/1/1 10/1/1
f 12/2/1 6/2/1 8/2/1
f 12/4/1 8/4/1 11/4/1
f 13/2/1 6/2/1 12/2/1
f 14/1/1 11/1/1 10/1/1
f 15/5/1 12/5/1 11/5/1
f 15/1/1 11/1/1 14/1/1
f 16/5/1 12/5/1 15/5/1
f 20/6/1 18/6/1 17/6/1
f 21/6/1 18/6/1 20/6/1
f 23/1/1 20/1/1 19/1/1
f 24/1/1 20/1/1 23/1/1
f 25/1/1 22/1/1 21/1/1
f 26/1/1 22/1/1 25/1/1
f 31/1/1 28/1/1 27/1/1
f 32/1/1 28/1/1 31/1/1
f 34/5/1 30/5/1 29/5/1
f 35/5/1 30/5/1 34/5/1
f 36/7/1 33/7/1 32/7/1
f 36/7/1 34/7/1 33/7/1
f 37/7/1 34/7/1 36/7/1
f 38/6/2 39/6/2 41/6/2
f 41/6/2 39/6/2 42/6/2
f 40/1/2 41/1/2 44/1/2
f 44/1/2 41/1/2 45/1/2
f 42/1/2 43/1/2 46/1/2
f 46/1/2 43/1/2 47/1/2
f 48/5/2 49/5/2 52/5/2
f 52/5/2 49/5/2 53/5/2
f 50/1/2 51/1/2 55/1/2
f 55/1/2 51/1/2 56/1/2
f 53/7/2 54/7/2 57/7/2
f 54/7/2 55/7/2 57/7/2
f 57/7/2 55/7/2 58/7/2
f 59/1/2 60/1/2 62/1/2
f 62/1/2 60/1/2 63/1/2
f 63/1/2 60/1/2 64/1/2
f 61/2/2 62/2/2 66/2/2
f 62/1/2 63/1/2 66/1/2
f 63/4/2 64/4/2 67/4/2
f 66/1/2 63/1/2 67/1/2
f 64/3/2 65/3/2 68/3/2
f 67/4/2 64/4/2 68/4/2
f 61/2/2 66/2/2 69/2/2
f 66/4/2 67/4/2 70/4/2
f 69/2/2 66/2/2 70/2/2
f 67/1/2 68/1/2 71/1/2
f 70/4/2 67/4/2 71/4/2
f 68/3/2 65/3/2 72/3/2
f 71/1/2 68/1/2 72/1/2
f 72/3/2 65/3/2 73/3/2
f 70/5/2 71/5/2 74/5/2
f 71/1/2 72/1/2 75/1/2
f 74/5/2 71/5/2 75/5/2
f 75/1/2 72/1/2 76/1/2
f 80/3/3 78/3/3 77/3/3
f 81/3/3 78/3/3 80/3/3
f 82/3/3 78/3/3 81/3/3
f 84/1/3 80/1/3 79/1/3
f 84/4/3 81/4/3 80/4/3
f 85/1/3 83/1/3 82/1/3
f 85/4/3 81/4/3 84/4/3
f 85/1/3 82/1/3 81/1/3
f 86/1/3 83/1/3 85/1/3
f 87/1/3 83/1/3 86/1/3
f 88/1/3 84/1/3 79/1/3
f 88/1/3 85/1/3 84/1/3
f 89/1/3 85/1/3 88/1/3
f 90/4/3 86/4/3 85/4/3
f 90/1/3 85/1/3 89/1/3
f 91/5/3 87/5/3 86/5/3
f 91/4/3 86/4/3 90/4/3
f 92/5/3 87/5/3 91/5/3
f 93/2/3 90/2/3 89/2/3
f 93/2/3 91/2/3 90/2/3
f 94/2/3 91/2/3 93/2/3
f 100/1/3 96/1/3 95/1/3
f 101/1/3 96/1/3 100/1/3
f 102/1/3 98/1/3 97/1/3
f 103/1/3 98/1/3 102/1/3
f 105/7/3 104/7/3 103/7/3
f 106/6/3 100/6/3 99/6/3
f 107/6/3 100/6/3 106/6/3
f 110/7/3 104/7/3 105/7/3
f 111/7/3 104/7/3 110/7/3
f 112/1/3 108/1/3 107/1/3
f 113/1/3 108/1/3 112/1/3
f 114/5/3 110/5/3 109/5/3
f 115/5/3 110/5/3 114/5/3
f 116/1/4 117/1/4 121/1/4
f 121/1/4 117/1/4 122/1/4
f 118/5/4 119/5/4 123/5/4
f 123/5/4 119/5/4 124/5/4
f 124/7/4 125/7/4 126/7/4
f 120/6/4 121/6/4 127/6/4
f 127/6/4 121/6/4 128/6/4
f 126/7/4 125/7/4 131/7/4
f 131/7/4 125/7/4 132/7/4
f 128/1/4 129/1/4 133/1/4
f 133/1/4 129/1/4 134/1/4
f 130/1/4 131/1/4 135/1/4
f 135/1/4 131/1/4 136/1/4
f 137/2/4 138/2/4 140/2/4
f 140/2/4 138/2/4 141/2/4
f 141/2/4 138/2/4 142/2/4
f 139/1/4 140/1/4 144/1/4
f 140/1/4 141/1/4 144/1/4
f 141/4/4 142/4/4 145/4/4
f 144/1/4 141/1/4 145/1/4
f 142/5/4 143/5/4 146/5/4
f 145/4/4 142/4/4 146/4/4
f 146/5/4 143/5/4 147/5/4
f 139/1/4 144/1/4 148/1/4
f 144/4/4 145/4/4 149/4/4
f 148/1/4 144/1/4 149/1/4
f 145/1/4 146/1/4 150/1/4
f 149/4/4 145/4/4 150/4/4
f 146/1/4 147/1/4 150/1/4
f 150/1/4 147/1/4 151/1/4
f 151/1/4 147/1/4 152/1/4
f 149/3/4 150/3/4 153/3/4
f 150/3/4 151/3/4 153/3/4
f 153/3/4 151/3/4 154/3/4
f 157/6/5 156/6/5 155/6/5
f 158/6/5 156/6/5 157/6/5
f 162/1/5 160/1/5 159/1/5
f 163/1/5 160/1/5 162/1/5
f 165/1/5 162/1/5 161/1/5
f 166/1/5 162/1/5 165/1/5
f 167/1/5 164/1/5 163/1/5
f 168/1/5 164/1/5 167/1/5
f 169/1/5 167/1/5 166/1/5
f 170/1/5 167/1/5 169/1/5
f 175/3/5 172/3/5 171/3/5
f 176/3/5 172/3/5 175/3/5
f 177/2/5 174/2/5 173/2/5
f 178/2/5 174/2/5 177/2/5
f 183/2/5 180/2/5 179/2/5
f 184/2/5 180/2/5 183/2/5
f 185/3/5 182/3/5 181/3/5
f 186/3/5 182/3/5 185/3/5
f 187/3/6 188/3/6 191/3/6
f 191/3/6 188/3/6 192/3/6
f 189/2/6 190/2/6 193/2/6
f 193/2/6 190/2/6 194/2/6
f 195/2/6 196/2/6 199/2/6
f 199/2/6 196/2/6 200/2/6
f 197/3/6 198/3/6 201/3/6
f 201/3/6 198/3/6 202/3/6
f 203/1/6 204/1/6 207/1/6
f 204/5/6 205/5/6 208/5/6
f 207/1/6 204/1/6 208/1/6
f 208/5/6 205/5/6 209/5/6
f 206/1/6 207/1/6 211/1/6
f 211/1/6 207/1/6 212/1/6
f 209/5/6 210/5/6 213/5/6
f 213/5/6 210/5/6 214/5/6
f 211/5/6 212/5/6 215/5/6
f 215/5/6 212/5/6 216/5/6
f 213/1/6 214/1/6 218/1/6
f 218/1/6 214/1/6 219/1/6
f 216/5/6 217/5/6 220/5/6
f 217/1/6 218/1/6 221/1/6
f 220/5/6 217/5/6 221/5/6
f 221/1/6 218/1/6 222/1/6
f 223/7/6 224/7/6 225/7/6
f 225/7/6 224/7/6 226/7/6
