# MagicaVoxel @ Ephtracy

# group
o 

# material
mtllib crown1.mtl
usemtl palette

# normals
vn -1 0 0
vn 1 0 0
vn 0 0 1
vn 0 0 -1
vn 0 -1 0
vn 0 1 0

# texcoords
vt 0.751953 0.5
vt 0.755859 0.5
vt 0.759766 0.5

# verts
v -0.2 0 0.2
v -0.2 0 -0.3
v -0.2 0.1 0.1
v -0.2 0.1 0
v -0.2 0.1 -0.1
v -0.2 0.1 -0.2
v -0.2 0.2 0.1
v -0.2 0.2 0
v -0.2 0.2 -0.1
v -0.2 0.2 -0.2
v -0.2 0.3 0.2
v -0.2 0.3 0.1
v -0.2 0.3 0
v -0.2 0.3 -0.1
v -0.2 0.3 -0.2
v -0.2 0.3 -0.3
v -0.2 0.4 0.2
v -0.2 0.4 0.1
v -0.2 0.4 0
v -0.2 0.4 -0.1
v -0.2 0.4 -0.2
v -0.2 0.4 -0.3
v -0.2 0.5 0.2
v -0.2 0.5 0.1
v -0.2 0.5 0
v -0.2 0.5 -0.1
v -0.2 0.5 -0.2
v -0.2 0.5 -0.3
v -0.1 0.3 0.2
v -0.1 0.3 0.1
v -0.1 0.3 -0.2
v -0.1 0.3 -0.3
v -0.1 0.4 0.2
v -0.1 0.4 0.1
v -0.1 0.4 -0.2
v -0.1 0.4 -0.3
v 0 0.4 0.2
v 0 0.4 0.1
v 0 0.4 -0.2
v 0 0.4 -0.3
v 0 0.5 0.2
v 0 0.5 0.1
v 0 0.5 -0.2
v 0 0.5 -0.3
v 0.1 0.3 0.2
v 0.1 0.3 0.1
v 0.1 0.3 -0.2
v 0.1 0.3 -0.3
v 0.1 0.4 0.2
v 0.1 0.4 0.1
v 0.1 0.4 -0.2
v 0.1 0.4 -0.3
v 0.2 0 0.1
v 0.2 0 -0.2
v 0.2 0.1 0.1
v 0.2 0.1 0
v 0.2 0.1 -0.1
v 0.2 0.1 -0.2
v 0.2 0.2 0.1
v 0.2 0.2 0
v 0.2 0.2 -0.1
v 0.2 0.2 -0.2
v 0.2 0.3 0
v 0.2 0.3 -0.1
v 0.2 0.4 0.2
v 0.2 0.4 0.1
v 0.2 0.4 0
v 0.2 0.4 -0.1
v 0.2 0.4 -0.2
v 0.2 0.4 -0.3
v 0.2 0.5 0.2
v 0.2 0.5 0.1
v 0.2 0.5 0
v 0.2 0.5 -0.1
v 0.2 0.5 -0.2
v 0.2 0.5 -0.3
v -0.1 0 0.1
v -0.1 0 -0.2
v -0.1 0.1 0.1
v -0.1 0.1 0
v -0.1 0.1 -0.1
v -0.1 0.1 -0.2
v -0.1 0.2 0.1
v -0.1 0.2 0
v -0.1 0.2 -0.1
v -0.1 0.2 -0.2
v -0.1 0.3 0
v -0.1 0.3 -0.1
v -0.1 0.4 0.2
v -0.1 0.4 0.1
v -0.1 0.4 0
v -0.1 0.4 -0.1
v -0.1 0.4 -0.2
v -0.1 0.4 -0.3
v -0.1 0.5 0.2
v -0.1 0.5 0.1
v -0.1 0.5 0
v -0.1 0.5 -0.1
v -0.1 0.5 -0.2
v -0.1 0.5 -0.3
v 0 0.3 0.2
v 0 0.3 0.1
v 0 0.3 -0.2
v 0 0.3 -0.3
v 0 0.4 0.2
v 0 0.4 0.1
v 0 0.4 -0.2
v 0 0.4 -0.3
v 0.1 0.4 0.2
v 0.1 0.4 0.1
v 0.1 0.4 -0.2
v 0.1 0.4 -0.3
v 0.1 0.5 0.2
v 0.1 0.5 0.1
v 0.1 0.5 -0.2
v 0.1 0.5 -0.3
v 0.2 0.3 0.2
v 0.2 0.3 0.1
v 0.2 0.3 -0.2
v 0.2 0.3 -0.3
v 0.2 0.4 0.2
v 0.2 0.4 0.1
v 0.2 0.4 -0.2
v 0.2 0.4 -0.3
v 0.3 0 0.2
v 0.3 0 -0.3
v 0.3 0.1 0.1
v 0.3 0.1 0
v 0.3 0.1 -0.1
v 0.3 0.1 -0.2
v 0.3 0.2 0.1
v 0.3 0.2 0
v 0.3 0.2 -0.1
v 0.3 0.2 -0.2
v 0.3 0.3 0.2
v 0.3 0.3 0.1
v 0.3 0.3 0
v 0.3 0.3 -0.1
v 0.3 0.3 -0.2
v 0.3 0.3 -0.3
v 0.3 0.4 0.2
v 0.3 0.4 0.1
v 0.3 0.4 0
v 0.3 0.4 -0.1
v 0.3 0.4 -0.2
v 0.3 0.4 -0.3
v 0.3 0.5 0.2
v 0.3 0.5 0.1
v 0.3 0.5 0
v 0.3 0.5 -0.1
v 0.3 0.5 -0.2
v 0.3 0.5 -0.3
v -0.2 0 0.2
v -0.2 0.3 0.2
v -0.2 0.4 0.2
v -0.2 0.5 0.2
v -0.1 0.1 0.2
v -0.1 0.2 0.2
v -0.1 0.3 0.2
v -0.1 0.4 0.2
v -0.1 0.5 0.2
v 0 0.1 0.2
v 0 0.2 0.2
v 0 0.3 0.2
v 0 0.4 0.2
v 0 0.5 0.2
v 0.1 0.1 0.2
v 0.1 0.2 0.2
v 0.1 0.3 0.2
v 0.1 0.4 0.2
v 0.1 0.5 0.2
v 0.2 0.1 0.2
v 0.2 0.2 0.2
v 0.2 0.3 0.2
v 0.2 0.4 0.2
v 0.2 0.5 0.2
v 0.3 0 0.2
v 0.3 0.3 0.2
v 0.3 0.4 0.2
v 0.3 0.5 0.2
v -0.2 0.3 0.1
v -0.2 0.4 0.1
v -0.1 0.3 0.1
v -0.1 0.4 0.1
v 0.2 0.3 0.1
v 0.2 0.4 0.1
v 0.3 0.3 0.1
v 0.3 0.4 0.1
v -0.2 0.4 0
v -0.2 0.5 0
v -0.1 0.4 0
v -0.1 0.5 0
v 0.2 0.4 0
v 0.2 0.5 0
v 0.3 0.4 0
v 0.3 0.5 0
v -0.2 0.3 -0.1
v -0.2 0.4 -0.1
v -0.1 0.3 -0.1
v -0.1 0.4 -0.1
v 0.2 0.3 -0.1
v 0.2 0.4 -0.1
v 0.3 0.3 -0.1
v 0.3 0.4 -0.1
v -0.2 0.4 -0.2
v -0.2 0.5 -0.2
v -0.1 0 -0.2
v -0.1 0.1 -0.2
v -0.1 0.2 -0.2
v -0.1 0.4 -0.2
v -0.1 0.5 -0.2
v 0 0.1 -0.2
v 0 0.2 -0.2
v 0 0.3 -0.2
v 0 0.4 -0.2
v 0 0.5 -0.2
v 0.1 0.1 -0.2
v 0.1 0.2 -0.2
v 0.1 0.3 -0.2
v 0.1 0.4 -0.2
v 0.1 0.5 -0.2
v 0.2 0 -0.2
v 0.2 0.1 -0.2
v 0.2 0.2 -0.2
v 0.2 0.4 -0.2
v 0.2 0.5 -0.2
v 0.3 0.4 -0.2
v 0.3 0.5 -0.2
v -0.2 0.4 0.1
v -0.2 0.5 0.1
v -0.1 0 0.1
v -0.1 0.1 0.1
v -0.1 0.2 0.1
v -0.1 0.4 0.1
v -0.1 0.5 0.1
v 0 0.1 0.1
v 0 0.2 0.1
v 0 0.3 0.1
v 0 0.4 0.1
v 0 0.5 0.1
v 0.1 0.1 0.1
v 0.1 0.2 0.1
v 0.1 0.3 0.1
v 0.1 0.4 0.1
v 0.1 0.5 0.1
v 0.2 0 0.1
v 0.2 0.1 0.1
v 0.2 0.2 0.1
v 0.2 0.4 0.1
v 0.2 0.5 0.1
v 0.3 0.4 0.1
v 0.3 0.5 0.1
v -0.2 0.3 0
v -0.2 0.4 0
v -0.1 0.3 0
v -0.1 0.4 0
v 0.2 0.3 0
v 0.2 0.4 0
v 0.3 0.3 0
v 0.3 0.4 0
v -0.2 0.4 -0.1
v -0.2 0.5 -0.1
v -0.1 0.4 -0.1
v -0.1 0.5 -0.1
v 0.2 0.4 -0.1
v 0.2 0.5 -0.1
v 0.3 0.4 -0.1
v 0.3 0.5 -0.1
v -0.2 0.3 -0.2
v -0.2 0.4 -0.2
v -0.1 0.3 -0.2
v -0.1 0.4 -0.2
v 0.2 0.3 -0.2
v 0.2 0.4 -0.2
v 0.3 0.3 -0.2
v 0.3 0.4 -0.2
v -0.2 0 -0.3
v -0.2 0.3 -0.3
v -0.2 0.4 -0.3
v -0.2 0.5 -0.3
v -0.1 0.1 -0.3
v -0.1 0.2 -0.3
v -0.1 0.3 -0.3
v -0.1 0.4 -0.3
v -0.1 0.5 -0.3
v 0 0.1 -0.3
v 0 0.2 -0.3
v 0 0.3 -0.3
v 0 0.4 -0.3
v 0 0.5 -0.3
v 0.1 0.1 -0.3
v 0.1 0.2 -0.3
v 0.1 0.3 -0.3
v 0.1 0.4 -0.3
v 0.1 0.5 -0.3
v 0.2 0.1 -0.3
v 0.2 0.2 -0.3
v 0.2 0.3 -0.3
v 0.2 0.4 -0.3
v 0.2 0.5 -0.3
v 0.3 0 -0.3
v 0.3 0.3 -0.3
v 0.3 0.4 -0.3
v 0.3 0.5 -0.3
v -0.2 0 0.2
v 0.3 0 0.2
v -0.1 0 0.1
v 0.2 0 0.1
v -0.1 0 -0.2
v 0.2 0 -0.2
v -0.2 0 -0.3
v 0.3 0 -0.3
v -0.2 0.4 0.2
v -0.1 0.4 0.2
v 0 0.4 0.2
v 0.1 0.4 0.2
v 0.2 0.4 0.2
v 0.3 0.4 0.2
v -0.2 0.4 0.1
v -0.1 0.4 0.1
v 0 0.4 0.1
v 0.1 0.4 0.1
v 0.2 0.4 0.1
v 0.3 0.4 0.1
v -0.2 0.4 0
v -0.1 0.4 0
v 0.2 0.4 0
v 0.3 0.4 0
v -0.2 0.4 -0.1
v -0.1 0.4 -0.1
v 0.2 0.4 -0.1
v 0.3 0.4 -0.1
v -0.2 0.4 -0.2
v -0.1 0.4 -0.2
v 0 0.4 -0.2
v 0.1 0.4 -0.2
v 0.2 0.4 -0.2
v 0.3 0.4 -0.2
v -0.2 0.4 -0.3
v -0.1 0.4 -0.3
v 0 0.4 -0.3
v 0.1 0.4 -0.3
v 0.2 0.4 -0.3
v 0.3 0.4 -0.3
v -0.2 0.3 0.2
v -0.1 0.3 0.2
v 0 0.3 0.2
v 0.1 0.3 0.2
v 0.2 0.3 0.2
v 0.3 0.3 0.2
v -0.2 0.3 0.1
v -0.1 0.3 0.1
v 0 0.3 0.1
v 0.1 0.3 0.1
v 0.2 0.3 0.1
v 0.3 0.3 0.1
v -0.2 0.3 0
v -0.1 0.3 0
v 0.2 0.3 0
v 0.3 0.3 0
v -0.2 0.3 -0.1
v -0.1 0.3 -0.1
v 0.2 0.3 -0.1
v 0.3 0.3 -0.1
v -0.2 0.3 -0.2
v -0.1 0.3 -0.2
v 0 0.3 -0.2
v 0.1 0.3 -0.2
v 0.2 0.3 -0.2
v 0.3 0.3 -0.2
v -0.2 0.3 -0.3
v -0.1 0.3 -0.3
v 0 0.3 -0.3
v 0.1 0.3 -0.3
v 0.2 0.3 -0.3
v 0.3 0.3 -0.3
v -0.1 0.4 0.2
v 0 0.4 0.2
v 0.1 0.4 0.2
v 0.2 0.4 0.2
v -0.2 0.4 0.1
v -0.1 0.4 0.1
v 0 0.4 0.1
v 0.1 0.4 0.1
v 0.2 0.4 0.1
v 0.3 0.4 0.1
v -0.2 0.4 0
v -0.1 0.4 0
v 0.2 0.4 0
v 0.3 0.4 0
v -0.2 0.4 -0.1
v -0.1 0.4 -0.1
v 0.2 0.4 -0.1
v 0.3 0.4 -0.1
v -0.2 0.4 -0.2
v -0.1 0.4 -0.2
v 0 0.4 -0.2
v 0.1 0.4 -0.2
v 0.2 0.4 -0.2
v 0.3 0.4 -0.2
v -0.1 0.4 -0.3
v 0 0.4 -0.3
v 0.1 0.4 -0.3
v 0.2 0.4 -0.3
v -0.2 0.5 0.2
v -0.1 0.5 0.2
v 0 0.5 0.2
v 0.1 0.5 0.2
v 0.2 0.5 0.2
v 0.3 0.5 0.2
v -0.2 0.5 0.1
v -0.1 0.5 0.1
v 0 0.5 0.1
v 0.1 0.5 0.1
v 0.2 0.5 0.1
v 0.3 0.5 0.1
v -0.2 0.5 0
v -0.1 0.5 0
v 0.2 0.5 0
v 0.3 0.5 0
v -0.2 0.5 -0.1
v -0.1 0.5 -0.1
v 0.2 0.5 -0.1
v 0.3 0.5 -0.1
v -0.2 0.5 -0.2
v -0.1 0.5 -0.2
v 0 0.5 -0.2
v 0.1 0.5 -0.2
v 0.2 0.5 -0.2
v 0.3 0.5 -0.2
v -0.2 0.5 -0.3
v -0.1 0.5 -0.3
v 0 0.5 -0.3
v 0.1 0.5 -0.3
v 0.2 0.5 -0.3
v 0.3 0.5 -0.3

# faces
f 3/1/1 2/1/1 1/1/1
f 4/1/1 2/1/1 3/1/1
f 5/1/1 2/1/1 4/1/1
f 6/1/1 2/1/1 5/1/1
f 7/1/1 3/1/1 1/1/1
f 7/3/1 4/3/1 3/3/1
f 8/1/1 5/1/1 4/1/1
f 8/3/1 4/3/1 7/3/1
f 9/3/1 6/3/1 5/3/1
f 9/1/1 5/1/1 8/1/1
f 10/1/1 2/1/1 6/1/1
f 10/3/1 6/3/1 9/3/1
f 11/1/1 9/1/1 8/1/1
f 11/1/1 8/1/1 7/1/1
f 11/1/1 10/1/1 9/1/1
f 11/1/1 7/1/1 1/1/1
f 12/1/1 10/1/1 11/1/1
f 13/1/1 10/1/1 12/1/1
f 14/1/1 10/1/1 13/1/1
f 15/1/1 2/1/1 10/1/1
f 15/1/1 10/1/1 14/1/1
f 16/1/1 2/1/1 15/1/1
f 18/1/1 13/1/1 12/1/1
f 19/1/1 13/1/1 18/1/1
f 20/1/1 15/1/1 14/1/1
f 21/1/1 15/1/1 20/1/1
f 23/2/1 18/2/1 17/2/1
f 24/2/1 18/2/1 23/2/1
f 25/2/1 20/2/1 19/2/1
f 26/2/1 20/2/1 25/2/1
f 27/2/1 22/2/1 21/2/1
f 28/2/1 22/2/1 27/2/1
f 33/1/1 30/1/1 29/1/1
f 34/1/1 30/1/1 33/1/1
f 35/1/1 32/1/1 31/1/1
f 36/1/1 32/1/1 35/1/1
f 41/2/1 38/2/1 37/2/1
f 42/2/1 38/2/1 41/2/1
f 43/2/1 40/2/1 39/2/1
f 44/2/1 40/2/1 43/2/1
f 49/1/1 46/1/1 45/1/1
f 50/1/1 46/1/1 49/1/1
f 51/1/1 48/1/1 47/1/1
f 52/1/1 48/1/1 51/1/1
f 55/1/1 54/1/1 53/1/1
f 56/1/1 54/1/1 55/1/1
f 57/1/1 54/1/1 56/1/1
f 58/1/1 54/1/1 57/1/1
f 59/3/1 56/3/1 55/3/1
f 60/1/1 57/1/1 56/1/1
f 60/3/1 56/3/1 59/3/1
f 61/3/1 58/3/1 57/3/1
f 61/1/1 57/1/1 60/1/1
f 62/3/1 58/3/1 61/3/1
f 63/1/1 60/1/1 59/1/1
f 63/1/1 61/1/1 60/1/1
f 63/1/1 62/1/1 61/1/1
f 64/1/1 62/1/1 63/1/1
f 66/1/1 63/1/1 59/1/1
f 67/1/1 63/1/1 66/1/1
f 68/1/1 62/1/1 64/1/1
f 69/1/1 62/1/1 68/1/1
f 71/2/1 66/2/1 65/2/1
f 72/2/1 66/2/1 71/2/1
f 73/2/1 68/2/1 67/2/1
f 74/2/1 68/2/1 73/2/1
f 75/2/1 70/2/1 69/2/1
f 76/2/1 70/2/1 75/2/1
f 77/1/2 78/1/2 79/1/2
f 79/1/2 78/1/2 80/1/2
f 80/1/2 78/1/2 81/1/2
f 81/1/2 78/1/2 82/1/2
f 79/3/2 80/3/2 83/3/2
f 80/1/2 81/1/2 84/1/2
f 83/3/2 80/3/2 84/3/2
f 81/3/2 82/3/2 85/3/2
f 84/1/2 81/1/2 85/1/2
f 85/3/2 82/3/2 86/3/2
f 83/1/2 84/1/2 87/1/2
f 84/1/2 85/1/2 87/1/2
f 85/1/2 86/1/2 87/1/2
f 87/1/2 86/1/2 88/1/2
f 83/1/2 87/1/2 90/1/2
f 90/1/2 87/1/2 91/1/2
f 88/1/2 86/1/2 92/1/2
f 92/1/2 86/1/2 93/1/2
f 89/2/2 90/2/2 95/2/2
f 95/2/2 90/2/2 96/2/2
f 91/2/2 92/2/2 97/2/2
f 97/2/2 92/2/2 98/2/2
f 93/2/2 94/2/2 99/2/2
f 99/2/2 94/2/2 100/2/2
f 101/1/2 102/1/2 105/1/2
f 105/1/2 102/1/2 106/1/2
f 103/1/2 104/1/2 107/1/2
f 107/1/2 104/1/2 108/1/2
f 109/2/2 110/2/2 113/2/2
f 113/2/2 110/2/2 114/2/2
f 111/2/2 112/2/2 115/2/2
f 115/2/2 112/2/2 116/2/2
f 117/1/2 118/1/2 121/1/2
f 121/1/2 118/1/2 122/1/2
f 119/1/2 120/1/2 123/1/2
f 123/1/2 120/1/2 124/1/2
f 125/1/2 126/1/2 127/1/2
f 127/1/2 126/1/2 128/1/2
f 128/1/2 126/1/2 129/1/2
f 129/1/2 126/1/2 130/1/2
f 125/1/2 127/1/2 131/1/2
f 127/3/2 128/3/2 131/3/2
f 128/1/2 129/1/2 132/1/2
f 131/3/2 128/3/2 132/3/2
f 129/3/2 130/3/2 133/3/2
f 132/1/2 129/1/2 133/1/2
f 130/1/2 126/1/2 134/1/2
f 133/3/2 130/3/2 134/3/2
f 132/1/2 133/1/2 135/1/2
f 131/1/2 132/1/2 135/1/2
f 133/1/2 134/1/2 135/1/2
f 125/1/2 131/1/2 135/1/2
f 135/1/2 134/1/2 136/1/2
f 136/1/2 134/1/2 137/1/2
f 137/1/2 134/1/2 138/1/2
f 134/1/2 126/1/2 139/1/2
f 138/1/2 134/1/2 139/1/2
f 139/1/2 126/1/2 140/1/2
f 136/1/2 137/1/2 142/1/2
f 142/1/2 137/1/2 143/1/2
f 138/1/2 139/1/2 144/1/2
f 144/1/2 139/1/2 145/1/2
f 141/2/2 142/2/2 147/2/2
f 147/2/2 142/2/2 148/2/2
f 143/2/2 144/2/2 149/2/2
f 149/2/2 144/2/2 150/2/2
f 145/2/2 146/2/2 151/2/2
f 151/2/2 146/2/2 152/2/2
f 157/1/3 154/1/3 153/1/3
f 158/1/3 154/1/3 157/1/3
f 159/1/3 154/1/3 158/1/3
f 160/2/3 156/2/3 155/2/3
f 161/2/3 156/2/3 160/2/3
f 162/1/3 157/1/3 153/1/3
f 162/3/3 158/3/3 157/3/3
f 163/1/3 159/1/3 158/1/3
f 163/3/3 158/3/3 162/3/3
f 163/1/3 160/1/3 159/1/3
f 164/1/3 160/1/3 163/1/3
f 165/1/3 160/1/3 164/1/3
f 167/1/3 162/1/3 153/1/3
f 167/1/3 163/1/3 162/1/3
f 167/1/3 164/1/3 163/1/3
f 168/1/3 164/1/3 167/1/3
f 169/1/3 164/1/3 168/1/3
f 170/2/3 166/2/3 165/2/3
f 171/2/3 166/2/3 170/2/3
f 172/1/3 167/1/3 153/1/3
f 172/3/3 168/3/3 167/3/3
f 173/1/3 169/1/3 168/1/3
f 173/3/3 168/3/3 172/3/3
f 173/1/3 170/1/3 169/1/3
f 174/1/3 170/1/3 173/1/3
f 175/1/3 170/1/3 174/1/3
f 177/1/3 172/1/3 153/1/3
f 177/1/3 173/1/3 172/1/3
f 177/1/3 174/1/3 173/1/3
f 178/1/3 174/1/3 177/1/3
f 179/2/3 176/2/3 175/2/3
f 180/2/3 176/2/3 179/2/3
f 183/1/3 182/1/3 181/1/3
f 184/1/3 182/1/3 183/1/3
f 187/1/3 186/1/3 185/1/3
f 188/1/3 186/1/3 187/1/3
f 191/2/3 190/2/3 189/2/3
f 192/2/3 190/2/3 191/2/3
f 195/2/3 194/2/3 193/2/3
f 196/2/3 194/2/3 195/2/3
f 199/1/3 198/1/3 197/1/3
f 200/1/3 198/1/3 199/1/3
f 203/1/3 202/1/3 201/1/3
f 204/1/3 202/1/3 203/1/3
f 210/2/3 206/2/3 205/2/3
f 211/2/3 206/2/3 210/2/3
f 212/3/3 209/3/3 208/3/3
f 212/1/3 208/1/3 207/1/3
f 213/1/3 210/1/3 209/1/3
f 213/3/3 209/3/3 212/3/3
f 214/1/3 210/1/3 213/1/3
f 215/1/3 210/1/3 214/1/3
f 217/1/3 212/1/3 207/1/3
f 217/1/3 213/1/3 212/1/3
f 217/1/3 214/1/3 213/1/3
f 218/1/3 214/1/3 217/1/3
f 219/1/3 214/1/3 218/1/3
f 220/2/3 216/2/3 215/2/3
f 221/2/3 216/2/3 220/2/3
f 222/1/3 217/1/3 207/1/3
f 223/3/3 218/3/3 217/3/3
f 223/1/3 217/1/3 222/1/3
f 224/1/3 219/1/3 218/1/3
f 224/3/3 218/3/3 223/3/3
f 224/1/3 220/1/3 219/1/3
f 225/1/3 220/1/3 224/1/3
f 227/2/3 226/2/3 225/2/3
f 228/2/3 226/2/3 227/2/3
f 229/2/4 230/2/4 234/2/4
f 234/2/4 230/2/4 235/2/4
f 232/3/4 233/3/4 236/3/4
f 231/1/4 232/1/4 236/1/4
f 233/1/4 234/1/4 237/1/4
f 236/3/4 233/3/4 237/3/4
f 237/1/4 234/1/4 238/1/4
f 238/1/4 234/1/4 239/1/4
f 231/1/4 236/1/4 241/1/4
f 236/1/4 237/1/4 241/1/4
f 237/1/4 238/1/4 241/1/4
f 241/1/4 238/1/4 242/1/4
f 242/1/4 238/1/4 243/1/4
f 239/2/4 240/2/4 244/2/4
f 244/2/4 240/2/4 245/2/4
f 231/1/4 241/1/4 246/1/4
f 241/3/4 242/3/4 247/3/4
f 246/1/4 241/1/4 247/1/4
f 242/1/4 243/1/4 248/1/4
f 247/3/4 242/3/4 248/3/4
f 243/1/4 244/1/4 248/1/4
f 248/1/4 244/1/4 249/1/4
f 249/2/4 250/2/4 251/2/4
f 251/2/4 250/2/4 252/2/4
f 253/1/4 254/1/4 255/1/4
f 255/1/4 254/1/4 256/1/4
f 257/1/4 258/1/4 259/1/4
f 259/1/4 258/1/4 260/1/4
f 261/2/4 262/2/4 263/2/4
f 263/2/4 262/2/4 264/2/4
f 265/2/4 266/2/4 267/2/4
f 267/2/4 266/2/4 268/2/4
f 269/1/4 270/1/4 271/1/4
f 271/1/4 270/1/4 272/1/4
f 273/1/4 274/1/4 275/1/4
f 275/1/4 274/1/4 276/1/4
f 277/1/4 278/1/4 281/1/4
f 281/1/4 278/1/4 282/1/4
f 282/1/4 278/1/4 283/1/4
f 279/2/4 280/2/4 284/2/4
f 284/2/4 280/2/4 285/2/4
f 277/1/4 281/1/4 286/1/4
f 281/3/4 282/3/4 286/3/4
f 282/1/4 283/1/4 287/1/4
f 286/3/4 282/3/4 287/3/4
f 283/1/4 284/1/4 287/1/4
f 287/1/4 284/1/4 288/1/4
f 288/1/4 284/1/4 289/1/4
f 277/1/4 286/1/4 291/1/4
f 286/1/4 287/1/4 291/1/4
f 287/1/4 288/1/4 291/1/4
f 291/1/4 288/1/4 292/1/4
f 292/1/4 288/1/4 293/1/4
f 289/2/4 290/2/4 294/2/4
f 294/2/4 290/2/4 295/2/4
f 277/1/4 291/1/4 296/1/4
f 291/3/4 292/3/4 296/3/4
f 292/1/4 293/1/4 297/1/4
f 296/3/4 292/3/4 297/3/4
f 293/1/4 294/1/4 297/1/4
f 297/1/4 294/1/4 298/1/4
f 298/1/4 294/1/4 299/1/4
f 277/1/4 296/1/4 301/1/4
f 296/1/4 297/1/4 301/1/4
f 297/1/4 298/1/4 301/1/4
f 301/1/4 298/1/4 302/1/4
f 299/2/4 300/2/4 303/2/4
f 303/2/4 300/2/4 304/2/4
f 307/1/5 306/1/5 305/1/5
f 308/1/5 306/1/5 307/1/5
f 309/1/5 307/1/5 305/1/5
f 310/1/5 306/1/5 308/1/5
f 311/1/5 309/1/5 305/1/5
f 311/1/5 310/1/5 309/1/5
f 312/1/5 306/1/5 310/1/5
f 312/1/5 310/1/5 311/1/5
f 319/2/5 314/2/5 313/2/5
f 320/2/5 314/2/5 319/2/5
f 321/2/5 316/2/5 315/2/5
f 322/2/5 316/2/5 321/2/5
f 323/2/5 318/2/5 317/2/5
f 324/2/5 318/2/5 323/2/5
f 329/2/5 326/2/5 325/2/5
f 330/2/5 326/2/5 329/2/5
f 331/2/5 328/2/5 327/2/5
f 332/2/5 328/2/5 331/2/5
f 339/2/5 334/2/5 333/2/5
f 340/2/5 334/2/5 339/2/5
f 341/2/5 336/2/5 335/2/5
f 342/2/5 336/2/5 341/2/5
f 343/2/5 338/2/5 337/2/5
f 344/2/5 338/2/5 343/2/5
f 345/1/6 346/1/6 351/1/6
f 351/1/6 346/1/6 352/1/6
f 347/1/6 348/1/6 353/1/6
f 353/1/6 348/1/6 354/1/6
f 349/1/6 350/1/6 355/1/6
f 355/1/6 350/1/6 356/1/6
f 357/1/6 358/1/6 361/1/6
f 361/1/6 358/1/6 362/1/6
f 359/1/6 360/1/6 363/1/6
f 363/1/6 360/1/6 364/1/6
f 365/1/6 366/1/6 371/1/6
f 371/1/6 366/1/6 372/1/6
f 367/1/6 368/1/6 373/1/6
f 373/1/6 368/1/6 374/1/6
f 369/1/6 370/1/6 375/1/6
f 375/1/6 370/1/6 376/1/6
f 377/1/6 378/1/6 382/1/6
f 382/1/6 378/1/6 383/1/6
f 379/1/6 380/1/6 384/1/6
f 384/1/6 380/1/6 385/1/6
f 381/1/6 382/1/6 387/1/6
f 387/1/6 382/1/6 388/1/6
f 385/1/6 386/1/6 389/1/6
f 389/1/6 386/1/6 390/1/6
f 391/1/6 392/1/6 395/1/6
f 395/1/6 392/1/6 396/1/6
f 393/1/6 394/1/6 399/1/6
f 399/1/6 394/1/6 400/1/6
f 396/1/6 397/1/6 401/1/6
f 401/1/6 397/1/6 402/1/6
f 398/1/6 399/1/6 403/1/6
f 403/1/6 399/1/6 404/1/6
f 405/2/6 406/2/6 411/2/6
f 411/2/6 406/2/6 412/2/6
f 407/2/6 408/2/6 413/2/6
f 413/2/6 408/2/6 414/2/6
f 409/2/6 410/2/6 415/2/6
f 415/2/6 410/2/6 416/2/6
f 417/2/6 418/2/6 421/2/6
f 421/2/6 418/2/6 422/2/6
f 419/2/6 420/2/6 423/2/6
f 423/2/6 420/2/6 424/2/6
f 425/2/6 426/2/6 431/2/6
f 431/2/6 426/2/6 432/2/6
f 427/2/6 428/2/6 433/2/6
f 433/2/6 428/2/6 434/2/6
f 429/2/6 430/2/6 435/2/6
f 435/2/6 430/2/6 436/2/6
