# MagicaVoxel @ Ephtracy

# group
o 

# material
mtllib TNT.mtl
usemtl palette

# normals
vn -1 0 0
vn 1 0 0
vn 0 0 1
vn 0 0 -1
vn 0 -1 0
vn 0 1 0

# texcoords
vt 0.599609 0.5
vt 0.615234 0.5
vt 0.705078 0.5

# verts
v -0.3 0 0.1
v -0.3 0 -0.2
v -0.3 0.7 0.1
v -0.3 0.7 -0.2
v -0.2 0 0.2
v -0.2 0 0.1
v -0.2 0 -0.2
v -0.2 0 -0.3
v -0.2 0.7 0.2
v -0.2 0.7 0.1
v -0.2 0.7 -0.2
v -0.2 0.7 -0.3
v -0.1 0 0.3
v -0.1 0 0.2
v -0.1 0 -0.3
v -0.1 0 -0.4
v -0.1 0.7 0.3
v -0.1 0.7 0.2
v -0.1 0.7 -0.3
v -0.1 0.7 -0.4
v 0 0.7 0
v 0 0.7 -0.1
v 0 1 0
v 0 1 -0.1
v 0.1 1 0
v 0.1 1 -0.1
v 0.1 1.1 0
v 0.1 1.1 -0.1
v 0.1 0.7 0
v 0.1 0.7 -0.1
v 0.1 1 0
v 0.1 1 -0.1
v 0.2 0 0.3
v 0.2 0 0.2
v 0.2 0 -0.3
v 0.2 0 -0.4
v 0.2 0.7 0.3
v 0.2 0.7 0.2
v 0.2 0.7 -0.3
v 0.2 0.7 -0.4
v 0.2 1 0
v 0.2 1 -0.1
v 0.2 1.1 0
v 0.2 1.1 -0.1
v 0.3 0 0.2
v 0.3 0 0.1
v 0.3 0 -0.2
v 0.3 0 -0.3
v 0.3 0.7 0.2
v 0.3 0.7 0.1
v 0.3 0.7 -0.2
v 0.3 0.7 -0.3
v 0.4 0 0.1
v 0.4 0 -0.2
v 0.4 0.7 0.1
v 0.4 0.7 -0.2
v -0.1 0 0.3
v -0.1 0.7 0.3
v 0.2 0 0.3
v 0.2 0.7 0.3
v -0.2 0 0.2
v -0.2 0.7 0.2
v -0.1 0 0.2
v -0.1 0.7 0.2
v 0.2 0 0.2
v 0.2 0.7 0.2
v 0.3 0 0.2
v 0.3 0.7 0.2
v -0.3 0 0.1
v -0.3 0.7 0.1
v -0.2 0 0.1
v -0.2 0.7 0.1
v 0.3 0 0.1
v 0.3 0.7 0.1
v 0.4 0 0.1
v 0.4 0.7 0.1
v 0 0.7 0
v 0 1 0
v 0.1 0.7 0
v 0.1 1 0
v 0.1 1.1 0
v 0.2 1 0
v 0.2 1.1 0
v 0 0.7 -0.1
v 0 1 -0.1
v 0.1 0.7 -0.1
v 0.1 1 -0.1
v 0.1 1.1 -0.1
v 0.2 1 -0.1
v 0.2 1.1 -0.1
v -0.3 0 -0.2
v -0.3 0.7 -0.2
v -0.2 0 -0.2
v -0.2 0.7 -0.2
v 0.3 0 -0.2
v 0.3 0.7 -0.2
v 0.4 0 -0.2
v 0.4 0.7 -0.2
v -0.2 0 -0.3
v -0.2 0.7 -0.3
v -0.1 0 -0.3
v -0.1 0.7 -0.3
v 0.2 0 -0.3
v 0.2 0.7 -0.3
v 0.3 0 -0.3
v 0.3 0.7 -0.3
v -0.1 0 -0.4
v -0.1 0.7 -0.4
v 0.2 0 -0.4
v 0.2 0.7 -0.4
v -0.1 0 0.3
v 0.2 0 0.3
v -0.2 0 0.2
v -0.1 0 0.2
v 0.2 0 0.2
v 0.3 0 0.2
v -0.3 0 0.1
v -0.2 0 0.1
v 0.3 0 0.1
v 0.4 0 0.1
v -0.3 0 -0.2
v -0.2 0 -0.2
v 0.3 0 -0.2
v 0.4 0 -0.2
v -0.2 0 -0.3
v -0.1 0 -0.3
v 0.2 0 -0.3
v 0.3 0 -0.3
v -0.1 0 -0.4
v 0.2 0 -0.4
v 0.1 1 0
v 0.2 1 0
v 0.1 1 -0.1
v 0.2 1 -0.1
v -0.1 0.7 0.3
v 0.2 0.7 0.3
v -0.2 0.7 0.2
v -0.1 0.7 0.2
v 0.2 0.7 0.2
v 0.3 0.7 0.2
v -0.3 0.7 0.1
v -0.2 0.7 0.1
v -0.1 0.7 0.1
v 0.2 0.7 0.1
v 0.3 0.7 0.1
v 0.4 0.7 0.1
v 0 0.7 0
v 0.1 0.7 0
v 0 0.7 -0.1
v 0.1 0.7 -0.1
v -0.3 0.7 -0.2
v -0.2 0.7 -0.2
v -0.1 0.7 -0.2
v 0.2 0.7 -0.2
v 0.3 0.7 -0.2
v 0.4 0.7 -0.2
v -0.2 0.7 -0.3
v -0.1 0.7 -0.3
v 0.2 0.7 -0.3
v 0.3 0.7 -0.3
v -0.1 0.7 -0.4
v 0.2 0.7 -0.4
v 0 1 0
v 0.1 1 0
v 0 1 -0.1
v 0.1 1 -0.1
v 0.1 1.1 0
v 0.2 1.1 0
v 0.1 1.1 -0.1
v 0.2 1.1 -0.1

# faces
f 3/1/1 2/1/1 1/1/1
f 4/1/1 2/1/1 3/1/1
f 9/1/1 6/1/1 5/1/1
f 10/1/1 6/1/1 9/1/1
f 11/1/1 8/1/1 7/1/1
f 12/1/1 8/1/1 11/1/1
f 17/1/1 14/1/1 13/1/1
f 18/1/1 14/1/1 17/1/1
f 19/1/1 16/1/1 15/1/1
f 20/1/1 16/1/1 19/1/1
f 23/2/1 22/2/1 21/2/1
f 24/2/1 22/2/1 23/2/1
f 27/2/1 26/2/1 25/2/1
f 28/2/1 26/2/1 27/2/1
f 29/2/2 30/2/2 31/2/2
f 31/2/2 30/2/2 32/2/2
f 33/1/2 34/1/2 37/1/2
f 37/1/2 34/1/2 38/1/2
f 35/1/2 36/1/2 39/1/2
f 39/1/2 36/1/2 40/1/2
f 41/2/2 42/2/2 43/2/2
f 43/2/2 42/2/2 44/2/2
f 45/1/2 46/1/2 49/1/2
f 49/1/2 46/1/2 50/1/2
f 47/1/2 48/1/2 51/1/2
f 51/1/2 48/1/2 52/1/2
f 53/1/2 54/1/2 55/1/2
f 55/1/2 54/1/2 56/1/2
f 59/1/3 58/1/3 57/1/3
f 60/1/3 58/1/3 59/1/3
f 63/1/3 62/1/3 61/1/3
f 64/1/3 62/1/3 63/1/3
f 67/1/3 66/1/3 65/1/3
f 68/1/3 66/1/3 67/1/3
f 71/1/3 70/1/3 69/1/3
f 72/1/3 70/1/3 71/1/3
f 75/1/3 74/1/3 73/1/3
f 76/1/3 74/1/3 75/1/3
f 79/2/3 78/2/3 77/2/3
f 80/2/3 78/2/3 79/2/3
f 82/2/3 81/2/3 80/2/3
f 83/2/3 81/2/3 82/2/3
f 84/2/4 85/2/4 86/2/4
f 86/2/4 85/2/4 87/2/4
f 87/2/4 88/2/4 89/2/4
f 89/2/4 88/2/4 90/2/4
f 91/1/4 92/1/4 93/1/4
f 93/1/4 92/1/4 94/1/4
f 95/1/4 96/1/4 97/1/4
f 97/1/4 96/1/4 98/1/4
f 99/1/4 100/1/4 101/1/4
f 101/1/4 100/1/4 102/1/4
f 103/1/4 104/1/4 105/1/4
f 105/1/4 104/1/4 106/1/4
f 107/1/4 108/1/4 109/1/4
f 109/1/4 108/1/4 110/1/4
f 114/1/5 112/1/5 111/1/5
f 115/1/5 112/1/5 114/1/5
f 118/1/5 114/1/5 113/1/5
f 118/1/5 116/1/5 115/1/5
f 118/1/5 115/1/5 114/1/5
f 119/1/5 116/1/5 118/1/5
f 121/1/5 118/1/5 117/1/5
f 121/1/5 120/1/5 119/1/5
f 121/1/5 119/1/5 118/1/5
f 122/1/5 120/1/5 121/1/5
f 123/1/5 120/1/5 122/1/5
f 124/1/5 120/1/5 123/1/5
f 125/1/5 123/1/5 122/1/5
f 126/1/5 123/1/5 125/1/5
f 127/1/5 123/1/5 126/1/5
f 128/1/5 123/1/5 127/1/5
f 129/1/5 127/1/5 126/1/5
f 130/1/5 127/1/5 129/1/5
f 133/2/5 132/2/5 131/2/5
f 134/2/5 132/2/5 133/2/5
f 135/1/6 136/1/6 138/1/6
f 138/1/6 136/1/6 139/1/6
f 137/1/6 138/1/6 142/1/6
f 139/1/6 140/1/6 142/1/6
f 138/1/6 139/1/6 142/1/6
f 142/1/6 140/1/6 143/1/6
f 143/1/6 140/1/6 144/1/6
f 144/1/6 140/1/6 145/1/6
f 143/3/6 144/3/6 147/3/6
f 147/3/6 144/3/6 148/3/6
f 143/3/6 147/3/6 149/3/6
f 148/3/6 144/3/6 150/3/6
f 141/1/6 142/1/6 151/1/6
f 142/1/6 143/1/6 151/1/6
f 151/1/6 143/1/6 152/1/6
f 149/3/6 150/3/6 153/3/6
f 152/1/6 143/1/6 153/1/6
f 143/3/6 149/3/6 153/3/6
f 150/3/6 144/3/6 154/3/6
f 153/3/6 150/3/6 154/3/6
f 145/1/6 146/1/6 154/1/6
f 144/1/6 145/1/6 154/1/6
f 154/1/6 146/1/6 155/1/6
f 155/1/6 146/1/6 156/1/6
f 152/1/6 153/1/6 157/1/6
f 154/1/6 155/1/6 157/1/6
f 153/1/6 154/1/6 157/1/6
f 157/1/6 155/1/6 158/1/6
f 158/1/6 155/1/6 159/1/6
f 159/1/6 155/1/6 160/1/6
f 158/1/6 159/1/6 161/1/6
f 161/1/6 159/1/6 162/1/6
f 163/2/6 164/2/6 165/2/6
f 165/2/6 164/2/6 166/2/6
f 167/2/6 168/2/6 169/2/6
f 169/2/6 168/2/6 170/2/6
