# MagicaVoxel @ Ephtracy

# group
o 

# material
mtllib TreasureBox_open.mtl
usemtl palette

# normals
vn -1 0 0
vn 1 0 0
vn 0 0 1
vn 0 0 -1
vn 0 -1 0
vn 0 1 0

# texcoords
vt 0.892578 0.5
vt 0.896484 0.5

# verts
v -1.2 0 1
v -1.2 0 0.7
v -1.2 0 -0.1
v -1.2 0 -0.4
v -1.2 0.1 1
v -1.2 0.1 0.7
v -1.2 0.1 -0.1
v -1.2 0.1 -0.4
v -1.1 0 0.7
v -1.1 0 -0.1
v -1.1 0.1 0.9
v -1.1 0.1 0.8
v -1.1 0.1 0.7
v -1.1 0.1 -0.1
v -1.1 0.1 -0.2
v -1.1 0.1 -0.3
v -1.1 0.9 0.8
v -1.1 0.9 -0.2
v -1.1 0.9 -0.3
v -1.1 0.9 -0.7
v -1.1 1 0.9
v -1.1 1 -0.6
v -1.1 1 -0.7
v -1.1 1 -0.8
v -1.1 1.1 -0.6
v -1.1 1.1 -0.7
v -1.1 1.1 -0.8
v -1.1 1.1 -0.9
v -1.1 1.2 -0.7
v -1.1 1.2 -0.8
v -1.1 1.2 -0.9
v -1.1 1.2 -1
v -1.1 1.3 -0.8
v -1.1 1.3 -0.9
v -1.1 1.7 -0.8
v -1.1 1.7 -0.9
v -1.1 1.8 -0.7
v -1.1 1.8 -0.8
v -1.1 1.8 -0.9
v -1.1 1.8 -1
v -1.1 1.9 -0.6
v -1.1 1.9 -0.7
v -1.1 1.9 -0.8
v -1.1 1.9 -0.9
v -1.1 2 -0.3
v -1.1 2 -0.6
v -1.1 2 -0.7
v -1.1 2 -0.8
v -1.1 2.1 -0.3
v -1.1 2.1 -0.7
v -1 0.1 0.8
v -1 0.1 -0.2
v -1 0.9 0.8
v -1 0.9 -0.2
v -1 1 -0.3
v -1 1 -0.6
v -1 1.1 -0.6
v -1 1.1 -0.7
v -1 1.2 -0.7
v -1 1.2 -0.8
v -1 1.3 -0.8
v -1 1.3 -0.9
v -1 1.7 -0.8
v -1 1.7 -0.9
v -1 1.8 -0.7
v -1 1.8 -0.8
v -1 1.9 -0.6
v -1 1.9 -0.7
v -1 2 -0.3
v -1 2 -0.6
v -0.4 0.1 0.9
v -0.4 0.1 0.8
v -0.4 0.1 -0.2
v -0.4 0.1 -0.3
v -0.4 0.9 0.9
v -0.4 0.9 0.8
v -0.4 0.9 -0.2
v -0.4 0.9 -0.3
v -0.4 0.9 -0.8
v -0.4 1 -0.3
v -0.4 1 -0.7
v -0.4 1 -0.8
v -0.4 1 -0.9
v -0.4 1.1 -0.7
v -0.4 1.1 -0.8
v -0.4 1.1 -0.9
v -0.4 1.1 -1
v -0.4 1.2 -0.8
v -0.4 1.2 -0.9
v -0.4 1.8 -0.8
v -0.4 1.8 -0.9
v -0.4 1.9 -0.7
v -0.4 1.9 -0.8
v -0.4 1.9 -0.9
v -0.4 1.9 -1
v -0.4 2 -0.3
v -0.4 2 -0.7
v -0.4 2 -0.8
v -0.4 2 -0.9
v -0.4 2.1 -0.3
v -0.4 2.1 -0.8
v -0.2 0.7 0.9
v -0.2 0.7 0.8
v -0.2 0.8 0.9
v -0.2 0.8 0.8
v -0.0999999 0.5 0.9
v -0.0999999 0.5 0.8
v -0.0999999 0.7 0.9
v -0.0999999 0.7 0.8
v 0.3 0.1 0.9
v 0.3 0.1 0.8
v 0.3 0.1 -0.2
v 0.3 0.1 -0.3
v 0.3 0.9 0.9
v 0.3 0.9 0.8
v 0.3 0.9 -0.2
v 0.3 0.9 -0.3
v 0.3 0.9 -0.8
v 0.3 1 -0.3
v 0.3 1 -0.7
v 0.3 1 -0.8
v 0.3 1 -0.9
v 0.3 1.1 -0.7
v 0.3 1.1 -0.8
v 0.3 1.1 -0.9
v 0.3 1.1 -1
v 0.3 1.2 -0.8
v 0.3 1.2 -0.9
v 0.3 1.8 -0.8
v 0.3 1.8 -0.9
v 0.3 1.9 -0.7
v 0.3 1.9 -0.8
v 0.3 1.9 -0.9
v 0.3 1.9 -1
v 0.3 2 -0.3
v 0.3 2 -0.7
v 0.3 2 -0.8
v 0.3 2 -0.9
v 0.3 2.1 -0.3
v 0.3 2.1 -0.8
v 0.9 0 1
v 0.9 0 0.9
v 0.9 0 -0.3
v 0.9 0 -0.4
v 0.9 0.1 1
v 0.9 0.1 0.9
v 0.9 0.1 0.8
v 0.9 0.1 0.7
v 0.9 0.1 -0.1
v 0.9 0.1 -0.2
v 0.9 0.1 -0.3
v 0.9 0.1 -0.4
v 0.9 0.9 0.9
v 0.9 0.9 0.8
v 0.9 0.9 -0.2
v 0.9 0.9 -0.3
v 0.9 0.9 -0.7
v 0.9 1 0.7
v 0.9 1 -0.1
v 0.9 1 -0.3
v 0.9 1 -0.7
v 0.9 1 -0.8
v 0.9 1.1 -0.3
v 0.9 1.1 -0.6
v 0.9 1.1 -0.7
v 0.9 1.1 -0.8
v 0.9 1.1 -0.9
v 0.9 1.2 -0.6
v 0.9 1.2 -0.7
v 0.9 1.2 -0.8
v 0.9 1.2 -0.9
v 0.9 1.2 -1
v 0.9 1.3 -0.7
v 0.9 1.3 -0.8
v 0.9 1.7 -0.7
v 0.9 1.7 -0.8
v 0.9 1.8 -0.6
v 0.9 1.8 -0.7
v 0.9 1.8 -0.8
v 0.9 1.8 -0.9
v 0.9 1.8 -1
v 0.9 1.9 -0.3
v 0.9 1.9 -0.6
v 0.9 1.9 -0.7
v 0.9 1.9 -0.8
v 0.9 1.9 -0.9
v 0.9 2 -0.3
v 0.9 2 -0.7
v 0.9 2 -0.8
v 0.9 2.1 -0.3
v 0.9 2.1 -0.7
v -0.9 0 1
v -0.9 0 0.9
v -0.9 0 -0.3
v -0.9 0 -0.4
v -0.9 0.1 1
v -0.9 0.1 0.9
v -0.9 0.1 0.8
v -0.9 0.1 0.7
v -0.9 0.1 -0.1
v -0.9 0.1 -0.2
v -0.9 0.1 -0.3
v -0.9 0.1 -0.4
v -0.9 0.9 0.9
v -0.9 0.9 0.8
v -0.9 0.9 -0.2
v -0.9 0.9 -0.3
v -0.9 0.9 -0.7
v -0.9 1 0.7
v -0.9 1 -0.1
v -0.9 1 -0.3
v -0.9 1 -0.7
v -0.9 1 -0.8
v -0.9 1.1 -0.3
v -0.9 1.1 -0.6
v -0.9 1.1 -0.7
v -0.9 1.1 -0.8
v -0.9 1.1 -0.9
v -0.9 1.2 -0.6
v -0.9 1.2 -0.7
v -0.9 1.2 -0.8
v -0.9 1.2 -0.9
v -0.9 1.2 -1
v -0.9 1.3 -0.7
v -0.9 1.3 -0.8
v -0.9 1.7 -0.7
v -0.9 1.7 -0.8
v -0.9 1.8 -0.6
v -0.9 1.8 -0.7
v -0.9 1.8 -0.8
v -0.9 1.8 -0.9
v -0.9 1.8 -1
v -0.9 1.9 -0.3
v -0.9 1.9 -0.6
v -0.9 1.9 -0.7
v -0.9 1.9 -0.8
v -0.9 1.9 -0.9
v -0.9 2 -0.3
v -0.9 2 -0.7
v -0.9 2 -0.8
v -0.9 2.1 -0.3
v -0.9 2.1 -0.7
v -0.3 0.1 0.9
v -0.3 0.1 0.8
v -0.3 0.1 -0.2
v -0.3 0.1 -0.3
v -0.3 0.9 0.9
v -0.3 0.9 0.8
v -0.3 0.9 -0.2
v -0.3 0.9 -0.3
v -0.3 0.9 -0.8
v -0.3 1 -0.3
v -0.3 1 -0.7
v -0.3 1 -0.8
v -0.3 1 -0.9
v -0.3 1.1 -0.7
v -0.3 1.1 -0.8
v -0.3 1.1 -0.9
v -0.3 1.1 -1
v -0.3 1.2 -0.8
v -0.3 1.2 -0.9
v -0.3 1.8 -0.8
v -0.3 1.8 -0.9
v -0.3 1.9 -0.7
v -0.3 1.9 -0.8
v -0.3 1.9 -0.9
v -0.3 1.9 -1
v -0.3 2 -0.3
v -0.3 2 -0.7
v -0.3 2 -0.8
v -0.3 2 -0.9
v -0.3 2.1 -0.3
v -0.3 2.1 -0.8
v 0.1 0.5 0.9
v 0.1 0.5 0.8
v 0.1 0.7 0.9
v 0.1 0.7 0.8
v 0.2 0.7 0.9
v 0.2 0.7 0.8
v 0.2 0.8 0.9
v 0.2 0.8 0.8
v 0.4 0.1 0.9
v 0.4 0.1 0.8
v 0.4 0.1 -0.2
v 0.4 0.1 -0.3
v 0.4 0.9 0.9
v 0.4 0.9 0.8
v 0.4 0.9 -0.2
v 0.4 0.9 -0.3
v 0.4 0.9 -0.8
v 0.4 1 -0.3
v 0.4 1 -0.7
v 0.4 1 -0.8
v 0.4 1 -0.9
v 0.4 1.1 -0.7
v 0.4 1.1 -0.8
v 0.4 1.1 -0.9
v 0.4 1.1 -1
v 0.4 1.2 -0.8
v 0.4 1.2 -0.9
v 0.4 1.8 -0.8
v 0.4 1.8 -0.9
v 0.4 1.9 -0.7
v 0.4 1.9 -0.8
v 0.4 1.9 -0.9
v 0.4 1.9 -1
v 0.4 2 -0.3
v 0.4 2 -0.7
v 0.4 2 -0.8
v 0.4 2 -0.9
v 0.4 2.1 -0.3
v 0.4 2.1 -0.8
v 1 0.1 0.8
v 1 0.1 -0.2
v 1 0.9 0.8
v 1 0.9 -0.2
v 1 1 -0.3
v 1 1 -0.6
v 1 1.1 -0.6
v 1 1.1 -0.7
v 1 1.2 -0.7
v 1 1.2 -0.8
v 1 1.3 -0.8
v 1 1.3 -0.9
v 1 1.7 -0.8
v 1 1.7 -0.9
v 1 1.8 -0.7
v 1 1.8 -0.8
v 1 1.9 -0.6
v 1 1.9 -0.7
v 1 2 -0.3
v 1 2 -0.6
v 1.1 0 0.7
v 1.1 0 -0.1
v 1.1 0.1 0.9
v 1.1 0.1 0.8
v 1.1 0.1 0.7
v 1.1 0.1 -0.1
v 1.1 0.1 -0.2
v 1.1 0.1 -0.3
v 1.1 0.9 0.8
v 1.1 0.9 -0.2
v 1.1 0.9 -0.3
v 1.1 0.9 -0.7
v 1.1 1 0.9
v 1.1 1 -0.6
v 1.1 1 -0.7
v 1.1 1 -0.8
v 1.1 1.1 -0.6
v 1.1 1.1 -0.7
v 1.1 1.1 -0.8
v 1.1 1.1 -0.9
v 1.1 1.2 -0.7
v 1.1 1.2 -0.8
v 1.1 1.2 -0.9
v 1.1 1.2 -1
v 1.1 1.3 -0.8
v 1.1 1.3 -0.9
v 1.1 1.7 -0.8
v 1.1 1.7 -0.9
v 1.1 1.8 -0.7
v 1.1 1.8 -0.8
v 1.1 1.8 -0.9
v 1.1 1.8 -1
v 1.1 1.9 -0.6
v 1.1 1.9 -0.7
v 1.1 1.9 -0.8
v 1.1 1.9 -0.9
v 1.1 2 -0.3
v 1.1 2 -0.6
v 1.1 2 -0.7
v 1.1 2 -0.8
v 1.1 2.1 -0.3
v 1.1 2.1 -0.7
v 1.2 0 1
v 1.2 0 0.7
v 1.2 0 -0.1
v 1.2 0 -0.4
v 1.2 0.1 1
v 1.2 0.1 0.7
v 1.2 0.1 -0.1
v 1.2 0.1 -0.4
v -1.2 0 1
v -1.2 0.1 1
v -0.9 0 1
v -0.9 0.1 1
v 0.9 0 1
v 0.9 0.1 1
v 1.2 0 1
v 1.2 0.1 1
v -1.1 0.1 0.9
v -1.1 1 0.9
v -0.9 0 0.9
v -0.9 0.1 0.9
v -0.9 0.9 0.9
v -0.4 0.1 0.9
v -0.4 0.9 0.9
v -0.3 0.1 0.9
v -0.3 0.9 0.9
v -0.2 0.7 0.9
v -0.2 0.8 0.9
v -0.0999999 0.5 0.9
v -0.0999999 0.7 0.9
v 0.1 0.5 0.9
v 0.1 0.7 0.9
v 0.2 0.7 0.9
v 0.2 0.8 0.9
v 0.3 0.1 0.9
v 0.3 0.9 0.9
v 0.4 0.1 0.9
v 0.4 0.9 0.9
v 0.9 0 0.9
v 0.9 0.1 0.9
v 0.9 0.9 0.9
v 1.1 0.1 0.9
v 1.1 1 0.9
v -0.9 0.1 0.8
v -0.9 0.9 0.8
v -0.4 0.1 0.8
v -0.4 0.9 0.8
v -0.3 0.1 0.8
v -0.3 0.9 0.8
v -0.2 0.7 0.8
v -0.2 0.8 0.8
v -0.0999999 0.5 0.8
v -0.0999999 0.7 0.8
v 0.1 0.5 0.8
v 0.1 0.7 0.8
v 0.2 0.7 0.8
v 0.2 0.8 0.8
v 0.3 0.1 0.8
v 0.3 0.9 0.8
v 0.4 0.1 0.8
v 0.4 0.9 0.8
v 0.9 0.1 0.8
v 0.9 0.9 0.8
v -1.2 0 -0.1
v -1.2 0.1 -0.1
v -1.1 0 -0.1
v -1.1 0.1 -0.1
v -0.9 0.1 -0.1
v -0.9 1 -0.1
v 0.9 0.1 -0.1
v 0.9 1 -0.1
v 1.1 0 -0.1
v 1.1 0.1 -0.1
v 1.2 0 -0.1
v 1.2 0.1 -0.1
v -1.1 0.1 -0.2
v -1.1 0.9 -0.2
v -1 0.1 -0.2
v -1 0.9 -0.2
v 1 0.1 -0.2
v 1 0.9 -0.2
v 1.1 0.1 -0.2
v 1.1 0.9 -0.2
v -1.1 2 -0.3
v -1.1 2.1 -0.3
v -1 1 -0.3
v -1 2 -0.3
v -0.9 1.1 -0.3
v -0.9 1.9 -0.3
v -0.9 2 -0.3
v -0.9 2.1 -0.3
v -0.4 2 -0.3
v -0.4 2.1 -0.3
v -0.3 2 -0.3
v -0.3 2.1 -0.3
v 0.3 2 -0.3
v 0.3 2.1 -0.3
v 0.4 2 -0.3
v 0.4 2.1 -0.3
v 0.9 1.1 -0.3
v 0.9 1.9 -0.3
v 0.9 2 -0.3
v 0.9 2.1 -0.3
v 1 1 -0.3
v 1 2 -0.3
v 1.1 2 -0.3
v 1.1 2.1 -0.3
v -1.1 1 -0.6
v -1.1 1.1 -0.6
v -1.1 1.9 -0.6
v -1.1 2 -0.6
v -1 1 -0.6
v -1 1.1 -0.6
v -1 1.9 -0.6
v -1 2 -0.6
v -0.9 1.1 -0.6
v -0.9 1.2 -0.6
v -0.9 1.8 -0.6
v -0.9 1.9 -0.6
v 0.9 1.1 -0.6
v 0.9 1.2 -0.6
v 0.9 1.8 -0.6
v 0.9 1.9 -0.6
v 1 1 -0.6
v 1 1.1 -0.6
v 1 1.9 -0.6
v 1 2 -0.6
v 1.1 1 -0.6
v 1.1 1.1 -0.6
v 1.1 1.9 -0.6
v 1.1 2 -0.6
v -1.1 1.1 -0.7
v -1.1 1.2 -0.7
v -1.1 1.8 -0.7
v -1.1 1.9 -0.7
v -1 1.1 -0.7
v -1 1.2 -0.7
v -1 1.8 -0.7
v -1 1.9 -0.7
v -0.9 1.2 -0.7
v -0.9 1.3 -0.7
v -0.9 1.7 -0.7
v -0.9 1.8 -0.7
v 0.9 1.2 -0.7
v 0.9 1.3 -0.7
v 0.9 1.7 -0.7
v 0.9 1.8 -0.7
v 1 1.1 -0.7
v 1 1.2 -0.7
v 1 1.8 -0.7
v 1 1.9 -0.7
v 1.1 1.1 -0.7
v 1.1 1.2 -0.7
v 1.1 1.8 -0.7
v 1.1 1.9 -0.7
v -1.1 1.2 -0.8
v -1.1 1.3 -0.8
v -1.1 1.7 -0.8
v -1.1 1.8 -0.8
v -1 1.2 -0.8
v -1 1.3 -0.8
v -1 1.7 -0.8
v -1 1.8 -0.8
v -0.9 1.3 -0.8
v -0.9 1.7 -0.8
v 0.9 1.3 -0.8
v 0.9 1.7 -0.8
v 1 1.2 -0.8
v 1 1.3 -0.8
v 1 1.7 -0.8
v 1 1.8 -0.8
v 1.1 1.2 -0.8
v 1.1 1.3 -0.8
v 1.1 1.7 -0.8
v 1.1 1.8 -0.8
v -1.1 1.3 -0.9
v -1.1 1.7 -0.9
v -1 1.3 -0.9
v -1 1.7 -0.9
v 1 1.3 -0.9
v 1 1.7 -0.9
v 1.1 1.3 -0.9
v 1.1 1.7 -0.9
v -1.1 0.1 0.8
v -1.1 0.9 0.8
v -1 0.1 0.8
v -1 0.9 0.8
v 1 0.1 0.8
v 1 0.9 0.8
v 1.1 0.1 0.8
v 1.1 0.9 0.8
v -1.2 0 0.7
v -1.2 0.1 0.7
v -1.1 0 0.7
v -1.1 0.1 0.7
v -0.9 0.1 0.7
v -0.9 1 0.7
v 0.9 0.1 0.7
v 0.9 1 0.7
v 1.1 0 0.7
v 1.1 0.1 0.7
v 1.2 0 0.7
v 1.2 0.1 0.7
v -0.9 0.1 -0.2
v -0.9 0.9 -0.2
v -0.4 0.1 -0.2
v -0.4 0.9 -0.2
v -0.3 0.1 -0.2
v -0.3 0.9 -0.2
v 0.3 0.1 -0.2
v 0.3 0.9 -0.2
v 0.4 0.1 -0.2
v 0.4 0.9 -0.2
v 0.9 0.1 -0.2
v 0.9 0.9 -0.2
v -1.1 0.1 -0.3
v -1.1 0.9 -0.3
v -0.9 0 -0.3
v -0.9 0.1 -0.3
v -0.9 0.9 -0.3
v -0.9 1 -0.3
v -0.4 0.1 -0.3
v -0.4 0.9 -0.3
v -0.4 1 -0.3
v -0.3 0.1 -0.3
v -0.3 0.9 -0.3
v -0.3 1 -0.3
v 0.3 0.1 -0.3
v 0.3 0.9 -0.3
v 0.3 1 -0.3
v 0.4 0.1 -0.3
v 0.4 0.9 -0.3
v 0.4 1 -0.3
v 0.9 0 -0.3
v 0.9 0.1 -0.3
v 0.9 0.9 -0.3
v 0.9 1 -0.3
v 1.1 0.1 -0.3
v 1.1 0.9 -0.3
v -1.2 0 -0.4
v -1.2 0.1 -0.4
v -0.9 0 -0.4
v -0.9 0.1 -0.4
v 0.9 0 -0.4
v 0.9 0.1 -0.4
v 1.2 0 -0.4
v 1.2 0.1 -0.4
v -1.1 0.9 -0.7
v -1.1 1 -0.7
v -1.1 2 -0.7
v -1.1 2.1 -0.7
v -0.9 0.9 -0.7
v -0.9 1 -0.7
v -0.9 1.1 -0.7
v -0.9 1.9 -0.7
v -0.9 2 -0.7
v -0.9 2.1 -0.7
v -0.4 1 -0.7
v -0.4 1.1 -0.7
v -0.4 1.9 -0.7
v -0.4 2 -0.7
v -0.3 1 -0.7
v -0.3 1.1 -0.7
v -0.3 1.9 -0.7
v -0.3 2 -0.7
v 0.3 1 -0.7
v 0.3 1.1 -0.7
v 0.3 1.9 -0.7
v 0.3 2 -0.7
v 0.4 1 -0.7
v 0.4 1.1 -0.7
v 0.4 1.9 -0.7
v 0.4 2 -0.7
v 0.9 0.9 -0.7
v 0.9 1 -0.7
v 0.9 1.1 -0.7
v 0.9 1.9 -0.7
v 0.9 2 -0.7
v 0.9 2.1 -0.7
v 1.1 0.9 -0.7
v 1.1 1 -0.7
v 1.1 2 -0.7
v 1.1 2.1 -0.7
v -1.1 1 -0.8
v -1.1 1.1 -0.8
v -1.1 1.9 -0.8
v -1.1 2 -0.8
v -0.9 1 -0.8
v -0.9 1.1 -0.8
v -0.9 1.2 -0.8
v -0.9 1.8 -0.8
v -0.9 1.9 -0.8
v -0.9 2 -0.8
v -0.4 0.9 -0.8
v -0.4 1 -0.8
v -0.4 1.1 -0.8
v -0.4 1.2 -0.8
v -0.4 1.8 -0.8
v -0.4 1.9 -0.8
v -0.4 2 -0.8
v -0.4 2.1 -0.8
v -0.3 0.9 -0.8
v -0.3 1 -0.8
v -0.3 1.1 -0.8
v -0.3 1.2 -0.8
v -0.3 1.8 -0.8
v -0.3 1.9 -0.8
v -0.3 2 -0.8
v -0.3 2.1 -0.8
v 0.3 0.9 -0.8
v 0.3 1 -0.8
v 0.3 1.1 -0.8
v 0.3 1.2 -0.8
v 0.3 1.8 -0.8
v 0.3 1.9 -0.8
v 0.3 2 -0.8
v 0.3 2.1 -0.8
v 0.4 0.9 -0.8
v 0.4 1 -0.8
v 0.4 1.1 -0.8
v 0.4 1.2 -0.8
v 0.4 1.8 -0.8
v 0.4 1.9 -0.8
v 0.4 2 -0.8
v 0.4 2.1 -0.8
v 0.9 1 -0.8
v 0.9 1.1 -0.8
v 0.9 1.2 -0.8
v 0.9 1.8 -0.8
v 0.9 1.9 -0.8
v 0.9 2 -0.8
v 1.1 1 -0.8
v 1.1 1.1 -0.8
v 1.1 1.9 -0.8
v 1.1 2 -0.8
v -1.1 1.1 -0.9
v -1.1 1.2 -0.9
v -1.1 1.8 -0.9
v -1.1 1.9 -0.9
v -0.9 1.1 -0.9
v -0.9 1.2 -0.9
v -0.9 1.8 -0.9
v -0.9 1.9 -0.9
v -0.4 1 -0.9
v -0.4 1.1 -0.9
v -0.4 1.2 -0.9
v -0.4 1.8 -0.9
v -0.4 1.9 -0.9
v -0.4 2 -0.9
v -0.3 1 -0.9
v -0.3 1.1 -0.9
v -0.3 1.2 -0.9
v -0.3 1.8 -0.9
v -0.3 1.9 -0.9
v -0.3 2 -0.9
v 0.3 1 -0.9
v 0.3 1.1 -0.9
v 0.3 1.2 -0.9
v 0.3 1.8 -0.9
v 0.3 1.9 -0.9
v 0.3 2 -0.9
v 0.4 1 -0.9
v 0.4 1.1 -0.9
v 0.4 1.2 -0.9
v 0.4 1.8 -0.9
v 0.4 1.9 -0.9
v 0.4 2 -0.9
v 0.9 1.1 -0.9
v 0.9 1.2 -0.9
v 0.9 1.8 -0.9
v 0.9 1.9 -0.9
v 1.1 1.1 -0.9
v 1.1 1.2 -0.9
v 1.1 1.8 -0.9
v 1.1 1.9 -0.9
v -1.1 1.2 -1
v -1.1 1.8 -1
v -0.9 1.2 -1
v -0.9 1.8 -1
v -0.4 1.1 -1
v -0.4 1.9 -1
v -0.3 1.1 -1
v -0.3 1.9 -1
v 0.3 1.1 -1
v 0.3 1.9 -1
v 0.4 1.1 -1
v 0.4 1.9 -1
v 0.9 1.2 -1
v 0.9 1.8 -1
v 1.1 1.2 -1
v 1.1 1.8 -1
v -1.2 0 1
v -0.9 0 1
v 0.9 0 1
v 1.2 0 1
v -0.9 0 0.9
v 0.9 0 0.9
v -1 0 0.8
v 1 0 0.8
v -1.2 0 0.7
v -1.1 0 0.7
v 1.1 0 0.7
v 1.2 0 0.7
v -1.2 0 -0.1
v -1.1 0 -0.1
v 1.1 0 -0.1
v 1.2 0 -0.1
v -1 0 -0.2
v 1 0 -0.2
v -0.9 0 -0.3
v 0.9 0 -0.3
v -1.2 0 -0.4
v -0.9 0 -0.4
v 0.9 0 -0.4
v 1.2 0 -0.4
v -0.0999999 0.5 0.9
v 0.1 0.5 0.9
v -0.0999999 0.5 0.8
v 0.1 0.5 0.8
v -0.2 0.7 0.9
v -0.0999999 0.7 0.9
v 0.1 0.7 0.9
v 0.2 0.7 0.9
v -0.2 0.7 0.8
v -0.0999999 0.7 0.8
v 0.1 0.7 0.8
v 0.2 0.7 0.8
v -0.9 0.9 0.9
v -0.4 0.9 0.9
v -0.3 0.9 0.9
v 0.3 0.9 0.9
v 0.4 0.9 0.9
v 0.9 0.9 0.9
v -1.1 0.9 0.8
v -1 0.9 0.8
v -0.9 0.9 0.8
v -0.4 0.9 0.8
v -0.3 0.9 0.8
v 0.3 0.9 0.8
v 0.4 0.9 0.8
v 0.9 0.9 0.8
v 1 0.9 0.8
v 1.1 0.9 0.8
v -1.1 0.9 -0.2
v -1 0.9 -0.2
v -0.9 0.9 -0.2
v -0.4 0.9 -0.2
v -0.3 0.9 -0.2
v 0.3 0.9 -0.2
v 0.4 0.9 -0.2
v 0.9 0.9 -0.2
v 1 0.9 -0.2
v 1.1 0.9 -0.2
v -1.1 0.9 -0.3
v -0.9 0.9 -0.3
v -0.4 0.9 -0.3
v -0.3 0.9 -0.3
v 0.3 0.9 -0.3
v 0.4 0.9 -0.3
v 0.9 0.9 -0.3
v 1.1 0.9 -0.3
v -1.1 0.9 -0.7
v -0.9 0.9 -0.7
v 0.9 0.9 -0.7
v 1.1 0.9 -0.7
v -0.4 0.9 -0.8
v -0.3 0.9 -0.8
v 0.3 0.9 -0.8
v 0.4 0.9 -0.8
v -0.9 1 -0.3
v -0.4 1 -0.3
v -0.3 1 -0.3
v 0.3 1 -0.3
v 0.4 1 -0.3
v 0.9 1 -0.3
v -1.1 1 -0.7
v -0.9 1 -0.7
v -0.4 1 -0.7
v -0.3 1 -0.7
v 0.3 1 -0.7
v 0.4 1 -0.7
v 0.9 1 -0.7
v 1.1 1 -0.7
v -1.1 1 -0.8
v -0.9 1 -0.8
v -0.4 1 -0.8
v -0.3 1 -0.8
v 0.3 1 -0.8
v 0.4 1 -0.8
v 0.9 1 -0.8
v 1.1 1 -0.8
v -0.4 1 -0.9
v -0.3 1 -0.9
v 0.3 1 -0.9
v 0.4 1 -0.9
v -0.9 1.1 -0.7
v -0.4 1.1 -0.7
v -0.3 1.1 -0.7
v 0.3 1.1 -0.7
v 0.4 1.1 -0.7
v 0.9 1.1 -0.7
v -1.1 1.1 -0.8
v -0.9 1.1 -0.8
v -0.4 1.1 -0.8
v -0.3 1.1 -0.8
v 0.3 1.1 -0.8
v 0.4 1.1 -0.8
v 0.9 1.1 -0.8
v 1.1 1.1 -0.8
v -1.1 1.1 -0.9
v -0.9 1.1 -0.9
v -0.4 1.1 -0.9
v -0.3 1.1 -0.9
v 0.3 1.1 -0.9
v 0.4 1.1 -0.9
v 0.9 1.1 -0.9
v 1.1 1.1 -0.9
v -0.4 1.1 -1
v -0.3 1.1 -1
v 0.3 1.1 -1
v 0.4 1.1 -1
v -0.9 1.2 -0.8
v -0.4 1.2 -0.8
v -0.3 1.2 -0.8
v 0.3 1.2 -0.8
v 0.4 1.2 -0.8
v 0.9 1.2 -0.8
v -1.1 1.2 -0.9
v -0.9 1.2 -0.9
v -0.4 1.2 -0.9
v -0.3 1.2 -0.9
v 0.3 1.2 -0.9
v 0.4 1.2 -0.9
v 0.9 1.2 -0.9
v 1.1 1.2 -0.9
v -1.1 1.2 -1
v -0.9 1.2 -1
v 0.9 1.2 -1
v 1.1 1.2 -1
v -0.9 1.7 -0.7
v 0.9 1.7 -0.7
v -1.1 1.7 -0.8
v -1 1.7 -0.8
v -0.9 1.7 -0.8
v 0.9 1.7 -0.8
v 1 1.7 -0.8
v 1.1 1.7 -0.8
v -1.1 1.7 -0.9
v -1 1.7 -0.9
v 1 1.7 -0.9
v 1.1 1.7 -0.9
v -0.9 1.8 -0.6
v 0.9 1.8 -0.6
v -1.1 1.8 -0.7
v -1 1.8 -0.7
v -0.9 1.8 -0.7
v 0.9 1.8 -0.7
v 1 1.8 -0.7
v 1.1 1.8 -0.7
v -1.1 1.8 -0.8
v -1 1.8 -0.8
v 1 1.8 -0.8
v 1.1 1.8 -0.8
v -0.9 1.9 -0.3
v 0.9 1.9 -0.3
v -1.1 1.9 -0.6
v -1 1.9 -0.6
v -0.9 1.9 -0.6
v 0.9 1.9 -0.6
v 1 1.9 -0.6
v 1.1 1.9 -0.6
v -1.1 1.9 -0.7
v -1 1.9 -0.7
v 1 1.9 -0.7
v 1.1 1.9 -0.7
v -1.1 2 -0.3
v -1 2 -0.3
v 1 2 -0.3
v 1.1 2 -0.3
v -1.1 2 -0.6
v -1 2 -0.6
v 1 2 -0.6
v 1.1 2 -0.6
v -1.2 0.1 1
v -0.9 0.1 1
v 0.9 0.1 1
v 1.2 0.1 1
v -1.1 0.1 0.9
v -0.9 0.1 0.9
v -0.4 0.1 0.9
v -0.3 0.1 0.9
v 0.3 0.1 0.9
v 0.4 0.1 0.9
v 0.9 0.1 0.9
v 1.1 0.1 0.9
v -1.1 0.1 0.8
v -1 0.1 0.8
v -0.9 0.1 0.8
v -0.4 0.1 0.8
v -0.3 0.1 0.8
v 0.3 0.1 0.8
v 0.4 0.1 0.8
v 0.9 0.1 0.8
v 1 0.1 0.8
v 1.1 0.1 0.8
v -1.2 0.1 0.7
v -1.1 0.1 0.7
v -0.9 0.1 0.7
v 0.9 0.1 0.7
v 1.1 0.1 0.7
v 1.2 0.1 0.7
v -1.2 0.1 -0.1
v -1.1 0.1 -0.1
v -0.9 0.1 -0.1
v 0.9 0.1 -0.1
v 1.1 0.1 -0.1
v 1.2 0.1 -0.1
v -1.1 0.1 -0.2
v -1 0.1 -0.2
v -0.9 0.1 -0.2
v -0.4 0.1 -0.2
v -0.3 0.1 -0.2
v 0.3 0.1 -0.2
v 0.4 0.1 -0.2
v 0.9 0.1 -0.2
v 1 0.1 -0.2
v 1.1 0.1 -0.2
v -1.1 0.1 -0.3
v -0.9 0.1 -0.3
v -0.4 0.1 -0.3
v -0.3 0.1 -0.3
v 0.3 0.1 -0.3
v 0.4 0.1 -0.3
v 0.9 0.1 -0.3
v 1.1 0.1 -0.3
v -1.2 0.1 -0.4
v -0.9 0.1 -0.4
v 0.9 0.1 -0.4
v 1.2 0.1 -0.4
v -0.2 0.8 0.9
v 0.2 0.8 0.9
v -0.2 0.8 0.8
v 0.2 0.8 0.8
v -1.1 1 0.9
v 1.1 1 0.9
v -1 1 0.8
v 1 1 0.8
v -0.9 1 0.7
v 0.9 1 0.7
v -0.9 1 -0.1
v 0.9 1 -0.1
v -1 1 -0.2
v 1 1 -0.2
v -1 1 -0.3
v 1 1 -0.3
v -1.1 1 -0.6
v -1 1 -0.6
v 1 1 -0.6
v 1.1 1 -0.6
v -0.9 1.1 -0.3
v 0.9 1.1 -0.3
v -1.1 1.1 -0.6
v -1 1.1 -0.6
v -0.9 1.1 -0.6
v 0.9 1.1 -0.6
v 1 1.1 -0.6
v 1.1 1.1 -0.6
v -1.1 1.1 -0.7
v -1 1.1 -0.7
v 1 1.1 -0.7
v 1.1 1.1 -0.7
v -0.9 1.2 -0.6
v 0.9 1.2 -0.6
v -1.1 1.2 -0.7
v -1 1.2 -0.7
v -0.9 1.2 -0.7
v 0.9 1.2 -0.7
v 1 1.2 -0.7
v 1.1 1.2 -0.7
v -1.1 1.2 -0.8
v -1 1.2 -0.8
v 1 1.2 -0.8
v 1.1 1.2 -0.8
v -0.9 1.3 -0.7
v 0.9 1.3 -0.7
v -1.1 1.3 -0.8
v -1 1.3 -0.8
v -0.9 1.3 -0.8
v 0.9 1.3 -0.8
v 1 1.3 -0.8
v 1.1 1.3 -0.8
v -1.1 1.3 -0.9
v -1 1.3 -0.9
v 1 1.3 -0.9
v 1.1 1.3 -0.9
v -0.9 1.8 -0.8
v -0.4 1.8 -0.8
v -0.3 1.8 -0.8
v 0.3 1.8 -0.8
v 0.4 1.8 -0.8
v 0.9 1.8 -0.8
v -1.1 1.8 -0.9
v -0.9 1.8 -0.9
v -0.4 1.8 -0.9
v -0.3 1.8 -0.9
v 0.3 1.8 -0.9
v 0.4 1.8 -0.9
v 0.9 1.8 -0.9
v 1.1 1.8 -0.9
v -1.1 1.8 -1
v -0.9 1.8 -1
v 0.9 1.8 -1
v 1.1 1.8 -1
v -0.9 1.9 -0.7
v -0.4 1.9 -0.7
v -0.3 1.9 -0.7
v 0.3 1.9 -0.7
v 0.4 1.9 -0.7
v 0.9 1.9 -0.7
v -1.1 1.9 -0.8
v -0.9 1.9 -0.8
v -0.4 1.9 -0.8
v -0.3 1.9 -0.8
v 0.3 1.9 -0.8
v 0.4 1.9 -0.8
v 0.9 1.9 -0.8
v 1.1 1.9 -0.8
v -1.1 1.9 -0.9
v -0.9 1.9 -0.9
v -0.4 1.9 -0.9
v -0.3 1.9 -0.9
v 0.3 1.9 -0.9
v 0.4 1.9 -0.9
v 0.9 1.9 -0.9
v 1.1 1.9 -0.9
v -0.4 1.9 -1
v -0.3 1.9 -1
v 0.3 1.9 -1
v 0.4 1.9 -1
v -0.9 2 -0.3
v -0.4 2 -0.3
v -0.3 2 -0.3
v 0.3 2 -0.3
v 0.4 2 -0.3
v 0.9 2 -0.3
v -1.1 2 -0.7
v -0.9 2 -0.7
v -0.4 2 -0.7
v -0.3 2 -0.7
v 0.3 2 -0.7
v 0.4 2 -0.7
v 0.9 2 -0.7
v 1.1 2 -0.7
v -1.1 2 -0.8
v -0.9 2 -0.8
v -0.4 2 -0.8
v -0.3 2 -0.8
v 0.3 2 -0.8
v 0.4 2 -0.8
v 0.9 2 -0.8
v 1.1 2 -0.8
v -0.4 2 -0.9
v -0.3 2 -0.9
v 0.3 2 -0.9
v 0.4 2 -0.9
v -1.1 2.1 -0.3
v -0.9 2.1 -0.3
v -0.4 2.1 -0.3
v -0.3 2.1 -0.3
v 0.3 2.1 -0.3
v 0.4 2.1 -0.3
v 0.9 2.1 -0.3
v 1.1 2.1 -0.3
v -1.1 2.1 -0.7
v -0.9 2.1 -0.7
v 0.9 2.1 -0.7
v 1.1 2.1 -0.7
v -0.4 2.1 -0.8
v -0.3 2.1 -0.8
v 0.3 2.1 -0.8
v 0.4 2.1 -0.8

# faces
f 5/2/1 2/2/1 1/2/1
f 6/2/1 2/2/1 5/2/1
f 7/2/1 4/2/1 3/2/1
f 8/2/1 4/2/1 7/2/1
f 13/2/1 10/2/1 9/2/1
f 14/2/1 10/2/1 13/2/1
f 17/2/1 12/2/1 11/2/1
f 18/2/1 16/2/1 15/2/1
f 19/2/1 16/2/1 18/2/1
f 21/2/1 17/2/1 11/2/1
f 21/2/1 20/2/1 19/2/1
f 21/2/1 19/2/1 18/2/1
f 21/2/1 18/2/1 17/2/1
f 22/2/1 20/2/1 21/2/1
f 23/2/1 20/2/1 22/2/1
f 25/2/1 24/2/1 23/2/1
f 25/2/1 23/2/1 22/2/1
f 26/2/1 24/2/1 25/2/1
f 27/2/1 24/2/1 26/2/1
f 29/2/1 28/2/1 27/2/1
f 29/2/1 27/2/1 26/2/1
f 30/2/1 28/2/1 29/2/1
f 31/2/1 28/2/1 30/2/1
f 33/2/1 32/2/1 31/2/1
f 33/2/1 31/2/1 30/2/1
f 34/2/1 32/2/1 33/2/1
f 36/2/1 32/2/1 34/2/1
f 38/2/1 36/2/1 35/2/1
f 39/2/1 32/2/1 36/2/1
f 39/2/1 36/2/1 38/2/1
f 40/2/1 32/2/1 39/2/1
f 42/2/1 38/2/1 37/2/1
f 42/2/1 39/2/1 38/2/1
f 43/2/1 39/2/1 42/2/1
f 44/2/1 39/2/1 43/2/1
f 46/2/1 42/2/1 41/2/1
f 46/2/1 43/2/1 42/2/1
f 47/2/1 43/2/1 46/2/1
f 48/2/1 43/2/1 47/2/1
f 49/2/1 46/2/1 45/2/1
f 49/2/1 47/2/1 46/2/1
f 50/2/1 47/2/1 49/2/1
f 53/1/1 52/1/1 51/1/1
f 54/1/1 52/1/1 53/1/1
f 57/1/1 56/1/1 55/1/1
f 59/1/1 58/1/1 57/1/1
f 61/1/1 60/1/1 59/1/1
f 63/1/1 61/1/1 59/1/1
f 63/1/1 62/1/1 61/1/1
f 64/1/1 62/1/1 63/1/1
f 65/1/1 59/1/1 57/1/1
f 65/1/1 63/1/1 59/1/1
f 66/1/1 63/1/1 65/1/1
f 67/1/1 57/1/1 55/1/1
f 67/1/1 65/1/1 57/1/1
f 68/1/1 65/1/1 67/1/1
f 69/1/1 67/1/1 55/1/1
f 70/1/1 67/1/1 69/1/1
f 75/2/1 72/2/1 71/2/1
f 76/2/1 72/2/1 75/2/1
f 77/2/1 74/2/1 73/2/1
f 78/2/1 74/2/1 77/2/1
f 80/2/1 79/2/1 78/2/1
f 81/2/1 79/2/1 80/2/1
f 82/2/1 79/2/1 81/2/1
f 84/2/1 83/2/1 82/2/1
f 84/2/1 82/2/1 81/2/1
f 85/2/1 83/2/1 84/2/1
f 86/2/1 83/2/1 85/2/1
f 88/2/1 87/2/1 86/2/1
f 88/2/1 86/2/1 85/2/1
f 89/2/1 87/2/1 88/2/1
f 91/2/1 87/2/1 89/2/1
f 93/2/1 91/2/1 90/2/1
f 94/2/1 87/2/1 91/2/1
f 94/2/1 91/2/1 93/2/1
f 95/2/1 87/2/1 94/2/1
f 97/2/1 93/2/1 92/2/1
f 97/2/1 94/2/1 93/2/1
f 98/2/1 94/2/1 97/2/1
f 99/2/1 94/2/1 98/2/1
f 100/2/1 97/2/1 96/2/1
f 100/2/1 98/2/1 97/2/1
f 101/2/1 98/2/1 100/2/1
f 104/2/1 103/2/1 102/2/1
f 105/2/1 103/2/1 104/2/1
f 108/2/1 107/2/1 106/2/1
f 109/2/1 107/2/1 108/2/1
f 114/2/1 111/2/1 110/2/1
f 115/2/1 111/2/1 114/2/1
f 116/2/1 113/2/1 112/2/1
f 117/2/1 113/2/1 116/2/1
f 119/2/1 118/2/1 117/2/1
f 120/2/1 118/2/1 119/2/1
f 121/2/1 118/2/1 120/2/1
f 123/2/1 122/2/1 121/2/1
f 123/2/1 121/2/1 120/2/1
f 124/2/1 122/2/1 123/2/1
f 125/2/1 122/2/1 124/2/1
f 127/2/1 126/2/1 125/2/1
f 127/2/1 125/2/1 124/2/1
f 128/2/1 126/2/1 127/2/1
f 130/2/1 126/2/1 128/2/1
f 132/2/1 130/2/1 129/2/1
f 133/2/1 126/2/1 130/2/1
f 133/2/1 130/2/1 132/2/1
f 134/2/1 126/2/1 133/2/1
f 136/2/1 132/2/1 131/2/1
f 136/2/1 133/2/1 132/2/1
f 137/2/1 133/2/1 136/2/1
f 138/2/1 133/2/1 137/2/1
f 139/2/1 136/2/1 135/2/1
f 139/2/1 137/2/1 136/2/1
f 140/2/1 137/2/1 139/2/1
f 145/2/1 142/2/1 141/2/1
f 146/2/1 142/2/1 145/2/1
f 151/2/1 144/2/1 143/2/1
f 152/2/1 144/2/1 151/2/1
f 153/2/1 147/2/1 146/2/1
f 154/2/1 147/2/1 153/2/1
f 155/2/1 151/2/1 150/2/1
f 156/2/1 151/2/1 155/2/1
f 158/1/1 149/1/1 148/1/1
f 159/1/1 149/1/1 158/1/1
f 160/2/1 157/2/1 156/2/1
f 161/2/1 157/2/1 160/2/1
f 165/2/1 162/2/1 161/2/1
f 166/2/1 162/2/1 165/2/1
f 168/1/1 164/1/1 163/1/1
f 170/2/1 167/2/1 166/2/1
f 171/2/1 167/2/1 170/2/1
f 173/1/1 169/1/1 168/1/1
f 175/1/1 173/1/1 168/1/1
f 175/1/1 174/1/1 173/1/1
f 176/1/1 174/1/1 175/1/1
f 177/1/1 168/1/1 163/1/1
f 177/1/1 175/1/1 168/1/1
f 178/1/1 175/1/1 177/1/1
f 180/2/1 172/2/1 171/2/1
f 181/2/1 172/2/1 180/2/1
f 182/1/1 177/1/1 163/1/1
f 183/1/1 177/1/1 182/1/1
f 185/2/1 180/2/1 179/2/1
f 186/2/1 180/2/1 185/2/1
f 188/2/1 185/2/1 184/2/1
f 189/2/1 185/2/1 188/2/1
f 190/2/1 188/2/1 187/2/1
f 191/2/1 188/2/1 190/2/1
f 192/2/2 193/2/2 196/2/2
f 196/2/2 193/2/2 197/2/2
f 194/2/2 195/2/2 202/2/2
f 202/2/2 195/2/2 203/2/2
f 197/2/2 198/2/2 204/2/2
f 204/2/2 198/2/2 205/2/2
f 201/2/2 202/2/2 206/2/2
f 206/2/2 202/2/2 207/2/2
f 199/1/2 200/1/2 209/1/2
f 209/1/2 200/1/2 210/1/2
f 207/2/2 208/2/2 211/2/2
f 211/2/2 208/2/2 212/2/2
f 212/2/2 213/2/2 216/2/2
f 216/2/2 213/2/2 217/2/2
f 214/1/2 215/1/2 219/1/2
f 217/2/2 218/2/2 221/2/2
f 221/2/2 218/2/2 222/2/2
f 219/1/2 220/1/2 224/1/2
f 219/1/2 224/1/2 226/1/2
f 224/1/2 225/1/2 226/1/2
f 226/1/2 225/1/2 227/1/2
f 214/1/2 219/1/2 228/1/2
f 219/1/2 226/1/2 228/1/2
f 228/1/2 226/1/2 229/1/2
f 222/2/2 223/2/2 231/2/2
f 231/2/2 223/2/2 232/2/2
f 214/1/2 228/1/2 233/1/2
f 233/1/2 228/1/2 234/1/2
f 230/2/2 231/2/2 236/2/2
f 236/2/2 231/2/2 237/2/2
f 235/2/2 236/2/2 239/2/2
f 239/2/2 236/2/2 240/2/2
f 238/2/2 239/2/2 241/2/2
f 241/2/2 239/2/2 242/2/2
f 243/2/2 244/2/2 247/2/2
f 247/2/2 244/2/2 248/2/2
f 245/2/2 246/2/2 249/2/2
f 249/2/2 246/2/2 250/2/2
f 250/2/2 251/2/2 252/2/2
f 252/2/2 251/2/2 253/2/2
f 253/2/2 251/2/2 254/2/2
f 254/2/2 255/2/2 256/2/2
f 253/2/2 254/2/2 256/2/2
f 256/2/2 255/2/2 257/2/2
f 257/2/2 255/2/2 258/2/2
f 258/2/2 259/2/2 260/2/2
f 257/2/2 258/2/2 260/2/2
f 260/2/2 259/2/2 261/2/2
f 261/2/2 259/2/2 263/2/2
f 262/2/2 263/2/2 265/2/2
f 263/2/2 259/2/2 266/2/2
f 265/2/2 263/2/2 266/2/2
f 266/2/2 259/2/2 267/2/2
f 264/2/2 265/2/2 269/2/2
f 265/2/2 266/2/2 269/2/2
f 269/2/2 266/2/2 270/2/2
f 270/2/2 266/2/2 271/2/2
f 268/2/2 269/2/2 272/2/2
f 269/2/2 270/2/2 272/2/2
f 272/2/2 270/2/2 273/2/2
f 274/2/2 275/2/2 276/2/2
f 276/2/2 275/2/2 277/2/2
f 278/2/2 279/2/2 280/2/2
f 280/2/2 279/2/2 281/2/2
f 282/2/2 283/2/2 286/2/2
f 286/2/2 283/2/2 287/2/2
f 284/2/2 285/2/2 288/2/2
f 288/2/2 285/2/2 289/2/2
f 289/2/2 290/2/2 291/2/2
f 291/2/2 290/2/2 292/2/2
f 292/2/2 290/2/2 293/2/2
f 293/2/2 294/2/2 295/2/2
f 292/2/2 293/2/2 295/2/2
f 295/2/2 294/2/2 296/2/2
f 296/2/2 294/2/2 297/2/2
f 297/2/2 298/2/2 299/2/2
f 296/2/2 297/2/2 299/2/2
f 299/2/2 298/2/2 300/2/2
f 300/2/2 298/2/2 302/2/2
f 301/2/2 302/2/2 304/2/2
f 302/2/2 298/2/2 305/2/2
f 304/2/2 302/2/2 305/2/2
f 305/2/2 298/2/2 306/2/2
f 303/2/2 304/2/2 308/2/2
f 304/2/2 305/2/2 308/2/2
f 308/2/2 305/2/2 309/2/2
f 309/2/2 305/2/2 310/2/2
f 307/2/2 308/2/2 311/2/2
f 308/2/2 309/2/2 311/2/2
f 311/2/2 309/2/2 312/2/2
f 313/1/2 314/1/2 315/1/2
f 315/1/2 314/1/2 316/1/2
f 317/1/2 318/1/2 319/1/2
f 319/1/2 320/1/2 321/1/2
f 321/1/2 322/1/2 323/1/2
f 321/1/2 323/1/2 325/1/2
f 323/1/2 324/1/2 325/1/2
f 325/1/2 324/1/2 326/1/2
f 319/1/2 321/1/2 327/1/2
f 321/1/2 325/1/2 327/1/2
f 327/1/2 325/1/2 328/1/2
f 317/1/2 319/1/2 329/1/2
f 319/1/2 327/1/2 329/1/2
f 329/1/2 327/1/2 330/1/2
f 317/1/2 329/1/2 331/1/2
f 331/1/2 329/1/2 332/1/2
f 333/2/2 334/2/2 337/2/2
f 337/2/2 334/2/2 338/2/2
f 335/2/2 336/2/2 341/2/2
f 339/2/2 340/2/2 342/2/2
f 342/2/2 340/2/2 343/2/2
f 335/2/2 341/2/2 345/2/2
f 343/2/2 344/2/2 345/2/2
f 342/2/2 343/2/2 345/2/2
f 341/2/2 342/2/2 345/2/2
f 345/2/2 344/2/2 346/2/2
f 346/2/2 344/2/2 347/2/2
f 347/2/2 348/2/2 349/2/2
f 346/2/2 347/2/2 349/2/2
f 349/2/2 348/2/2 350/2/2
f 350/2/2 348/2/2 351/2/2
f 351/2/2 352/2/2 353/2/2
f 350/2/2 351/2/2 353/2/2
f 353/2/2 352/2/2 354/2/2
f 354/2/2 352/2/2 355/2/2
f 355/2/2 356/2/2 357/2/2
f 354/2/2 355/2/2 357/2/2
f 357/2/2 356/2/2 358/2/2
f 358/2/2 356/2/2 360/2/2
f 359/2/2 360/2/2 362/2/2
f 360/2/2 356/2/2 363/2/2
f 362/2/2 360/2/2 363/2/2
f 363/2/2 356/2/2 364/2/2
f 361/2/2 362/2/2 366/2/2
f 362/2/2 363/2/2 366/2/2
f 366/2/2 363/2/2 367/2/2
f 367/2/2 363/2/2 368/2/2
f 365/2/2 366/2/2 370/2/2
f 366/2/2 367/2/2 370/2/2
f 370/2/2 367/2/2 371/2/2
f 371/2/2 367/2/2 372/2/2
f 369/2/2 370/2/2 373/2/2
f 370/2/2 371/2/2 373/2/2
f 373/2/2 371/2/2 374/2/2
f 375/2/2 376/2/2 379/2/2
f 379/2/2 376/2/2 380/2/2
f 377/2/2 378/2/2 381/2/2
f 381/2/2 378/2/2 382/2/2
f 385/2/3 384/2/3 383/2/3
f 386/2/3 384/2/3 385/2/3
f 389/2/3 388/2/3 387/2/3
f 390/2/3 388/2/3 389/2/3
f 394/2/3 392/2/3 391/2/3
f 395/2/3 392/2/3 394/2/3
f 396/2/3 394/2/3 393/2/3
f 397/2/3 392/2/3 395/2/3
f 398/2/3 396/2/3 393/2/3
f 398/2/3 397/2/3 396/2/3
f 399/2/3 392/2/3 397/2/3
f 399/2/3 397/2/3 398/2/3
f 403/2/3 401/2/3 400/2/3
f 404/2/3 403/2/3 402/2/3
f 405/2/3 401/2/3 403/2/3
f 405/2/3 403/2/3 404/2/3
f 406/2/3 401/2/3 405/2/3
f 407/2/3 401/2/3 406/2/3
f 408/2/3 398/2/3 393/2/3
f 409/2/3 392/2/3 399/2/3
f 410/2/3 408/2/3 393/2/3
f 410/2/3 409/2/3 408/2/3
f 411/2/3 392/2/3 409/2/3
f 411/2/3 409/2/3 410/2/3
f 412/2/3 410/2/3 393/2/3
f 413/2/3 410/2/3 412/2/3
f 414/2/3 392/2/3 411/2/3
f 415/2/3 414/2/3 413/2/3
f 416/2/3 392/2/3 414/2/3
f 416/2/3 414/2/3 415/2/3
f 419/1/3 418/1/3 417/1/3
f 420/1/3 418/1/3 419/1/3
f 423/1/3 422/1/3 421/1/3
f 424/1/3 422/1/3 423/1/3
f 425/1/3 423/1/3 421/1/3
f 426/1/3 423/1/3 425/1/3
f 427/1/3 425/1/3 421/1/3
f 429/1/3 428/1/3 427/1/3
f 430/1/3 422/1/3 424/1/3
f 431/1/3 429/1/3 427/1/3
f 431/1/3 430/1/3 429/1/3
f 431/1/3 427/1/3 421/1/3
f 432/1/3 422/1/3 430/1/3
f 432/1/3 430/1/3 431/1/3
f 435/1/3 434/1/3 433/1/3
f 436/1/3 434/1/3 435/1/3
f 439/2/3 438/2/3 437/2/3
f 440/2/3 438/2/3 439/2/3
f 443/1/3 442/1/3 441/1/3
f 444/1/3 442/1/3 443/1/3
f 447/2/3 446/2/3 445/2/3
f 448/2/3 446/2/3 447/2/3
f 451/2/3 450/2/3 449/2/3
f 452/2/3 450/2/3 451/2/3
f 455/2/3 454/2/3 453/2/3
f 456/2/3 454/2/3 455/2/3
f 460/2/3 458/2/3 457/2/3
f 461/1/3 460/1/3 459/1/3
f 462/1/3 460/1/3 461/1/3
f 463/2/3 458/2/3 460/2/3
f 463/1/3 460/1/3 462/1/3
f 464/2/3 458/2/3 463/2/3
f 465/1/3 463/1/3 462/1/3
f 467/1/3 465/1/3 462/1/3
f 467/2/3 466/2/3 465/2/3
f 468/2/3 466/2/3 467/2/3
f 469/1/3 467/1/3 462/1/3
f 471/1/3 469/1/3 462/1/3
f 471/2/3 470/2/3 469/2/3
f 472/2/3 470/2/3 471/2/3
f 473/1/3 461/1/3 459/1/3
f 474/1/3 471/1/3 462/1/3
f 475/1/3 471/1/3 474/1/3
f 477/1/3 473/1/3 459/1/3
f 477/1/3 474/1/3 473/1/3
f 477/1/3 475/1/3 474/1/3
f 478/2/3 476/2/3 475/2/3
f 478/1/3 475/1/3 477/1/3
f 479/2/3 476/2/3 478/2/3
f 480/2/3 476/2/3 479/2/3
f 485/2/3 482/2/3 481/2/3
f 486/2/3 482/2/3 485/2/3
f 487/2/3 484/2/3 483/2/3
f 488/2/3 484/2/3 487/2/3
f 493/1/3 490/1/3 489/1/3
f 494/1/3 490/1/3 493/1/3
f 495/1/3 492/1/3 491/1/3
f 496/1/3 492/1/3 495/1/3
f 501/2/3 498/2/3 497/2/3
f 502/2/3 498/2/3 501/2/3
f 503/2/3 500/2/3 499/2/3
f 504/2/3 500/2/3 503/2/3
f 509/2/3 506/2/3 505/2/3
f 510/2/3 506/2/3 509/2/3
f 511/2/3 508/2/3 507/2/3
f 512/2/3 508/2/3 511/2/3
f 517/1/3 514/1/3 513/1/3
f 518/1/3 514/1/3 517/1/3
f 519/1/3 516/1/3 515/1/3
f 520/1/3 516/1/3 519/1/3
f 525/2/3 522/2/3 521/2/3
f 526/2/3 522/2/3 525/2/3
f 527/2/3 524/2/3 523/2/3
f 528/2/3 524/2/3 527/2/3
f 533/2/3 530/2/3 529/2/3
f 534/2/3 530/2/3 533/2/3
f 535/2/3 532/2/3 531/2/3
f 536/2/3 532/2/3 535/2/3
f 539/1/3 538/1/3 537/1/3
f 540/1/3 538/1/3 539/1/3
f 545/2/3 542/2/3 541/2/3
f 546/2/3 542/2/3 545/2/3
f 547/2/3 544/2/3 543/2/3
f 548/2/3 544/2/3 547/2/3
f 551/2/3 550/2/3 549/2/3
f 552/2/3 550/2/3 551/2/3
f 555/2/3 554/2/3 553/2/3
f 556/2/3 554/2/3 555/2/3
f 557/2/4 558/2/4 559/2/4
f 559/2/4 558/2/4 560/2/4
f 561/2/4 562/2/4 563/2/4
f 563/2/4 562/2/4 564/2/4
f 565/2/4 566/2/4 567/2/4
f 567/2/4 566/2/4 568/2/4
f 569/1/4 570/1/4 571/1/4
f 571/1/4 570/1/4 572/1/4
f 573/2/4 574/2/4 575/2/4
f 575/2/4 574/2/4 576/2/4
f 577/1/4 578/1/4 579/1/4
f 579/1/4 578/1/4 580/1/4
f 581/1/4 582/1/4 583/1/4
f 583/1/4 582/1/4 584/1/4
f 585/1/4 586/1/4 587/1/4
f 587/1/4 586/1/4 588/1/4
f 589/2/4 590/2/4 592/2/4
f 592/2/4 590/2/4 593/2/4
f 591/2/4 592/2/4 595/2/4
f 593/2/4 594/2/4 596/2/4
f 596/2/4 594/2/4 597/2/4
f 591/2/4 595/2/4 598/2/4
f 595/2/4 596/2/4 598/2/4
f 598/2/4 596/2/4 599/2/4
f 591/2/4 598/2/4 601/2/4
f 599/2/4 600/2/4 602/2/4
f 602/2/4 600/2/4 603/2/4
f 591/2/4 601/2/4 604/2/4
f 601/2/4 602/2/4 604/2/4
f 604/2/4 602/2/4 605/2/4
f 591/2/4 604/2/4 607/2/4
f 607/2/4 604/2/4 608/2/4
f 605/2/4 606/2/4 609/2/4
f 609/2/4 606/2/4 610/2/4
f 608/2/4 609/2/4 611/2/4
f 611/2/4 609/2/4 612/2/4
f 613/2/4 614/2/4 615/2/4
f 615/2/4 614/2/4 616/2/4
f 617/2/4 618/2/4 619/2/4
f 619/2/4 618/2/4 620/2/4
f 621/2/4 622/2/4 625/2/4
f 625/2/4 622/2/4 626/2/4
f 623/2/4 624/2/4 629/2/4
f 629/2/4 624/2/4 630/2/4
f 626/1/4 627/1/4 631/1/4
f 631/1/4 627/1/4 632/1/4
f 628/1/4 629/1/4 633/1/4
f 633/1/4 629/1/4 634/1/4
f 635/1/4 636/1/4 639/1/4
f 639/1/4 636/1/4 640/1/4
f 637/1/4 638/1/4 641/1/4
f 641/1/4 638/1/4 642/1/4
f 643/1/4 644/1/4 648/1/4
f 648/1/4 644/1/4 649/1/4
f 645/1/4 646/1/4 650/1/4
f 650/1/4 646/1/4 651/1/4
f 647/2/4 648/2/4 653/2/4
f 653/2/4 648/2/4 654/2/4
f 651/2/4 652/2/4 655/2/4
f 655/2/4 652/2/4 656/2/4
f 657/2/4 658/2/4 661/2/4
f 661/2/4 658/2/4 662/2/4
f 659/2/4 660/2/4 665/2/4
f 665/2/4 660/2/4 666/2/4
f 662/1/4 663/1/4 669/1/4
f 669/1/4 663/1/4 670/1/4
f 664/1/4 665/1/4 671/1/4
f 671/1/4 665/1/4 672/1/4
f 667/2/4 668/2/4 675/2/4
f 675/2/4 668/2/4 676/2/4
f 673/2/4 674/2/4 681/2/4
f 681/2/4 674/2/4 682/2/4
f 677/1/4 678/1/4 685/1/4
f 685/1/4 678/1/4 686/1/4
f 679/1/4 680/1/4 687/1/4
f 687/1/4 680/1/4 688/1/4
f 683/2/4 684/2/4 691/2/4
f 691/2/4 684/2/4 692/2/4
f 689/2/4 690/2/4 697/2/4
f 697/2/4 690/2/4 698/2/4
f 693/1/4 694/1/4 700/1/4
f 700/1/4 694/1/4 701/1/4
f 695/1/4 696/1/4 702/1/4
f 702/1/4 696/1/4 703/1/4
f 699/2/4 700/2/4 705/2/4
f 705/2/4 700/2/4 706/2/4
f 703/2/4 704/2/4 707/2/4
f 707/2/4 704/2/4 708/2/4
f 709/2/4 710/2/4 713/2/4
f 713/2/4 710/2/4 714/2/4
f 711/2/4 712/2/4 715/2/4
f 715/2/4 712/2/4 716/2/4
f 714/1/4 715/1/4 719/1/4
f 719/1/4 715/1/4 720/1/4
f 717/2/4 718/2/4 723/2/4
f 723/2/4 718/2/4 724/2/4
f 721/2/4 722/2/4 727/2/4
f 727/2/4 722/2/4 728/2/4
f 725/1/4 726/1/4 731/1/4
f 731/1/4 726/1/4 732/1/4
f 729/2/4 730/2/4 735/2/4
f 735/2/4 730/2/4 736/2/4
f 733/2/4 734/2/4 739/2/4
f 739/2/4 734/2/4 740/2/4
f 737/1/4 738/1/4 742/1/4
f 742/1/4 738/1/4 743/1/4
f 741/2/4 742/2/4 745/2/4
f 745/2/4 742/2/4 746/2/4
f 743/2/4 744/2/4 747/2/4
f 747/2/4 744/2/4 748/2/4
f 749/2/4 750/2/4 751/2/4
f 751/2/4 750/2/4 752/2/4
f 753/2/4 754/2/4 755/2/4
f 755/2/4 754/2/4 756/2/4
f 757/2/4 758/2/4 759/2/4
f 759/2/4 758/2/4 760/2/4
f 761/2/4 762/2/4 763/2/4
f 763/2/4 762/2/4 764/2/4
f 769/2/5 766/2/5 765/2/5
f 770/2/5 768/2/5 767/2/5
f 771/2/5 769/2/5 765/2/5
f 771/2/5 770/2/5 769/2/5
f 772/2/5 768/2/5 770/2/5
f 772/2/5 770/2/5 771/2/5
f 773/2/5 771/2/5 765/2/5
f 774/2/5 771/2/5 773/2/5
f 775/2/5 768/2/5 772/2/5
f 776/2/5 768/2/5 775/2/5
f 778/2/5 771/2/5 774/2/5
f 779/2/5 775/2/5 772/2/5
f 781/2/5 778/2/5 777/2/5
f 781/1/5 772/1/5 771/1/5
f 781/2/5 771/2/5 778/2/5
f 782/2/5 780/2/5 779/2/5
f 782/1/5 772/1/5 781/1/5
f 782/2/5 779/2/5 772/2/5
f 783/2/5 782/2/5 781/2/5
f 784/2/5 782/2/5 783/2/5
f 785/2/5 781/2/5 777/2/5
f 785/2/5 783/2/5 781/2/5
f 786/2/5 783/2/5 785/2/5
f 787/2/5 782/2/5 784/2/5
f 788/2/5 780/2/5 782/2/5
f 788/2/5 782/2/5 787/2/5
f 791/2/5 790/2/5 789/2/5
f 792/2/5 790/2/5 791/2/5
f 797/2/5 794/2/5 793/2/5
f 798/2/5 794/2/5 797/2/5
f 799/2/5 796/2/5 795/2/5
f 800/2/5 796/2/5 799/2/5
f 809/2/5 802/2/5 801/2/5
f 810/2/5 802/2/5 809/2/5
f 811/2/5 804/2/5 803/2/5
f 812/2/5 804/2/5 811/2/5
f 813/2/5 806/2/5 805/2/5
f 814/2/5 806/2/5 813/2/5
f 817/2/5 808/2/5 807/2/5
f 818/2/5 808/2/5 817/2/5
f 825/2/5 816/2/5 815/2/5
f 826/2/5 816/2/5 825/2/5
f 828/2/5 820/2/5 819/2/5
f 829/2/5 820/2/5 828/2/5
f 830/2/5 822/2/5 821/2/5
f 831/2/5 822/2/5 830/2/5
f 832/2/5 824/2/5 823/2/5
f 833/2/5 824/2/5 832/2/5
f 835/2/5 828/2/5 827/2/5
f 836/2/5 828/2/5 835/2/5
f 837/2/5 834/2/5 833/2/5
f 838/2/5 834/2/5 837/2/5
f 839/2/5 830/2/5 829/2/5
f 840/2/5 830/2/5 839/2/5
f 841/2/5 832/2/5 831/2/5
f 842/2/5 832/2/5 841/2/5
f 850/1/5 844/1/5 843/1/5
f 851/1/5 844/1/5 850/1/5
f 852/1/5 846/1/5 845/1/5
f 853/1/5 846/1/5 852/1/5
f 854/1/5 848/1/5 847/1/5
f 855/1/5 848/1/5 854/1/5
f 857/2/5 850/2/5 849/2/5
f 858/2/5 850/2/5 857/2/5
f 863/2/5 856/2/5 855/2/5
f 864/2/5 856/2/5 863/2/5
f 865/2/5 860/2/5 859/2/5
f 866/2/5 860/2/5 865/2/5
f 867/2/5 862/2/5 861/2/5
f 868/2/5 862/2/5 867/2/5
f 876/1/5 870/1/5 869/1/5
f 877/1/5 870/1/5 876/1/5
f 878/1/5 872/1/5 871/1/5
f 879/1/5 872/1/5 878/1/5
f 880/1/5 874/1/5 873/1/5
f 881/1/5 874/1/5 880/1/5
f 883/2/5 876/2/5 875/2/5
f 884/2/5 876/2/5 883/2/5
f 889/2/5 882/2/5 881/2/5
f 890/2/5 882/2/5 889/2/5
f 891/2/5 886/2/5 885/2/5
f 892/2/5 886/2/5 891/2/5
f 893/2/5 888/2/5 887/2/5
f 894/2/5 888/2/5 893/2/5
f 902/1/5 896/1/5 895/1/5
f 903/1/5 896/1/5 902/1/5
f 904/1/5 898/1/5 897/1/5
f 905/1/5 898/1/5 904/1/5
f 906/1/5 900/1/5 899/1/5
f 907/1/5 900/1/5 906/1/5
f 909/2/5 902/2/5 901/2/5
f 910/2/5 902/2/5 909/2/5
f 911/2/5 908/2/5 907/2/5
f 912/2/5 908/2/5 911/2/5
f 917/1/5 914/1/5 913/1/5
f 918/1/5 914/1/5 917/1/5
f 921/2/5 916/2/5 915/2/5
f 922/2/5 916/2/5 921/2/5
f 923/2/5 920/2/5 919/2/5
f 924/2/5 920/2/5 923/2/5
f 929/1/5 926/1/5 925/1/5
f 930/1/5 926/1/5 929/1/5
f 933/2/5 928/2/5 927/2/5
f 934/2/5 928/2/5 933/2/5
f 935/2/5 932/2/5 931/2/5
f 936/2/5 932/2/5 935/2/5
f 941/1/5 938/1/5 937/1/5
f 942/1/5 938/1/5 941/1/5
f 945/2/5 940/2/5 939/2/5
f 946/2/5 940/2/5 945/2/5
f 947/2/5 944/2/5 943/2/5
f 948/2/5 944/2/5 947/2/5
f 953/2/5 950/2/5 949/2/5
f 954/2/5 950/2/5 953/2/5
f 955/2/5 952/2/5 951/2/5
f 956/2/5 952/2/5 955/2/5
f 957/2/6 958/2/6 961/2/6
f 961/2/6 958/2/6 962/2/6
f 959/2/6 960/2/6 967/2/6
f 967/2/6 960/2/6 968/2/6
f 957/2/6 961/2/6 969/2/6
f 962/2/6 963/2/6 971/2/6
f 971/2/6 963/2/6 972/2/6
f 964/2/6 965/2/6 973/2/6
f 973/2/6 965/2/6 974/2/6
f 966/2/6 967/2/6 975/2/6
f 975/2/6 967/2/6 976/2/6
f 968/2/6 960/2/6 978/2/6
f 969/2/6 970/2/6 979/2/6
f 957/2/6 969/2/6 979/2/6
f 979/2/6 970/2/6 980/2/6
f 977/2/6 978/2/6 983/2/6
f 978/2/6 960/2/6 983/2/6
f 983/2/6 960/2/6 984/2/6
f 980/2/6 970/2/6 986/2/6
f 981/1/6 982/1/6 987/1/6
f 987/1/6 982/1/6 988/1/6
f 977/2/6 983/2/6 989/2/6
f 985/2/6 986/2/6 991/2/6
f 986/2/6 970/2/6 991/2/6
f 991/2/6 970/2/6 992/2/6
f 989/2/6 990/2/6 999/2/6
f 977/2/6 989/2/6 999/2/6
f 999/2/6 990/2/6 1000/2/6
f 985/2/6 991/2/6 1001/2/6
f 993/2/6 994/2/6 1002/2/6
f 1002/2/6 994/2/6 1003/2/6
f 995/2/6 996/2/6 1004/2/6
f 1004/2/6 996/2/6 1005/2/6
f 997/2/6 998/2/6 1006/2/6
f 1006/2/6 998/2/6 1007/2/6
f 1000/2/6 990/2/6 1008/2/6
f 985/2/6 1001/2/6 1009/2/6
f 1001/2/6 1002/2/6 1009/2/6
f 1009/2/6 1002/2/6 1010/2/6
f 1007/2/6 1008/2/6 1011/2/6
f 1008/2/6 990/2/6 1012/2/6
f 1011/2/6 1008/2/6 1012/2/6
f 1013/2/6 1014/2/6 1015/2/6
f 1015/2/6 1014/2/6 1016/2/6
f 1017/2/6 1018/2/6 1019/2/6
f 1019/2/6 1018/2/6 1020/2/6
f 1019/1/6 1020/1/6 1021/1/6
f 1021/1/6 1020/1/6 1022/1/6
f 1019/1/6 1021/1/6 1023/1/6
f 1022/1/6 1020/1/6 1024/1/6
f 1017/2/6 1019/2/6 1025/2/6
f 1023/1/6 1024/1/6 1025/1/6
f 1019/1/6 1023/1/6 1025/1/6
f 1024/1/6 1020/1/6 1026/1/6
f 1025/1/6 1024/1/6 1026/1/6
f 1020/2/6 1018/2/6 1026/2/6
f 1017/2/6 1025/2/6 1027/2/6
f 1025/2/6 1026/2/6 1027/2/6
f 1026/2/6 1018/2/6 1028/2/6
f 1027/2/6 1026/2/6 1028/2/6
f 1017/2/6 1027/2/6 1029/2/6
f 1029/2/6 1027/2/6 1030/2/6
f 1028/2/6 1018/2/6 1031/2/6
f 1031/2/6 1018/2/6 1032/2/6
f 1033/1/6 1034/1/6 1037/1/6
f 1037/1/6 1034/1/6 1038/1/6
f 1035/2/6 1036/2/6 1041/2/6
f 1041/2/6 1036/2/6 1042/2/6
f 1039/2/6 1040/2/6 1043/2/6
f 1043/2/6 1040/2/6 1044/2/6
f 1045/1/6 1046/1/6 1049/1/6
f 1049/1/6 1046/1/6 1050/1/6
f 1047/2/6 1048/2/6 1053/2/6
f 1053/2/6 1048/2/6 1054/2/6
f 1051/2/6 1052/2/6 1055/2/6
f 1055/2/6 1052/2/6 1056/2/6
f 1057/1/6 1058/1/6 1061/1/6
f 1061/1/6 1058/1/6 1062/1/6
f 1059/2/6 1060/2/6 1065/2/6
f 1065/2/6 1060/2/6 1066/2/6
f 1063/2/6 1064/2/6 1067/2/6
f 1067/2/6 1064/2/6 1068/2/6
f 1069/1/6 1070/1/6 1076/1/6
f 1076/1/6 1070/1/6 1077/1/6
f 1071/1/6 1072/1/6 1078/1/6
f 1078/1/6 1072/1/6 1079/1/6
f 1073/1/6 1074/1/6 1080/1/6
f 1080/1/6 1074/1/6 1081/1/6
f 1075/2/6 1076/2/6 1083/2/6
f 1083/2/6 1076/2/6 1084/2/6
f 1081/2/6 1082/2/6 1085/2/6
f 1085/2/6 1082/2/6 1086/2/6
f 1087/1/6 1088/1/6 1094/1/6
f 1094/1/6 1088/1/6 1095/1/6
f 1089/1/6 1090/1/6 1096/1/6
f 1096/1/6 1090/1/6 1097/1/6
f 1091/1/6 1092/1/6 1098/1/6
f 1098/1/6 1092/1/6 1099/1/6
f 1093/2/6 1094/2/6 1101/2/6
f 1101/2/6 1094/2/6 1102/2/6
f 1099/2/6 1100/2/6 1107/2/6
f 1107/2/6 1100/2/6 1108/2/6
f 1103/2/6 1104/2/6 1109/2/6
f 1109/2/6 1104/2/6 1110/2/6
f 1105/2/6 1106/2/6 1111/2/6
f 1111/2/6 1106/2/6 1112/2/6
f 1113/1/6 1114/1/6 1120/1/6
f 1120/1/6 1114/1/6 1121/1/6
f 1115/1/6 1116/1/6 1122/1/6
f 1122/1/6 1116/1/6 1123/1/6
f 1117/1/6 1118/1/6 1124/1/6
f 1124/1/6 1118/1/6 1125/1/6
f 1119/2/6 1120/2/6 1127/2/6
f 1127/2/6 1120/2/6 1128/2/6
f 1125/2/6 1126/2/6 1133/2/6
f 1133/2/6 1126/2/6 1134/2/6
f 1129/2/6 1130/2/6 1135/2/6
f 1135/2/6 1130/2/6 1136/2/6
f 1131/2/6 1132/2/6 1137/2/6
f 1137/2/6 1132/2/6 1138/2/6
f 1139/2/6 1140/2/6 1147/2/6
f 1147/2/6 1140/2/6 1148/2/6
f 1145/2/6 1146/2/6 1149/2/6
f 1149/2/6 1146/2/6 1150/2/6
f 1141/2/6 1142/2/6 1151/2/6
f 1151/2/6 1142/2/6 1152/2/6
f 1143/2/6 1144/2/6 1153/2/6
f 1153/2/6 1144/2/6 1154/2/6
