# MagicaVoxel @ Ephtracy

# group
o 

# material
mtllib PlayerBody.mtl
usemtl palette

# normals
vn -1 0 0
vn 1 0 0
vn 0 0 1
vn 0 0 -1
vn 0 -1 0
vn 0 1 0

# texcoords
vt 0.908203 0.5
vt 0.916016 0.5
vt 0.919922 0.5
vt 0.923828 0.5
vt 0.927734 0.5
vt 0.939453 0.5

# verts
v -0.5 0.4 0.4
v -0.5 0.4 0.2
v -0.5 0.5 0.2
v -0.5 0.5 0
v -0.5 0.6 0.4
v -0.5 0.6 0
v -0.5 0.6 -0.2
v -0.5 0.7 0
v -0.5 0.7 -0.2
v -0.5 0.7 -0.4
v -0.5 0.8 -0.2
v -0.5 0.8 -0.4
v -0.4 0.3 0.2
v -0.4 0.3 -0.2
v -0.4 0.4 0.2
v -0.4 0.4 -0.2
v -0.4 0.4 -0.3
v -0.4 0.5 0.2
v -0.4 0.5 0
v -0.4 0.6 0.3
v -0.4 0.6 0
v -0.4 0.6 -0.2
v -0.4 0.7 0
v -0.4 0.7 -0.2
v -0.4 0.7 -0.3
v -0.4 0.8 -0.2
v -0.4 0.8 -0.3
v -0.4 1 0.3
v -0.4 1 -0.3
v -0.4 1.1 0.3
v -0.4 1.1 -0.3
v -0.3 0.8 -0.3
v -0.3 0.8 -0.4
v -0.3 0.9 -0.3
v -0.3 0.9 -0.4
v -0.2 0.6 0.4
v -0.2 0.6 0.3
v -0.2 0.7 0.4
v -0.2 0.7 0.3
v -0.1 0.3 0.1
v -0.1 0.3 -0.1
v -0.1 0.4 0.1
v -0.1 0.4 -0.1
v -0.1 0.7 0.4
v -0.1 0.7 0.3
v -0.1 0.8 0.4
v -0.1 0.8 0.3
v -0.1 0.9 -0.3
v -0.1 0.9 -0.4
v -0.1 1 -0.3
v -0.1 1 -0.4
v 0 0.8 0.4
v 0 0.8 0.3
v 0 0.9 0.4
v 0 0.9 0.3
v 0.1 0.4 0.3
v 0.1 0.4 0.2
v 0.1 0.5 0.2
v 0.1 0.8 0.3
v 0.1 0.9 0.4
v 0.1 0.9 0.3
v 0.1 1 0.4
v 0.1 1 0.3
v 0.1 1 0.2
v 0.1 1 -0.3
v 0.1 1 -0.4
v 0.1 1.1 0.3
v 0.1 1.1 0.2
v 0.1 1.1 -0.3
v 0.1 1.1 -0.4
v 0.2 1 0.4
v 0.2 1 0.3
v 0.2 1.1 0.4
v 0.2 1.1 0.3
v 0.3 0.3 0.1
v 0.3 0.3 -0.1
v 0.3 0.4 0.1
v 0.3 0.4 -0.1
v -0.3 0.3 0.1
v -0.3 0.3 -0.1
v -0.3 0.4 0.4
v -0.3 0.4 0.3
v -0.3 0.4 0.1
v -0.3 0.4 -0.1
v -0.3 0.5 0.4
v -0.3 0.5 0.3
v -0.3 0.7 -0.3
v -0.3 0.7 -0.4
v -0.3 0.8 -0.3
v -0.3 0.8 -0.4
v -0.2 0.5 0.4
v -0.2 0.5 0.3
v -0.2 0.6 0.4
v -0.2 0.6 0.3
v -0.1 0.4 0.3
v -0.1 0.4 0.2
v -0.1 0.5 0.2
v -0.1 0.6 0.4
v -0.1 0.6 0.3
v -0.1 0.7 0.4
v -0.1 0.7 0.3
v -0.1 0.8 0.3
v -0.1 0.8 -0.3
v -0.1 0.8 -0.4
v -0.1 0.9 -0.3
v -0.1 0.9 -0.4
v -0.1 1 0.3
v -0.1 1 0.2
v -0.1 1.1 0.3
v -0.1 1.1 0.2
v 0 0.7 0.4
v 0 0.7 0.3
v 0 0.8 0.4
v 0 0.8 0.3
v 0.1 0.3 0.1
v 0.1 0.3 -0.1
v 0.1 0.4 0.1
v 0.1 0.4 -0.1
v 0.1 0.8 0.4
v 0.1 0.8 0.3
v 0.1 0.9 0.4
v 0.1 0.9 0.3
v 0.1 0.9 -0.3
v 0.1 0.9 -0.4
v 0.1 1 -0.3
v 0.1 1 -0.4
v 0.2 0.9 0.4
v 0.2 0.9 0.3
v 0.2 1 0.4
v 0.2 1 0.3
v 0.3 1 0.4
v 0.3 1 0.3
v 0.3 1 -0.3
v 0.3 1 -0.4
v 0.3 1.1 0.4
v 0.3 1.1 0.3
v 0.3 1.1 -0.3
v 0.3 1.1 -0.4
v 0.4 0.3 0.2
v 0.4 0.3 -0.2
v 0.4 0.4 0.3
v 0.4 0.4 0.2
v 0.4 0.4 -0.2
v 0.4 0.4 -0.3
v 0.4 1 0.3
v 0.4 1 -0.3
v 0.4 1.1 0.3
v 0.4 1.1 -0.3
v -0.5 0.4 0.4
v -0.5 0.6 0.4
v -0.3 0.4 0.4
v -0.3 0.5 0.4
v -0.2 0.5 0.4
v -0.2 0.6 0.4
v -0.2 0.7 0.4
v -0.1 0.6 0.4
v -0.1 0.7 0.4
v -0.1 0.8 0.4
v 0 0.7 0.4
v 0 0.8 0.4
v 0 0.9 0.4
v 0.1 0.8 0.4
v 0.1 0.9 0.4
v 0.1 1 0.4
v 0.2 0.9 0.4
v 0.2 1 0.4
v 0.2 1.1 0.4
v 0.3 1 0.4
v 0.3 1.1 0.4
v -0.4 0.6 0.3
v -0.4 1 0.3
v -0.4 1.1 0.3
v -0.3 0.4 0.3
v -0.3 0.5 0.3
v -0.2 0.5 0.3
v -0.2 0.6 0.3
v -0.2 0.7 0.3
v -0.1 0.4 0.3
v -0.1 0.6 0.3
v -0.1 0.7 0.3
v -0.1 0.8 0.3
v -0.1 1 0.3
v -0.1 1.1 0.3
v 0.1 0.4 0.3
v 0.1 0.8 0.3
v 0.1 0.9 0.3
v 0.1 1 0.3
v 0.1 1.1 0.3
v 0.2 0.9 0.3
v 0.2 1 0.3
v 0.2 1.1 0.3
v 0.3 1 0.3
v 0.3 1.1 0.3
v 0.4 0.4 0.3
v 0.4 1 0.3
v 0.4 1.1 0.3
v -0.4 0.3 0.2
v -0.4 0.4 0.2
v -0.1 0.4 0.2
v -0.1 0.5 0.2
v -0.1 1 0.2
v -0.1 1.1 0.2
v 0.1 0.4 0.2
v 0.1 0.5 0.2
v 0.1 1 0.2
v 0.1 1.1 0.2
v 0.4 0.3 0.2
v 0.4 0.4 0.2
v -0.5 0.6 0
v -0.5 0.7 0
v -0.4 0.6 0
v -0.4 0.7 0
v -0.3 0.3 -0.1
v -0.3 0.4 -0.1
v -0.1 0.3 -0.1
v -0.1 0.4 -0.1
v 0.1 0.3 -0.1
v 0.1 0.4 -0.1
v 0.3 0.3 -0.1
v 0.3 0.4 -0.1
v -0.5 0.7 -0.2
v -0.5 0.8 -0.2
v -0.4 0.7 -0.2
v -0.4 0.8 -0.2
v -0.1 0.7 0.3
v -0.1 0.8 0.3
v 0 0.7 0.3
v 0 0.8 0.3
v 0 0.9 0.3
v 0.1 0.8 0.3
v 0.1 0.9 0.3
v -0.5 0.4 0.2
v -0.5 0.5 0.2
v -0.4 0.4 0.2
v -0.4 0.5 0.2
v -0.3 0.3 0.1
v -0.3 0.4 0.1
v -0.1 0.3 0.1
v -0.1 0.4 0.1
v 0.1 0.3 0.1
v 0.1 0.4 0.1
v 0.3 0.3 0.1
v 0.3 0.4 0.1
v -0.5 0.5 0
v -0.5 0.6 0
v -0.4 0.5 0
v -0.4 0.6 0
v -0.5 0.6 -0.2
v -0.5 0.7 -0.2
v -0.4 0.3 -0.2
v -0.4 0.4 -0.2
v -0.4 0.6 -0.2
v -0.4 0.7 -0.2
v 0.4 0.3 -0.2
v 0.4 0.4 -0.2
v -0.4 0.4 -0.3
v -0.4 0.7 -0.3
v -0.4 0.8 -0.3
v -0.4 1 -0.3
v -0.4 1.1 -0.3
v -0.3 0.7 -0.3
v -0.3 0.8 -0.3
v -0.3 0.9 -0.3
v -0.1 0.8 -0.3
v -0.1 0.9 -0.3
v -0.1 1 -0.3
v 0.1 0.9 -0.3
v 0.1 1 -0.3
v 0.1 1.1 -0.3
v 0.3 1 -0.3
v 0.3 1.1 -0.3
v 0.4 0.4 -0.3
v 0.4 1 -0.3
v 0.4 1.1 -0.3
v -0.5 0.7 -0.4
v -0.5 0.8 -0.4
v -0.3 0.7 -0.4
v -0.3 0.8 -0.4
v -0.3 0.9 -0.4
v -0.1 0.8 -0.4
v -0.1 0.9 -0.4
v -0.1 1 -0.4
v 0.1 0.9 -0.4
v 0.1 1 -0.4
v 0.1 1.1 -0.4
v 0.3 1 -0.4
v 0.3 1.1 -0.4
v -0.4 0.3 0.2
v 0.4 0.3 0.2
v -0.3 0.3 0.1
v -0.1 0.3 0.1
v 0.1 0.3 0.1
v 0.3 0.3 0.1
v -0.3 0.3 -0.1
v -0.1 0.3 -0.1
v 0.1 0.3 -0.1
v 0.3 0.3 -0.1
v -0.4 0.3 -0.2
v 0.4 0.3 -0.2
v -0.5 0.4 0.4
v -0.3 0.4 0.4
v -0.4 0.4 0.3
v -0.3 0.4 0.3
v -0.1 0.4 0.3
v 0.1 0.4 0.3
v 0.4 0.4 0.3
v -0.5 0.4 0.2
v -0.4 0.4 0.2
v -0.1 0.4 0.2
v 0.1 0.4 0.2
v 0.4 0.4 0.2
v -0.3 0.4 0.1
v -0.1 0.4 0.1
v 0.1 0.4 0.1
v 0.3 0.4 0.1
v -0.3 0.4 -0.1
v -0.1 0.4 -0.1
v 0.1 0.4 -0.1
v 0.3 0.4 -0.1
v -0.4 0.4 -0.2
v 0.4 0.4 -0.2
v -0.4 0.4 -0.3
v 0.4 0.4 -0.3
v -0.3 0.5 0.4
v -0.2 0.5 0.4
v -0.3 0.5 0.3
v -0.2 0.5 0.3
v -0.5 0.5 0.2
v -0.4 0.5 0.2
v -0.5 0.5 0
v -0.4 0.5 0
v -0.2 0.6 0.4
v -0.1 0.6 0.4
v -0.2 0.6 0.3
v -0.1 0.6 0.3
v -0.5 0.6 0
v -0.4 0.6 0
v -0.5 0.6 -0.2
v -0.4 0.6 -0.2
v -0.1 0.7 0.4
v 0 0.7 0.4
v -0.1 0.7 0.3
v 0 0.7 0.3
v -0.5 0.7 -0.2
v -0.4 0.7 -0.2
v -0.4 0.7 -0.3
v -0.3 0.7 -0.3
v -0.5 0.7 -0.4
v -0.3 0.7 -0.4
v 0 0.8 0.4
v 0.1 0.8 0.4
v 0 0.8 0.3
v 0.1 0.8 0.3
v -0.3 0.8 -0.3
v -0.1 0.8 -0.3
v -0.3 0.8 -0.4
v -0.1 0.8 -0.4
v 0.1 0.9 0.4
v 0.2 0.9 0.4
v 0.1 0.9 0.3
v 0.2 0.9 0.3
v -0.1 0.9 -0.3
v 0.1 0.9 -0.3
v -0.1 0.9 -0.4
v 0.1 0.9 -0.4
v 0.2 1 0.4
v 0.3 1 0.4
v 0.2 1 0.3
v 0.3 1 0.3
v 0.1 1 -0.3
v 0.3 1 -0.3
v 0.1 1 -0.4
v 0.3 1 -0.4
v -0.5 0.6 0.4
v -0.2 0.6 0.4
v -0.4 0.6 0.3
v -0.2 0.6 0.3
v -0.5 0.6 0
v -0.4 0.6 0
v -0.2 0.7 0.4
v -0.1 0.7 0.4
v -0.2 0.7 0.3
v -0.1 0.7 0.3
v -0.5 0.7 0
v -0.4 0.7 0
v -0.5 0.7 -0.2
v -0.4 0.7 -0.2
v -0.1 0.8 0.4
v 0 0.8 0.4
v -0.1 0.8 0.3
v 0 0.8 0.3
v -0.5 0.8 -0.2
v -0.4 0.8 -0.2
v -0.4 0.8 -0.3
v -0.3 0.8 -0.3
v -0.5 0.8 -0.4
v -0.3 0.8 -0.4
v 0 0.9 0.4
v 0.1 0.9 0.4
v 0 0.9 0.3
v 0.1 0.9 0.3
v -0.3 0.9 -0.3
v -0.1 0.9 -0.3
v -0.3 0.9 -0.4
v -0.1 0.9 -0.4
v 0.1 1 0.4
v 0.2 1 0.4
v 0.1 1 0.3
v 0.2 1 0.3
v -0.1 1 -0.3
v 0.1 1 -0.3
v -0.1 1 -0.4
v 0.1 1 -0.4
v 0.2 1.1 0.4
v 0.3 1.1 0.4
v -0.4 1.1 0.3
v -0.1 1.1 0.3
v 0.1 1.1 0.3
v 0.2 1.1 0.3
v 0.3 1.1 0.3
v 0.4 1.1 0.3
v -0.3 1.1 0.2
v -0.1 1.1 0.2
v 0.1 1.1 0.2
v 0.3 1.1 0.2
v -0.1 1.1 -0.1
v 0.1 1.1 -0.1
v -0.3 1.1 -0.2
v -0.1 1.1 -0.2
v 0.1 1.1 -0.2
v 0.3 1.1 -0.2
v -0.4 1.1 -0.3
v 0.1 1.1 -0.3
v 0.3 1.1 -0.3
v 0.4 1.1 -0.3
v 0.1 1.1 -0.4
v 0.3 1.1 -0.4

# faces
f 3/3/1 2/3/1 1/3/1
f 5/3/1 3/3/1 1/3/1
f 5/3/1 4/3/1 3/3/1
f 6/3/1 4/3/1 5/3/1
f 8/3/1 7/3/1 6/3/1
f 9/3/1 7/3/1 8/3/1
f 11/3/1 10/3/1 9/3/1
f 12/3/1 10/3/1 11/3/1
f 15/2/1 14/2/1 13/2/1
f 16/2/1 14/2/1 15/2/1
f 18/1/1 16/1/1 15/1/1
f 18/1/1 17/1/1 16/1/1
f 19/1/1 17/1/1 18/1/1
f 21/1/1 17/1/1 19/1/1
f 22/1/1 17/1/1 21/1/1
f 23/1/1 21/1/1 20/1/1
f 24/1/1 17/1/1 22/1/1
f 25/1/1 17/1/1 24/1/1
f 26/1/1 24/1/1 23/1/1
f 28/1/1 23/1/1 20/1/1
f 28/1/1 27/1/1 26/1/1
f 28/1/1 26/1/1 23/1/1
f 29/1/1 27/1/1 28/1/1
f 30/4/1 29/4/1 28/4/1
f 31/4/1 29/4/1 30/4/1
f 34/3/1 33/3/1 32/3/1
f 35/3/1 33/3/1 34/3/1
f 38/3/1 37/3/1 36/3/1
f 39/3/1 37/3/1 38/3/1
f 42/2/1 41/2/1 40/2/1
f 43/2/1 41/2/1 42/2/1
f 46/3/1 45/3/1 44/3/1
f 47/3/1 45/3/1 46/3/1
f 50/3/1 49/3/1 48/3/1
f 51/3/1 49/3/1 50/3/1
f 54/3/1 53/3/1 52/3/1
f 55/3/1 53/3/1 54/3/1
f 58/1/1 57/1/1 56/1/1
f 59/1/1 58/1/1 56/1/1
f 61/1/1 58/1/1 59/1/1
f 62/3/1 61/3/1 60/3/1
f 63/1/1 58/1/1 61/1/1
f 63/3/1 61/3/1 62/3/1
f 64/1/1 58/1/1 63/1/1
f 67/4/1 64/4/1 63/4/1
f 68/4/1 64/4/1 67/4/1
f 69/3/1 66/3/1 65/3/1
f 70/3/1 66/3/1 69/3/1
f 73/3/1 72/3/1 71/3/1
f 74/3/1 72/3/1 73/3/1
f 77/2/1 76/2/1 75/2/1
f 78/2/1 76/2/1 77/2/1
f 79/2/2 80/2/2 83/2/2
f 83/2/2 80/2/2 84/2/2
f 81/3/2 82/3/2 85/3/2
f 85/3/2 82/3/2 86/3/2
f 87/3/2 88/3/2 89/3/2
f 89/3/2 88/3/2 90/3/2
f 91/3/2 92/3/2 93/3/2
f 93/3/2 92/3/2 94/3/2
f 95/1/2 96/1/2 97/1/2
f 95/1/2 97/1/2 99/1/2
f 98/3/2 99/3/2 100/3/2
f 99/1/2 97/1/2 101/1/2
f 100/3/2 99/3/2 101/3/2
f 101/1/2 97/1/2 102/1/2
f 103/3/2 104/3/2 105/3/2
f 105/3/2 104/3/2 106/3/2
f 102/1/2 97/1/2 107/1/2
f 107/1/2 97/1/2 108/1/2
f 107/4/2 108/4/2 109/4/2
f 109/4/2 108/4/2 110/4/2
f 111/3/2 112/3/2 113/3/2
f 113/3/2 112/3/2 114/3/2
f 115/2/2 116/2/2 117/2/2
f 117/2/2 116/2/2 118/2/2
f 119/3/2 120/3/2 121/3/2
f 121/3/2 120/3/2 122/3/2
f 123/3/2 124/3/2 125/3/2
f 125/3/2 124/3/2 126/3/2
f 127/3/2 128/3/2 129/3/2
f 129/3/2 128/3/2 130/3/2
f 131/3/2 132/3/2 135/3/2
f 135/3/2 132/3/2 136/3/2
f 133/3/2 134/3/2 137/3/2
f 137/3/2 134/3/2 138/3/2
f 139/2/2 140/2/2 142/2/2
f 142/2/2 140/2/2 143/2/2
f 141/1/2 142/1/2 145/1/2
f 143/1/2 144/1/2 145/1/2
f 142/1/2 143/1/2 145/1/2
f 145/1/2 144/1/2 146/1/2
f 145/4/2 146/4/2 147/4/2
f 147/4/2 146/4/2 148/4/2
f 151/3/3 150/3/3 149/3/3
f 152/3/3 150/3/3 151/3/3
f 153/3/3 150/3/3 152/3/3
f 154/3/3 150/3/3 153/3/3
f 156/3/3 155/3/3 154/3/3
f 157/3/3 155/3/3 156/3/3
f 159/3/3 158/3/3 157/3/3
f 160/3/3 158/3/3 159/3/3
f 162/3/3 161/3/3 160/3/3
f 163/3/3 161/3/3 162/3/3
f 165/3/3 164/3/3 163/3/3
f 166/3/3 164/3/3 165/3/3
f 168/3/3 167/3/3 166/3/3
f 169/3/3 167/3/3 168/3/3
f 175/1/3 174/1/3 173/1/3
f 176/1/3 171/1/3 170/1/3
f 177/1/3 171/1/3 176/1/3
f 178/1/3 175/1/3 173/1/3
f 178/1/3 176/1/3 175/1/3
f 179/1/3 176/1/3 178/1/3
f 180/1/3 171/1/3 177/1/3
f 181/1/3 171/1/3 180/1/3
f 182/4/3 172/4/3 171/4/3
f 182/1/3 171/1/3 181/1/3
f 183/4/3 172/4/3 182/4/3
f 189/1/3 185/1/3 184/1/3
f 189/1/3 186/1/3 185/1/3
f 190/4/3 188/4/3 187/4/3
f 191/4/3 188/4/3 190/4/3
f 192/1/3 190/1/3 189/1/3
f 194/1/3 189/1/3 184/1/3
f 194/1/3 192/1/3 189/1/3
f 195/4/3 193/4/3 192/4/3
f 195/1/3 192/1/3 194/1/3
f 196/4/3 193/4/3 195/4/3
f 199/2/3 198/2/3 197/2/3
f 203/2/3 199/2/3 197/2/3
f 203/5/3 200/5/3 199/5/3
f 204/2/3 201/2/3 200/2/3
f 204/5/3 200/5/3 203/5/3
f 205/6/3 202/6/3 201/6/3
f 205/2/3 201/2/3 204/2/3
f 206/6/3 202/6/3 205/6/3
f 207/2/3 203/2/3 197/2/3
f 208/2/3 203/2/3 207/2/3
f 211/3/3 210/3/3 209/3/3
f 212/3/3 210/3/3 211/3/3
f 215/2/3 214/2/3 213/2/3
f 216/2/3 214/2/3 215/2/3
f 219/2/3 218/2/3 217/2/3
f 220/2/3 218/2/3 219/2/3
f 223/3/3 222/3/3 221/3/3
f 224/3/3 222/3/3 223/3/3
f 225/3/4 226/3/4 227/3/4
f 227/3/4 226/3/4 228/3/4
f 228/3/4 229/3/4 230/3/4
f 230/3/4 229/3/4 231/3/4
f 232/3/4 233/3/4 234/3/4
f 234/3/4 233/3/4 235/3/4
f 236/2/4 237/2/4 238/2/4
f 238/2/4 237/2/4 239/2/4
f 240/2/4 241/2/4 242/2/4
f 242/2/4 241/2/4 243/2/4
f 244/3/4 245/3/4 246/3/4
f 246/3/4 245/3/4 247/3/4
f 248/3/4 249/3/4 252/3/4
f 252/3/4 249/3/4 253/3/4
f 250/2/4 251/2/4 254/2/4
f 254/2/4 251/2/4 255/2/4
f 256/1/4 257/1/4 261/1/4
f 258/1/4 259/1/4 262/1/4
f 262/1/4 259/1/4 263/1/4
f 261/1/4 262/1/4 264/1/4
f 263/1/4 259/1/4 265/1/4
f 259/4/4 260/4/4 266/4/4
f 265/1/4 259/1/4 266/1/4
f 264/1/4 265/1/4 267/1/4
f 266/4/4 260/4/4 268/4/4
f 268/4/4 260/4/4 269/4/4
f 267/1/4 268/1/4 270/1/4
f 264/1/4 267/1/4 272/1/4
f 256/1/4 261/1/4 272/1/4
f 267/1/4 270/1/4 272/1/4
f 261/1/4 264/1/4 272/1/4
f 270/4/4 271/4/4 273/4/4
f 272/1/4 270/1/4 273/1/4
f 273/4/4 271/4/4 274/4/4
f 275/3/4 276/3/4 277/3/4
f 277/3/4 276/3/4 278/3/4
f 278/3/4 279/3/4 280/3/4
f 280/3/4 279/3/4 281/3/4
f 281/3/4 282/3/4 283/3/4
f 283/3/4 282/3/4 284/3/4
f 284/3/4 285/3/4 286/3/4
f 286/3/4 285/3/4 287/3/4
f 290/2/5 289/2/5 288/2/5
f 291/2/5 289/2/5 290/2/5
f 292/2/5 289/2/5 291/2/5
f 293/2/5 289/2/5 292/2/5
f 294/2/5 290/2/5 288/2/5
f 295/2/5 292/2/5 291/2/5
f 296/2/5 292/2/5 295/2/5
f 297/2/5 289/2/5 293/2/5
f 298/2/5 296/2/5 295/2/5
f 298/2/5 297/2/5 296/2/5
f 298/2/5 294/2/5 288/2/5
f 298/2/5 295/2/5 294/2/5
f 299/2/5 289/2/5 297/2/5
f 299/2/5 297/2/5 298/2/5
f 302/3/5 301/3/5 300/3/5
f 303/3/5 301/3/5 302/3/5
f 307/3/5 302/3/5 300/3/5
f 308/1/5 303/1/5 302/1/5
f 308/3/5 302/3/5 307/3/5
f 308/1/5 304/1/5 303/1/5
f 309/1/5 304/1/5 308/1/5
f 310/1/5 306/1/5 305/1/5
f 311/1/5 306/1/5 310/1/5
f 316/6/5 313/6/5 312/6/5
f 317/6/5 313/6/5 316/6/5
f 318/6/5 315/6/5 314/6/5
f 319/6/5 315/6/5 318/6/5
f 322/1/5 321/1/5 320/1/5
f 323/1/5 321/1/5 322/1/5
f 326/3/5 325/3/5 324/3/5
f 327/3/5 325/3/5 326/3/5
f 330/3/5 329/3/5 328/3/5
f 331/3/5 329/3/5 330/3/5
f 334/3/5 333/3/5 332/3/5
f 335/3/5 333/3/5 334/3/5
f 338/3/5 337/3/5 336/3/5
f 339/3/5 337/3/5 338/3/5
f 342/3/5 341/3/5 340/3/5
f 343/3/5 341/3/5 342/3/5
f 346/3/5 345/3/5 344/3/5
f 348/3/5 346/3/5 344/3/5
f 348/3/5 347/3/5 346/3/5
f 349/3/5 347/3/5 348/3/5
f 352/3/5 351/3/5 350/3/5
f 353/3/5 351/3/5 352/3/5
f 356/3/5 355/3/5 354/3/5
f 357/3/5 355/3/5 356/3/5
f 360/3/5 359/3/5 358/3/5
f 361/3/5 359/3/5 360/3/5
f 364/3/5 363/3/5 362/3/5
f 365/3/5 363/3/5 364/3/5
f 368/3/5 367/3/5 366/3/5
f 369/3/5 367/3/5 368/3/5
f 372/3/5 371/3/5 370/3/5
f 373/3/5 371/3/5 372/3/5
f 374/3/6 375/3/6 376/3/6
f 376/3/6 375/3/6 377/3/6
f 374/3/6 376/3/6 378/3/6
f 378/3/6 376/3/6 379/3/6
f 380/3/6 381/3/6 382/3/6
f 382/3/6 381/3/6 383/3/6
f 384/3/6 385/3/6 386/3/6
f 386/3/6 385/3/6 387/3/6
f 388/3/6 389/3/6 390/3/6
f 390/3/6 389/3/6 391/3/6
f 392/3/6 393/3/6 394/3/6
f 392/3/6 394/3/6 396/3/6
f 394/3/6 395/3/6 396/3/6
f 396/3/6 395/3/6 397/3/6
f 398/3/6 399/3/6 400/3/6
f 400/3/6 399/3/6 401/3/6
f 402/3/6 403/3/6 404/3/6
f 404/3/6 403/3/6 405/3/6
f 406/3/6 407/3/6 408/3/6
f 408/3/6 407/3/6 409/3/6
f 410/3/6 411/3/6 412/3/6
f 412/3/6 411/3/6 413/3/6
f 414/3/6 415/3/6 419/3/6
f 419/3/6 415/3/6 420/3/6
f 416/4/6 417/4/6 422/4/6
f 422/4/6 417/4/6 423/4/6
f 420/4/6 421/4/6 424/4/6
f 418/4/6 419/4/6 424/4/6
f 419/4/6 420/4/6 424/4/6
f 424/4/6 421/4/6 425/4/6
f 422/6/6 423/6/6 426/6/6
f 423/6/6 424/6/6 426/6/6
f 424/6/6 425/6/6 426/6/6
f 426/6/6 425/6/6 427/6/6
f 416/4/6 422/4/6 428/4/6
f 422/6/6 426/6/6 428/6/6
f 426/4/6 427/4/6 429/4/6
f 428/6/6 426/6/6 429/6/6
f 427/6/6 425/6/6 430/6/6
f 429/4/6 427/4/6 430/4/6
f 425/4/6 421/4/6 431/4/6
f 430/6/6 425/6/6 431/6/6
f 429/4/6 430/4/6 432/4/6
f 428/4/6 429/4/6 432/4/6
f 430/4/6 431/4/6 432/4/6
f 416/4/6 428/4/6 432/4/6
f 432/4/6 431/4/6 433/4/6
f 431/4/6 421/4/6 434/4/6
f 433/4/6 431/4/6 434/4/6
f 434/4/6 421/4/6 435/4/6
f 433/3/6 434/3/6 436/3/6
f 436/3/6 434/3/6 437/3/6
