# MagicaVoxel @ Ephtracy

# group
o 

# material
mtllib PlayerHead.mtl
usemtl palette

# normals
vn -1 0 0
vn 1 0 0
vn 0 0 1
vn 0 0 -1
vn 0 -1 0
vn 0 1 0

# texcoords
vt 0.912109 0.5
vt 0.916016 0.5
vt 0.923828 0.5
vt 0.931641 0.5
vt 0.939453 0.5
vt 0.943359 0.5
vt 0.947266 0.5

# verts
v -0.7 1.2 0.1
v -0.7 1.2 -0.1
v -0.7 1.5 0.1
v -0.7 1.5 -0.1
v -0.6 1.1 0.3
v -0.6 1.1 -0.6
v -0.6 1.2 0.1
v -0.6 1.2 -0.1
v -0.6 1.4 0.4
v -0.6 1.4 0.3
v -0.6 1.5 0.5
v -0.6 1.5 0.4
v -0.6 1.5 0.1
v -0.6 1.5 -0.1
v -0.6 1.6 0.6
v -0.6 1.6 0.5
v -0.6 1.8 0.6
v -0.6 1.8 -0.6
v -0.6 1.9 0.6
v -0.6 1.9 -0.6
v -0.6 2 0.6
v -0.6 2 -0.6
v -0.5 1.1 0.5
v -0.5 1.1 0.3
v -0.5 1.3 0.6
v -0.5 1.3 0.5
v -0.5 1.4 0.5
v -0.5 1.4 0.4
v -0.5 1.4 0.3
v -0.5 1.5 0.5
v -0.5 1.5 0.4
v -0.5 1.6 0.6
v -0.5 1.6 0.5
v -0.5 1.8 0.7
v -0.5 1.8 0.6
v -0.5 1.9 0.7
v -0.5 1.9 0.6
v -0.5 2 0.6
v -0.5 2 -0.6
v -0.5 2.1 0.6
v -0.5 2.1 -0.6
v -0.4 1.7 0.7
v -0.4 1.7 0.6
v -0.4 1.8 0.7
v -0.4 1.8 0.6
v -0.4 1.9 0.7
v -0.4 1.9 0.6
v -0.4 2 0.7
v -0.4 2 0.6
v -0.3 1.6 0.6
v -0.3 1.6 0.5
v -0.3 1.7 0.6
v -0.3 1.7 0.5
v -0.1 1.6 0.6
v -0.1 1.6 0.5
v -0.1 1.7 0.6
v -0.1 1.7 0.5
v 0 1.7 0.6
v 0 1.7 0.5
v 0 1.8 0.6
v 0 1.8 0.5
v 0.1 1.7 0.7
v 0.1 1.7 0.6
v 0.1 1.8 0.7
v 0.1 1.8 0.6
v 0.1 1.9 0.7
v 0.1 1.9 0.6
v 0.1 2 0.7
v 0.1 2 0.6
v 0.2 1.6 0.6
v 0.2 1.6 0.5
v 0.2 1.7 0.6
v 0.2 1.8 0.6
v 0.2 1.8 0.5
v 0.3 1.3 0.6
v 0.3 1.3 0.5
v 0.3 1.4 0.6
v 0.3 1.4 0.5
v 0.4 1.4 0.6
v 0.4 1.4 0.5
v 0.4 1.7 0.6
v 0.4 1.7 0.5
v -0.4 1.3 0.6
v -0.4 1.3 0.5
v -0.4 1.4 0.5
v -0.4 1.7 0.6
v -0.4 1.7 0.5
v -0.2 1.6 0.6
v -0.2 1.6 0.5
v -0.2 1.7 0.6
v -0.2 1.8 0.6
v -0.2 1.8 0.5
v -0.1 1.7 0.7
v -0.1 1.7 0.6
v -0.1 1.8 0.7
v -0.1 1.8 0.6
v -0.1 1.9 0.7
v -0.1 1.9 0.6
v -0.1 2 0.7
v -0.1 2 0.6
v 0.1 1.6 0.6
v 0.1 1.6 0.5
v 0.1 1.7 0.6
v 0.1 1.8 0.6
v 0.1 1.8 0.5
v 0.3 1.6 0.6
v 0.3 1.6 0.5
v 0.3 1.7 0.6
v 0.3 1.7 0.5
v 0.4 1.3 0.6
v 0.4 1.3 0.5
v 0.4 1.4 0.6
v 0.4 1.4 0.5
v 0.4 1.7 0.7
v 0.4 1.7 0.6
v 0.4 1.8 0.7
v 0.4 1.8 0.6
v 0.4 1.9 0.7
v 0.4 1.9 0.6
v 0.4 2 0.7
v 0.4 2 0.6
v 0.5 1.1 0.5
v 0.5 1.1 0.3
v 0.5 1.4 0.6
v 0.5 1.4 0.5
v 0.5 1.4 0.4
v 0.5 1.4 0.3
v 0.5 1.5 0.5
v 0.5 1.5 0.4
v 0.5 1.6 0.6
v 0.5 1.6 0.5
v 0.5 1.8 0.7
v 0.5 1.8 0.6
v 0.5 1.9 0.7
v 0.5 1.9 0.6
v 0.5 2 0.6
v 0.5 2 -0.6
v 0.5 2.1 0.6
v 0.5 2.1 -0.6
v 0.6 1.1 0.3
v 0.6 1.1 -0.6
v 0.6 1.2 0.1
v 0.6 1.2 -0.1
v 0.6 1.4 0.4
v 0.6 1.4 0.3
v 0.6 1.5 0.5
v 0.6 1.5 0.4
v 0.6 1.5 0.1
v 0.6 1.5 -0.1
v 0.6 1.6 0.6
v 0.6 1.6 0.5
v 0.6 1.8 0.6
v 0.6 1.8 -0.6
v 0.6 1.9 0.6
v 0.6 1.9 -0.6
v 0.6 2 0.6
v 0.6 2 -0.6
v 0.7 1.2 0.1
v 0.7 1.2 -0.1
v 0.7 1.5 0.1
v 0.7 1.5 -0.1
v -0.5 1.8 0.7
v -0.5 1.9 0.7
v -0.4 1.7 0.7
v -0.4 1.8 0.7
v -0.4 1.9 0.7
v -0.4 2 0.7
v -0.3 1.8 0.7
v -0.3 1.9 0.7
v -0.2 1.8 0.7
v -0.2 1.9 0.7
v -0.1 1.7 0.7
v -0.1 1.8 0.7
v -0.1 1.9 0.7
v -0.1 2 0.7
v 0.1 1.7 0.7
v 0.1 1.8 0.7
v 0.1 1.9 0.7
v 0.1 2 0.7
v 0.2 1.8 0.7
v 0.2 1.9 0.7
v 0.3 1.8 0.7
v 0.3 1.9 0.7
v 0.4 1.7 0.7
v 0.4 1.8 0.7
v 0.4 1.9 0.7
v 0.4 2 0.7
v 0.5 1.8 0.7
v 0.5 1.9 0.7
v -0.6 1.6 0.6
v -0.6 1.8 0.6
v -0.6 1.9 0.6
v -0.6 2 0.6
v -0.5 1.3 0.6
v -0.5 1.6 0.6
v -0.5 1.8 0.6
v -0.5 1.9 0.6
v -0.5 2 0.6
v -0.5 2.1 0.6
v -0.4 1.3 0.6
v -0.4 1.7 0.6
v -0.4 1.8 0.6
v -0.4 1.9 0.6
v -0.4 2 0.6
v -0.3 1.6 0.6
v -0.3 1.7 0.6
v -0.2 1.6 0.6
v -0.2 1.7 0.6
v -0.1 1.6 0.6
v -0.1 1.7 0.6
v -0.1 1.9 0.6
v -0.1 2 0.6
v 0 1.7 0.6
v 0 1.8 0.6
v 0.1 1.6 0.6
v 0.1 1.7 0.6
v 0.1 1.8 0.6
v 0.1 1.9 0.6
v 0.1 2 0.6
v 0.2 1.6 0.6
v 0.2 1.7 0.6
v 0.3 1.3 0.6
v 0.3 1.4 0.6
v 0.3 1.6 0.6
v 0.3 1.7 0.6
v 0.4 1.3 0.6
v 0.4 1.4 0.6
v 0.4 1.7 0.6
v 0.4 1.8 0.6
v 0.4 1.9 0.6
v 0.4 2 0.6
v 0.5 1.4 0.6
v 0.5 1.6 0.6
v 0.5 1.8 0.6
v 0.5 1.9 0.6
v 0.5 2 0.6
v 0.5 2.1 0.6
v 0.6 1.6 0.6
v 0.6 1.8 0.6
v 0.6 1.9 0.6
v 0.6 2 0.6
v -0.6 1.5 0.5
v -0.6 1.6 0.5
v -0.5 1.1 0.5
v -0.5 1.3 0.5
v -0.5 1.5 0.5
v -0.5 1.6 0.5
v -0.4 1.3 0.5
v -0.4 1.4 0.5
v -0.4 1.7 0.5
v -0.3 1.1 0.5
v -0.3 1.4 0.5
v -0.3 1.6 0.5
v -0.3 1.7 0.5
v -0.2 1.4 0.5
v -0.2 1.6 0.5
v -0.2 1.8 0.5
v -0.1 1.4 0.5
v -0.1 1.6 0.5
v -0.1 1.7 0.5
v 0 1.7 0.5
v 0 1.8 0.5
v 0.1 1.4 0.5
v 0.1 1.6 0.5
v 0.1 1.8 0.5
v 0.2 1.4 0.5
v 0.2 1.6 0.5
v 0.2 1.8 0.5
v 0.3 1.1 0.5
v 0.3 1.3 0.5
v 0.3 1.4 0.5
v 0.3 1.6 0.5
v 0.3 1.7 0.5
v 0.4 1.3 0.5
v 0.4 1.4 0.5
v 0.4 1.7 0.5
v 0.5 1.1 0.5
v 0.5 1.4 0.5
v 0.5 1.5 0.5
v 0.5 1.6 0.5
v 0.6 1.5 0.5
v 0.6 1.6 0.5
v -0.6 1.4 0.4
v -0.6 1.5 0.4
v -0.5 1.4 0.4
v -0.5 1.5 0.4
v 0.5 1.4 0.4
v 0.5 1.5 0.4
v 0.6 1.4 0.4
v 0.6 1.5 0.4
v -0.6 1.1 0.3
v -0.6 1.4 0.3
v -0.5 1.1 0.3
v -0.5 1.4 0.3
v 0.5 1.1 0.3
v 0.5 1.4 0.3
v 0.6 1.1 0.3
v 0.6 1.4 0.3
v -0.7 1.2 0.1
v -0.7 1.5 0.1
v -0.6 1.2 0.1
v -0.6 1.5 0.1
v 0.6 1.2 0.1
v 0.6 1.5 0.1
v 0.7 1.2 0.1
v 0.7 1.5 0.1
v -0.2 1.7 0.6
v -0.2 1.8 0.6
v -0.1 1.7 0.6
v -0.1 1.8 0.6
v 0.1 1.7 0.6
v 0.1 1.8 0.6
v 0.2 1.7 0.6
v 0.2 1.8 0.6
v -0.7 1.2 -0.1
v -0.7 1.5 -0.1
v -0.6 1.2 -0.1
v -0.6 1.5 -0.1
v 0.6 1.2 -0.1
v 0.6 1.5 -0.1
v 0.7 1.2 -0.1
v 0.7 1.5 -0.1
v -0.6 1.1 -0.6
v -0.6 1.8 -0.6
v -0.6 1.9 -0.6
v -0.6 2 -0.6
v -0.5 2 -0.6
v -0.5 2.1 -0.6
v 0.5 2 -0.6
v 0.5 2.1 -0.6
v 0.6 1.1 -0.6
v 0.6 1.8 -0.6
v 0.6 1.9 -0.6
v 0.6 2 -0.6
v -0.5 1.1 0.5
v -0.3 1.1 0.5
v 0.3 1.1 0.5
v 0.5 1.1 0.5
v -0.4 1.1 0.4
v -0.3 1.1 0.4
v 0.3 1.1 0.4
v 0.4 1.1 0.4
v -0.6 1.1 0.3
v -0.5 1.1 0.3
v -0.4 1.1 0.3
v 0.4 1.1 0.3
v 0.5 1.1 0.3
v 0.6 1.1 0.3
v -0.5 1.1 -0.4
v 0.5 1.1 -0.4
v -0.6 1.1 -0.6
v 0.6 1.1 -0.6
v -0.7 1.2 0.1
v -0.6 1.2 0.1
v 0.6 1.2 0.1
v 0.7 1.2 0.1
v -0.7 1.2 -0.1
v -0.6 1.2 -0.1
v 0.6 1.2 -0.1
v 0.7 1.2 -0.1
v -0.5 1.3 0.6
v -0.4 1.3 0.6
v 0.3 1.3 0.6
v 0.4 1.3 0.6
v -0.5 1.3 0.5
v -0.4 1.3 0.5
v 0.3 1.3 0.5
v 0.4 1.3 0.5
v 0.4 1.4 0.6
v 0.5 1.4 0.6
v 0.4 1.4 0.5
v 0.5 1.4 0.5
v -0.6 1.4 0.4
v -0.5 1.4 0.4
v 0.5 1.4 0.4
v 0.6 1.4 0.4
v -0.6 1.4 0.3
v -0.5 1.4 0.3
v 0.5 1.4 0.3
v 0.6 1.4 0.3
v -0.6 1.5 0.5
v -0.5 1.5 0.5
v 0.5 1.5 0.5
v 0.6 1.5 0.5
v -0.6 1.5 0.4
v -0.5 1.5 0.4
v 0.5 1.5 0.4
v 0.6 1.5 0.4
v -0.6 1.6 0.6
v -0.5 1.6 0.6
v -0.3 1.6 0.6
v -0.2 1.6 0.6
v -0.1 1.6 0.6
v 0.1 1.6 0.6
v 0.2 1.6 0.6
v 0.3 1.6 0.6
v 0.5 1.6 0.6
v 0.6 1.6 0.6
v -0.6 1.6 0.5
v -0.5 1.6 0.5
v -0.3 1.6 0.5
v -0.2 1.6 0.5
v -0.1 1.6 0.5
v 0.1 1.6 0.5
v 0.2 1.6 0.5
v 0.3 1.6 0.5
v 0.5 1.6 0.5
v 0.6 1.6 0.5
v -0.4 1.7 0.7
v -0.1 1.7 0.7
v 0.1 1.7 0.7
v 0.4 1.7 0.7
v -0.4 1.7 0.6
v -0.3 1.7 0.6
v -0.2 1.7 0.6
v -0.1 1.7 0.6
v 0.1 1.7 0.6
v 0.2 1.7 0.6
v 0.3 1.7 0.6
v 0.4 1.7 0.6
v -0.4 1.7 0.5
v -0.3 1.7 0.5
v 0.3 1.7 0.5
v 0.4 1.7 0.5
v -0.5 1.8 0.7
v -0.4 1.8 0.7
v -0.1 1.8 0.7
v 0.1 1.8 0.7
v 0.4 1.8 0.7
v 0.5 1.8 0.7
v -0.5 1.8 0.6
v -0.4 1.8 0.6
v -0.2 1.8 0.6
v -0.1 1.8 0.6
v 0 1.8 0.6
v 0.1 1.8 0.6
v 0.2 1.8 0.6
v 0.4 1.8 0.6
v 0.5 1.8 0.6
v -0.2 1.8 0.5
v 0 1.8 0.5
v 0.1 1.8 0.5
v 0.2 1.8 0.5
v 0.3 1.4 0.6
v 0.4 1.4 0.6
v 0.3 1.4 0.5
v 0.4 1.4 0.5
v -0.7 1.5 0.1
v -0.6 1.5 0.1
v 0.6 1.5 0.1
v 0.7 1.5 0.1
v -0.7 1.5 -0.1
v -0.6 1.5 -0.1
v 0.6 1.5 -0.1
v 0.7 1.5 -0.1
v -0.1 1.7 0.6
v 0 1.7 0.6
v -0.1 1.7 0.5
v 0 1.7 0.5
v -0.5 1.9 0.7
v -0.4 1.9 0.7
v -0.1 1.9 0.7
v 0.1 1.9 0.7
v 0.4 1.9 0.7
v 0.5 1.9 0.7
v -0.5 1.9 0.6
v -0.4 1.9 0.6
v -0.1 1.9 0.6
v 0.1 1.9 0.6
v 0.4 1.9 0.6
v 0.5 1.9 0.6
v -0.4 2 0.7
v -0.1 2 0.7
v 0.1 2 0.7
v 0.4 2 0.7
v -0.6 2 0.6
v -0.5 2 0.6
v -0.4 2 0.6
v -0.1 2 0.6
v 0.1 2 0.6
v 0.4 2 0.6
v 0.5 2 0.6
v 0.6 2 0.6
v -0.6 2 -0.6
v -0.5 2 -0.6
v 0.5 2 -0.6
v 0.6 2 -0.6
v -0.5 2.1 0.6
v 0.5 2.1 0.6
v -0.5 2.1 -0.6
v 0.5 2.1 -0.6

# faces
f 3/5/1 2/5/1 1/5/1
f 4/5/1 2/5/1 3/5/1
f 7/1/1 6/1/1 5/1/1
f 8/1/1 6/1/1 7/1/1
f 10/1/1 7/1/1 5/1/1
f 12/1/1 10/1/1 9/1/1
f 13/1/1 7/1/1 10/1/1
f 13/1/1 10/1/1 12/1/1
f 14/1/1 6/1/1 8/1/1
f 16/1/1 13/1/1 12/1/1
f 16/1/1 14/1/1 13/1/1
f 16/1/1 12/1/1 11/1/1
f 17/1/1 16/1/1 15/1/1
f 18/1/1 6/1/1 14/1/1
f 18/1/1 16/1/1 17/1/1
f 18/1/1 14/1/1 16/1/1
f 19/4/1 18/4/1 17/4/1
f 20/4/1 18/4/1 19/4/1
f 21/1/1 20/1/1 19/1/1
f 22/1/1 20/1/1 21/1/1
f 26/7/1 24/7/1 23/7/1
f 27/7/1 24/7/1 26/7/1
f 27/1/1 26/1/1 25/1/1
f 28/7/1 24/7/1 27/7/1
f 29/7/1 24/7/1 28/7/1
f 30/1/1 27/1/1 25/1/1
f 30/1/1 28/1/1 27/1/1
f 31/1/1 28/1/1 30/1/1
f 32/1/1 30/1/1 25/1/1
f 33/1/1 30/1/1 32/1/1
f 36/4/1 35/4/1 34/4/1
f 37/4/1 35/4/1 36/4/1
f 40/1/1 39/1/1 38/1/1
f 41/1/1 39/1/1 40/1/1
f 44/2/1 43/2/1 42/2/1
f 45/2/1 43/2/1 44/2/1
f 48/2/1 47/2/1 46/2/1
f 49/2/1 47/2/1 48/2/1
f 52/1/1 51/1/1 50/1/1
f 53/1/1 51/1/1 52/1/1
f 56/1/1 55/1/1 54/1/1
f 57/1/1 55/1/1 56/1/1
f 60/1/1 59/1/1 58/1/1
f 61/1/1 59/1/1 60/1/1
f 64/2/1 63/2/1 62/2/1
f 65/2/1 63/2/1 64/2/1
f 68/2/1 67/2/1 66/2/1
f 69/2/1 67/2/1 68/2/1
f 72/1/1 71/1/1 70/1/1
f 73/1/1 71/1/1 72/1/1
f 74/1/1 71/1/1 73/1/1
f 77/1/1 76/1/1 75/1/1
f 78/1/1 76/1/1 77/1/1
f 81/1/1 80/1/1 79/1/1
f 82/1/1 80/1/1 81/1/1
f 83/1/2 84/1/2 85/1/2
f 83/1/2 85/1/2 86/1/2
f 86/1/2 85/1/2 87/1/2
f 88/1/2 89/1/2 90/1/2
f 90/1/2 89/1/2 91/1/2
f 91/1/2 89/1/2 92/1/2
f 93/2/2 94/2/2 95/2/2
f 95/2/2 94/2/2 96/2/2
f 97/2/2 98/2/2 99/2/2
f 99/2/2 98/2/2 100/2/2
f 101/1/2 102/1/2 103/1/2
f 103/1/2 102/1/2 104/1/2
f 104/1/2 102/1/2 105/1/2
f 106/1/2 107/1/2 108/1/2
f 108/1/2 107/1/2 109/1/2
f 110/1/2 111/1/2 112/1/2
f 112/1/2 111/1/2 113/1/2
f 114/2/2 115/2/2 116/2/2
f 116/2/2 115/2/2 117/2/2
f 118/2/2 119/2/2 120/2/2
f 120/2/2 119/2/2 121/2/2
f 122/7/2 123/7/2 125/7/2
f 125/7/2 123/7/2 126/7/2
f 126/7/2 123/7/2 127/7/2
f 124/1/2 125/1/2 128/1/2
f 125/5/2 126/5/2 128/5/2
f 128/5/2 126/5/2 129/5/2
f 124/1/2 128/1/2 130/1/2
f 130/1/2 128/1/2 131/1/2
f 132/4/2 133/4/2 134/4/2
f 134/4/2 133/4/2 135/4/2
f 136/1/2 137/1/2 138/1/2
f 138/1/2 137/1/2 139/1/2
f 140/1/2 141/1/2 142/1/2
f 142/1/2 141/1/2 143/1/2
f 140/1/2 142/1/2 145/1/2
f 144/1/2 145/1/2 147/1/2
f 145/1/2 142/1/2 148/1/2
f 147/1/2 145/1/2 148/1/2
f 143/1/2 141/1/2 149/1/2
f 147/1/2 148/1/2 151/1/2
f 148/1/2 149/1/2 151/1/2
f 146/1/2 147/1/2 151/1/2
f 150/1/2 151/1/2 152/1/2
f 149/1/2 141/1/2 153/1/2
f 152/1/2 151/1/2 153/1/2
f 151/1/2 149/1/2 153/1/2
f 152/4/2 153/4/2 154/4/2
f 154/4/2 153/4/2 155/4/2
f 154/1/2 155/1/2 156/1/2
f 156/1/2 155/1/2 157/1/2
f 158/5/2 159/5/2 160/5/2
f 160/5/2 159/5/2 161/5/2
f 165/4/3 163/4/3 162/4/3
f 166/4/3 163/4/3 165/4/3
f 168/2/3 165/2/3 164/2/3
f 168/2/3 167/2/3 166/2/3
f 168/2/3 166/2/3 165/2/3
f 169/2/3 167/2/3 168/2/3
f 170/2/3 168/2/3 164/2/3
f 170/3/3 169/3/3 168/3/3
f 171/2/3 167/2/3 169/2/3
f 171/3/3 169/3/3 170/3/3
f 172/2/3 170/2/3 164/2/3
f 172/2/3 171/2/3 170/2/3
f 173/2/3 171/2/3 172/2/3
f 174/2/3 167/2/3 171/2/3
f 174/2/3 171/2/3 173/2/3
f 175/2/3 167/2/3 174/2/3
f 177/4/3 174/4/3 173/4/3
f 178/4/3 174/4/3 177/4/3
f 180/2/3 177/2/3 176/2/3
f 180/2/3 179/2/3 178/2/3
f 180/2/3 178/2/3 177/2/3
f 181/2/3 179/2/3 180/2/3
f 182/2/3 180/2/3 176/2/3
f 182/3/3 181/3/3 180/3/3
f 183/2/3 179/2/3 181/2/3
f 183/3/3 181/3/3 182/3/3
f 184/2/3 182/2/3 176/2/3
f 184/2/3 183/2/3 182/2/3
f 185/2/3 183/2/3 184/2/3
f 186/2/3 179/2/3 183/2/3
f 186/2/3 183/2/3 185/2/3
f 187/2/3 179/2/3 186/2/3
f 188/4/3 186/4/3 185/4/3
f 189/4/3 186/4/3 188/4/3
f 195/1/3 191/1/3 190/1/3
f 196/4/3 192/4/3 191/4/3
f 196/1/3 191/1/3 195/1/3
f 197/1/3 193/1/3 192/1/3
f 197/4/3 192/4/3 196/4/3
f 198/1/3 193/1/3 197/1/3
f 200/1/3 196/1/3 195/1/3
f 200/1/3 195/1/3 194/1/3
f 201/1/3 196/1/3 200/1/3
f 202/1/3 196/1/3 201/1/3
f 203/1/3 199/1/3 198/1/3
f 203/1/3 198/1/3 197/1/3
f 204/1/3 199/1/3 203/1/3
f 207/1/3 206/1/3 205/1/3
f 208/1/3 206/1/3 207/1/3
f 212/1/3 199/1/3 204/1/3
f 213/1/3 210/1/3 209/1/3
f 215/1/3 213/1/3 209/1/3
f 215/1/3 214/1/3 213/1/3
f 216/1/3 214/1/3 215/1/3
f 217/1/3 214/1/3 216/1/3
f 218/1/3 212/1/3 211/1/3
f 219/1/3 199/1/3 212/1/3
f 219/1/3 212/1/3 218/1/3
f 224/1/3 221/1/3 220/1/3
f 225/1/3 221/1/3 224/1/3
f 226/1/3 223/1/3 222/1/3
f 227/1/3 223/1/3 226/1/3
f 231/1/3 199/1/3 219/1/3
f 232/1/3 229/1/3 228/1/3
f 232/1/3 228/1/3 227/1/3
f 233/1/3 229/1/3 232/1/3
f 234/1/3 229/1/3 233/1/3
f 235/1/3 231/1/3 230/1/3
f 236/1/3 199/1/3 231/1/3
f 236/1/3 231/1/3 235/1/3
f 237/1/3 199/1/3 236/1/3
f 238/1/3 234/1/3 233/1/3
f 239/4/3 235/4/3 234/4/3
f 239/1/3 234/1/3 238/1/3
f 240/1/3 236/1/3 235/1/3
f 240/4/3 235/4/3 239/4/3
f 241/1/3 236/1/3 240/1/3
f 246/1/3 243/1/3 242/1/3
f 247/1/3 243/1/3 246/1/3
f 248/7/3 245/7/3 244/7/3
f 251/7/3 249/7/3 248/7/3
f 251/7/3 248/7/3 244/7/3
f 252/5/3 250/5/3 249/5/3
f 252/7/3 249/7/3 251/7/3
f 253/5/3 250/5/3 252/5/3
f 254/5/3 250/5/3 253/5/3
f 255/5/3 252/5/3 251/5/3
f 255/5/3 253/5/3 252/5/3
f 256/5/3 253/5/3 255/5/3
f 258/6/3 256/6/3 255/6/3
f 258/5/3 255/5/3 251/5/3
f 259/5/3 257/5/3 256/5/3
f 259/6/3 256/6/3 258/6/3
f 260/5/3 257/5/3 259/5/3
f 261/5/3 257/5/3 260/5/3
f 262/5/3 257/5/3 261/5/3
f 263/5/3 258/5/3 251/5/3
f 263/5/3 259/5/3 258/5/3
f 264/5/3 259/5/3 263/5/3
f 266/5/3 263/5/3 251/5/3
f 266/6/3 264/6/3 263/6/3
f 267/5/3 265/5/3 264/5/3
f 267/6/3 264/6/3 266/6/3
f 268/5/3 265/5/3 267/5/3
f 269/5/3 266/5/3 251/5/3
f 269/5/3 267/5/3 266/5/3
f 270/5/3 267/5/3 269/5/3
f 271/5/3 267/5/3 270/5/3
f 272/5/3 267/5/3 271/5/3
f 274/7/3 270/7/3 269/7/3
f 275/5/3 273/5/3 272/5/3
f 275/5/3 272/5/3 271/5/3
f 276/5/3 273/5/3 275/5/3
f 277/7/3 274/7/3 269/7/3
f 277/7/3 275/7/3 274/7/3
f 278/7/3 275/7/3 277/7/3
f 281/1/3 280/1/3 279/1/3
f 282/1/3 280/1/3 281/1/3
f 285/1/3 284/1/3 283/1/3
f 286/1/3 284/1/3 285/1/3
f 289/1/3 288/1/3 287/1/3
f 290/1/3 288/1/3 289/1/3
f 293/1/3 292/1/3 291/1/3
f 294/1/3 292/1/3 293/1/3
f 297/1/3 296/1/3 295/1/3
f 298/1/3 296/1/3 297/1/3
f 301/5/3 300/5/3 299/5/3
f 302/5/3 300/5/3 301/5/3
f 305/5/3 304/5/3 303/5/3
f 306/5/3 304/5/3 305/5/3
f 307/2/4 308/2/4 309/2/4
f 309/2/4 308/2/4 310/2/4
f 311/2/4 312/2/4 313/2/4
f 313/2/4 312/2/4 314/2/4
f 315/5/4 316/5/4 317/5/4
f 317/5/4 316/5/4 318/5/4
f 319/5/4 320/5/4 321/5/4
f 321/5/4 320/5/4 322/5/4
f 325/1/4 326/1/4 327/1/4
f 325/1/4 327/1/4 329/1/4
f 327/1/4 328/1/4 329/1/4
f 329/1/4 328/1/4 330/1/4
f 323/1/4 324/1/4 331/1/4
f 324/4/4 325/4/4 332/4/4
f 331/1/4 324/1/4 332/1/4
f 325/1/4 329/1/4 333/1/4
f 332/4/4 325/4/4 333/4/4
f 333/1/4 329/1/4 334/1/4
f 339/7/5 336/7/5 335/7/5
f 340/5/5 337/5/5 336/5/5
f 340/7/5 336/7/5 339/7/5
f 341/7/5 338/7/5 337/7/5
f 341/5/5 337/5/5 340/5/5
f 342/7/5 338/7/5 341/7/5
f 344/7/5 339/7/5 335/7/5
f 345/5/5 340/5/5 339/5/5
f 345/5/5 341/5/5 340/5/5
f 345/7/5 339/7/5 344/7/5
f 345/5/5 342/5/5 341/5/5
f 346/7/5 338/7/5 342/7/5
f 346/5/5 342/5/5 345/5/5
f 347/7/5 338/7/5 346/7/5
f 349/1/5 344/1/5 343/1/5
f 349/5/5 345/5/5 344/5/5
f 349/5/5 347/5/5 346/5/5
f 349/5/5 346/5/5 345/5/5
f 350/1/5 348/1/5 347/1/5
f 350/5/5 347/5/5 349/5/5
f 351/1/5 349/1/5 343/1/5
f 351/1/5 350/1/5 349/1/5
f 352/1/5 348/1/5 350/1/5
f 352/1/5 350/1/5 351/1/5
f 357/5/5 354/5/5 353/5/5
f 358/5/5 354/5/5 357/5/5
f 359/5/5 356/5/5 355/5/5
f 360/5/5 356/5/5 359/5/5
f 365/1/5 362/1/5 361/1/5
f 366/1/5 362/1/5 365/1/5
f 367/1/5 364/1/5 363/1/5
f 368/1/5 364/1/5 367/1/5
f 371/1/5 370/1/5 369/1/5
f 372/1/5 370/1/5 371/1/5
f 377/1/5 374/1/5 373/1/5
f 378/1/5 374/1/5 377/1/5
f 379/1/5 376/1/5 375/1/5
f 380/1/5 376/1/5 379/1/5
f 385/1/5 382/1/5 381/1/5
f 386/1/5 382/1/5 385/1/5
f 387/1/5 384/1/5 383/1/5
f 388/1/5 384/1/5 387/1/5
f 399/1/5 390/1/5 389/1/5
f 400/1/5 390/1/5 399/1/5
f 401/1/5 392/1/5 391/1/5
f 402/1/5 392/1/5 401/1/5
f 403/1/5 394/1/5 393/1/5
f 404/1/5 394/1/5 403/1/5
f 405/1/5 396/1/5 395/1/5
f 406/1/5 396/1/5 405/1/5
f 407/1/5 398/1/5 397/1/5
f 408/1/5 398/1/5 407/1/5
f 413/2/5 410/2/5 409/2/5
f 414/2/5 410/2/5 413/2/5
f 415/2/5 410/2/5 414/2/5
f 416/2/5 410/2/5 415/2/5
f 417/2/5 412/2/5 411/2/5
f 418/2/5 412/2/5 417/2/5
f 419/2/5 412/2/5 418/2/5
f 420/2/5 412/2/5 419/2/5
f 421/1/5 414/1/5 413/1/5
f 422/1/5 414/1/5 421/1/5
f 423/1/5 420/1/5 419/1/5
f 424/1/5 420/1/5 423/1/5
f 431/4/5 426/4/5 425/4/5
f 432/4/5 426/4/5 431/4/5
f 434/4/5 428/4/5 427/4/5
f 435/4/5 428/4/5 434/4/5
f 436/4/5 428/4/5 435/4/5
f 438/4/5 430/4/5 429/4/5
f 439/4/5 430/4/5 438/4/5
f 440/1/5 434/1/5 433/1/5
f 440/1/5 435/1/5 434/1/5
f 441/1/5 435/1/5 440/1/5
f 442/1/5 437/1/5 436/1/5
f 443/1/5 437/1/5 442/1/5
f 444/1/6 445/1/6 446/1/6
f 446/1/6 445/1/6 447/1/6
f 448/5/6 449/5/6 452/5/6
f 452/5/6 449/5/6 453/5/6
f 450/5/6 451/5/6 454/5/6
f 454/5/6 451/5/6 455/5/6
f 456/1/6 457/1/6 458/1/6
f 458/1/6 457/1/6 459/1/6
f 460/4/6 461/4/6 466/4/6
f 466/4/6 461/4/6 467/4/6
f 462/4/6 463/4/6 468/4/6
f 468/4/6 463/4/6 469/4/6
f 464/4/6 465/4/6 470/4/6
f 470/4/6 465/4/6 471/4/6
f 472/2/6 473/2/6 478/2/6
f 478/2/6 473/2/6 479/2/6
f 474/2/6 475/2/6 480/2/6
f 480/2/6 475/2/6 481/2/6
f 476/1/6 477/1/6 484/1/6
f 484/1/6 477/1/6 485/1/6
f 482/1/6 483/1/6 486/1/6
f 486/1/6 483/1/6 487/1/6
f 488/1/6 489/1/6 490/1/6
f 490/1/6 489/1/6 491/1/6
