# MagicaVoxel @ Ephtracy

# group
o 

# material
mtllib TreasureBox_close.mtl
usemtl palette

# normals
vn -1 0 0
vn 1 0 0
vn 0 0 1
vn 0 0 -1
vn 0 -1 0
vn 0 1 0

# texcoords
vt 0.892578 0.5
vt 0.896484 0.5

# verts
v -1.2 0 0.7
v -1.2 0 0.4
v -1.2 0 -0.4
v -1.2 0 -0.7
v -1.2 0.1 0.7
v -1.2 0.1 0.4
v -1.2 0.1 -0.4
v -1.2 0.1 -0.7
v -1.1 0 0.4
v -1.1 0 -0.4
v -1.1 0.1 0.6
v -1.1 0.1 0.5
v -1.1 0.1 0.4
v -1.1 0.1 -0.4
v -1.1 0.1 -0.5
v -1.1 0.1 -0.6
v -1.1 0.9 0.5
v -1.1 0.9 -0.5
v -1.1 1 0.5
v -1.1 1 -0.5
v -1.1 1.3 0.5
v -1.1 1.3 0.4
v -1.1 1.3 -0.4
v -1.1 1.3 -0.5
v -1.1 1.4 0.6
v -1.1 1.4 0.5
v -1.1 1.4 0.4
v -1.1 1.4 0.3
v -1.1 1.4 -0.3
v -1.1 1.4 -0.4
v -1.1 1.4 -0.5
v -1.1 1.4 -0.6
v -1.1 1.5 0.5
v -1.1 1.5 0.4
v -1.1 1.5 0.3
v -1.1 1.5 0.2
v -1.1 1.5 -0.2
v -1.1 1.5 -0.3
v -1.1 1.5 -0.4
v -1.1 1.5 -0.5
v -1.1 1.6 0.4
v -1.1 1.6 0.3
v -1.1 1.6 0.2
v -1.1 1.6 -0.2
v -1.1 1.6 -0.3
v -1.1 1.6 -0.4
v -1.1 1.7 0.3
v -1.1 1.7 -0.3
v -1 0.1 0.5
v -1 0.1 -0.5
v -1 0.9 0.5
v -1 0.9 -0.5
v -1 1 0.5
v -1 1 -0.5
v -1 1.3 0.5
v -1 1.3 0.4
v -1 1.3 -0.4
v -1 1.3 -0.5
v -1 1.4 0.4
v -1 1.4 0.3
v -1 1.4 -0.3
v -1 1.4 -0.4
v -1 1.5 0.3
v -1 1.5 0.2
v -1 1.5 -0.2
v -1 1.5 -0.3
v -1 1.6 0.2
v -1 1.6 -0.2
v -0.4 0.1 0.6
v -0.4 0.1 0.5
v -0.4 0.1 -0.5
v -0.4 0.1 -0.6
v -0.4 0.9 0.6
v -0.4 0.9 0.5
v -0.4 0.9 -0.5
v -0.4 0.9 -0.6
v -0.4 1 0.6
v -0.4 1 0.5
v -0.4 1 -0.5
v -0.4 1 -0.6
v -0.4 1.4 0.5
v -0.4 1.4 0.4
v -0.4 1.4 -0.4
v -0.4 1.4 -0.5
v -0.4 1.5 0.6
v -0.4 1.5 0.5
v -0.4 1.5 0.4
v -0.4 1.5 0.3
v -0.4 1.5 -0.3
v -0.4 1.5 -0.4
v -0.4 1.5 -0.5
v -0.4 1.5 -0.6
v -0.4 1.6 0.5
v -0.4 1.6 0.4
v -0.4 1.6 0.3
v -0.4 1.6 -0.3
v -0.4 1.6 -0.4
v -0.4 1.6 -0.5
v -0.4 1.7 0.4
v -0.4 1.7 -0.4
v -0.2 0.7 0.6
v -0.2 0.7 0.5
v -0.2 0.8 0.6
v -0.2 0.8 0.5
v -0.0999999 0.5 0.6
v -0.0999999 0.5 0.5
v -0.0999999 0.7 0.6
v -0.0999999 0.7 0.5
v 0.3 0.1 0.6
v 0.3 0.1 0.5
v 0.3 0.1 -0.5
v 0.3 0.1 -0.6
v 0.3 0.9 0.6
v 0.3 0.9 0.5
v 0.3 0.9 -0.5
v 0.3 0.9 -0.6
v 0.3 1 0.6
v 0.3 1 0.5
v 0.3 1 -0.5
v 0.3 1 -0.6
v 0.3 1.4 0.5
v 0.3 1.4 0.4
v 0.3 1.4 -0.4
v 0.3 1.4 -0.5
v 0.3 1.5 0.6
v 0.3 1.5 0.5
v 0.3 1.5 0.4
v 0.3 1.5 0.3
v 0.3 1.5 -0.3
v 0.3 1.5 -0.4
v 0.3 1.5 -0.5
v 0.3 1.5 -0.6
v 0.3 1.6 0.5
v 0.3 1.6 0.4
v 0.3 1.6 0.3
v 0.3 1.6 -0.3
v 0.3 1.6 -0.4
v 0.3 1.6 -0.5
v 0.3 1.7 0.4
v 0.3 1.7 -0.4
v 0.9 0 0.7
v 0.9 0 0.6
v 0.9 0 -0.6
v 0.9 0 -0.7
v 0.9 0.1 0.7
v 0.9 0.1 0.6
v 0.9 0.1 0.5
v 0.9 0.1 0.4
v 0.9 0.1 -0.4
v 0.9 0.1 -0.5
v 0.9 0.1 -0.6
v 0.9 0.1 -0.7
v 0.9 0.9 0.6
v 0.9 0.9 0.5
v 0.9 0.9 -0.5
v 0.9 0.9 -0.6
v 0.9 1 0.6
v 0.9 1 0.5
v 0.9 1 -0.5
v 0.9 1 -0.6
v 0.9 1.3 0.4
v 0.9 1.3 0.3
v 0.9 1.3 -0.3
v 0.9 1.3 -0.4
v 0.9 1.4 0.6
v 0.9 1.4 0.5
v 0.9 1.4 0.4
v 0.9 1.4 0.3
v 0.9 1.4 0.2
v 0.9 1.4 -0.2
v 0.9 1.4 -0.3
v 0.9 1.4 -0.4
v 0.9 1.4 -0.5
v 0.9 1.4 -0.6
v 0.9 1.5 0.5
v 0.9 1.5 0.4
v 0.9 1.5 0.3
v 0.9 1.5 0.2
v 0.9 1.5 -0.2
v 0.9 1.5 -0.3
v 0.9 1.5 -0.4
v 0.9 1.5 -0.5
v 0.9 1.6 0.4
v 0.9 1.6 0.3
v 0.9 1.6 -0.3
v 0.9 1.6 -0.4
v 0.9 1.7 0.3
v 0.9 1.7 -0.3
v -0.9 0 0.7
v -0.9 0 0.6
v -0.9 0 -0.6
v -0.9 0 -0.7
v -0.9 0.1 0.7
v -0.9 0.1 0.6
v -0.9 0.1 0.5
v -0.9 0.1 0.4
v -0.9 0.1 -0.4
v -0.9 0.1 -0.5
v -0.9 0.1 -0.6
v -0.9 0.1 -0.7
v -0.9 0.9 0.6
v -0.9 0.9 0.5
v -0.9 0.9 -0.5
v -0.9 0.9 -0.6
v -0.9 1 0.6
v -0.9 1 0.5
v -0.9 1 -0.5
v -0.9 1 -0.6
v -0.9 1.3 0.4
v -0.9 1.3 0.3
v -0.9 1.3 -0.3
v -0.9 1.3 -0.4
v -0.9 1.4 0.6
v -0.9 1.4 0.5
v -0.9 1.4 0.4
v -0.9 1.4 0.3
v -0.9 1.4 0.2
v -0.9 1.4 -0.2
v -0.9 1.4 -0.3
v -0.9 1.4 -0.4
v -0.9 1.4 -0.5
v -0.9 1.4 -0.6
v -0.9 1.5 0.5
v -0.9 1.5 0.4
v -0.9 1.5 0.3
v -0.9 1.5 0.2
v -0.9 1.5 -0.2
v -0.9 1.5 -0.3
v -0.9 1.5 -0.4
v -0.9 1.5 -0.5
v -0.9 1.6 0.4
v -0.9 1.6 0.3
v -0.9 1.6 -0.3
v -0.9 1.6 -0.4
v -0.9 1.7 0.3
v -0.9 1.7 -0.3
v -0.3 0.1 0.6
v -0.3 0.1 0.5
v -0.3 0.1 -0.5
v -0.3 0.1 -0.6
v -0.3 0.9 0.6
v -0.3 0.9 0.5
v -0.3 0.9 -0.5
v -0.3 0.9 -0.6
v -0.3 1 0.6
v -0.3 1 0.5
v -0.3 1 -0.5
v -0.3 1 -0.6
v -0.3 1.4 0.5
v -0.3 1.4 0.4
v -0.3 1.4 -0.4
v -0.3 1.4 -0.5
v -0.3 1.5 0.6
v -0.3 1.5 0.5
v -0.3 1.5 0.4
v -0.3 1.5 0.3
v -0.3 1.5 -0.3
v -0.3 1.5 -0.4
v -0.3 1.5 -0.5
v -0.3 1.5 -0.6
v -0.3 1.6 0.5
v -0.3 1.6 0.4
v -0.3 1.6 0.3
v -0.3 1.6 -0.3
v -0.3 1.6 -0.4
v -0.3 1.6 -0.5
v -0.3 1.7 0.4
v -0.3 1.7 -0.4
v 0.1 0.5 0.6
v 0.1 0.5 0.5
v 0.1 0.7 0.6
v 0.1 0.7 0.5
v 0.2 0.7 0.6
v 0.2 0.7 0.5
v 0.2 0.8 0.6
v 0.2 0.8 0.5
v 0.4 0.1 0.6
v 0.4 0.1 0.5
v 0.4 0.1 -0.5
v 0.4 0.1 -0.6
v 0.4 0.9 0.6
v 0.4 0.9 0.5
v 0.4 0.9 -0.5
v 0.4 0.9 -0.6
v 0.4 1 0.6
v 0.4 1 0.5
v 0.4 1 -0.5
v 0.4 1 -0.6
v 0.4 1.4 0.5
v 0.4 1.4 0.4
v 0.4 1.4 -0.4
v 0.4 1.4 -0.5
v 0.4 1.5 0.6
v 0.4 1.5 0.5
v 0.4 1.5 0.4
v 0.4 1.5 0.3
v 0.4 1.5 -0.3
v 0.4 1.5 -0.4
v 0.4 1.5 -0.5
v 0.4 1.5 -0.6
v 0.4 1.6 0.5
v 0.4 1.6 0.4
v 0.4 1.6 0.3
v 0.4 1.6 -0.3
v 0.4 1.6 -0.4
v 0.4 1.6 -0.5
v 0.4 1.7 0.4
v 0.4 1.7 -0.4
v 1 0.1 0.5
v 1 0.1 -0.5
v 1 0.9 0.5
v 1 0.9 -0.5
v 1 1 0.5
v 1 1 -0.5
v 1 1.3 0.5
v 1 1.3 0.4
v 1 1.3 -0.4
v 1 1.3 -0.5
v 1 1.4 0.4
v 1 1.4 0.3
v 1 1.4 -0.3
v 1 1.4 -0.4
v 1 1.5 0.3
v 1 1.5 0.2
v 1 1.5 -0.2
v 1 1.5 -0.3
v 1 1.6 0.2
v 1 1.6 -0.2
v 1.1 0 0.4
v 1.1 0 -0.4
v 1.1 0.1 0.6
v 1.1 0.1 0.5
v 1.1 0.1 0.4
v 1.1 0.1 -0.4
v 1.1 0.1 -0.5
v 1.1 0.1 -0.6
v 1.1 0.9 0.5
v 1.1 0.9 -0.5
v 1.1 1 0.5
v 1.1 1 -0.5
v 1.1 1.3 0.5
v 1.1 1.3 0.4
v 1.1 1.3 -0.4
v 1.1 1.3 -0.5
v 1.1 1.4 0.6
v 1.1 1.4 0.5
v 1.1 1.4 0.4
v 1.1 1.4 0.3
v 1.1 1.4 -0.3
v 1.1 1.4 -0.4
v 1.1 1.4 -0.5
v 1.1 1.4 -0.6
v 1.1 1.5 0.5
v 1.1 1.5 0.4
v 1.1 1.5 0.3
v 1.1 1.5 0.2
v 1.1 1.5 -0.2
v 1.1 1.5 -0.3
v 1.1 1.5 -0.4
v 1.1 1.5 -0.5
v 1.1 1.6 0.4
v 1.1 1.6 0.3
v 1.1 1.6 0.2
v 1.1 1.6 -0.2
v 1.1 1.6 -0.3
v 1.1 1.6 -0.4
v 1.1 1.7 0.3
v 1.1 1.7 -0.3
v 1.2 0 0.7
v 1.2 0 0.4
v 1.2 0 -0.4
v 1.2 0 -0.7
v 1.2 0.1 0.7
v 1.2 0.1 0.4
v 1.2 0.1 -0.4
v 1.2 0.1 -0.7
v -1.2 0 0.7
v -1.2 0.1 0.7
v -0.9 0 0.7
v -0.9 0.1 0.7
v 0.9 0 0.7
v 0.9 0.1 0.7
v 1.2 0 0.7
v 1.2 0.1 0.7
v -1.1 0.1 0.6
v -1.1 1.4 0.6
v -0.9 0 0.6
v -0.9 0.1 0.6
v -0.9 0.9 0.6
v -0.9 1 0.6
v -0.9 1.4 0.6
v -0.4 0.1 0.6
v -0.4 0.9 0.6
v -0.4 1 0.6
v -0.4 1.5 0.6
v -0.3 0.1 0.6
v -0.3 0.9 0.6
v -0.3 1 0.6
v -0.3 1.5 0.6
v -0.2 0.7 0.6
v -0.2 0.8 0.6
v -0.0999999 0.5 0.6
v -0.0999999 0.7 0.6
v 0.1 0.5 0.6
v 0.1 0.7 0.6
v 0.2 0.7 0.6
v 0.2 0.8 0.6
v 0.3 0.1 0.6
v 0.3 0.9 0.6
v 0.3 1 0.6
v 0.3 1.5 0.6
v 0.4 0.1 0.6
v 0.4 0.9 0.6
v 0.4 1 0.6
v 0.4 1.5 0.6
v 0.9 0 0.6
v 0.9 0.1 0.6
v 0.9 0.9 0.6
v 0.9 1 0.6
v 0.9 1.4 0.6
v 1.1 0.1 0.6
v 1.1 1.4 0.6
v -1.1 1.4 0.5
v -1.1 1.5 0.5
v -0.9 0.1 0.5
v -0.9 0.9 0.5
v -0.9 1 0.5
v -0.9 1.4 0.5
v -0.9 1.5 0.5
v -0.4 0.1 0.5
v -0.4 0.9 0.5
v -0.4 1 0.5
v -0.4 1.4 0.5
v -0.4 1.5 0.5
v -0.4 1.6 0.5
v -0.3 0.1 0.5
v -0.3 0.9 0.5
v -0.3 1 0.5
v -0.3 1.4 0.5
v -0.3 1.5 0.5
v -0.3 1.6 0.5
v -0.2 0.7 0.5
v -0.2 0.8 0.5
v -0.0999999 0.5 0.5
v -0.0999999 0.7 0.5
v 0.1 0.5 0.5
v 0.1 0.7 0.5
v 0.2 0.7 0.5
v 0.2 0.8 0.5
v 0.3 0.1 0.5
v 0.3 0.9 0.5
v 0.3 1 0.5
v 0.3 1.4 0.5
v 0.3 1.5 0.5
v 0.3 1.6 0.5
v 0.4 0.1 0.5
v 0.4 0.9 0.5
v 0.4 1 0.5
v 0.4 1.4 0.5
v 0.4 1.5 0.5
v 0.4 1.6 0.5
v 0.9 0.1 0.5
v 0.9 0.9 0.5
v 0.9 1 0.5
v 0.9 1.4 0.5
v 0.9 1.5 0.5
v 1.1 1.4 0.5
v 1.1 1.5 0.5
v -1.1 1.5 0.4
v -1.1 1.6 0.4
v -0.9 1.4 0.4
v -0.9 1.5 0.4
v -0.9 1.6 0.4
v -0.4 1.4 0.4
v -0.4 1.5 0.4
v -0.4 1.6 0.4
v -0.4 1.7 0.4
v -0.3 1.4 0.4
v -0.3 1.5 0.4
v -0.3 1.6 0.4
v -0.3 1.7 0.4
v 0.3 1.4 0.4
v 0.3 1.5 0.4
v 0.3 1.6 0.4
v 0.3 1.7 0.4
v 0.4 1.4 0.4
v 0.4 1.5 0.4
v 0.4 1.6 0.4
v 0.4 1.7 0.4
v 0.9 1.4 0.4
v 0.9 1.5 0.4
v 0.9 1.6 0.4
v 1.1 1.5 0.4
v 1.1 1.6 0.4
v -1.1 1.6 0.3
v -1.1 1.7 0.3
v -0.9 1.5 0.3
v -0.9 1.6 0.3
v -0.9 1.7 0.3
v -0.4 1.5 0.3
v -0.4 1.6 0.3
v -0.3 1.5 0.3
v -0.3 1.6 0.3
v 0.3 1.5 0.3
v 0.3 1.6 0.3
v 0.4 1.5 0.3
v 0.4 1.6 0.3
v 0.9 1.5 0.3
v 0.9 1.6 0.3
v 0.9 1.7 0.3
v 1.1 1.6 0.3
v 1.1 1.7 0.3
v -1.1 1.5 -0.2
v -1.1 1.6 -0.2
v -1 1.5 -0.2
v -1 1.6 -0.2
v -0.9 1.4 -0.2
v -0.9 1.5 -0.2
v 0.9 1.4 -0.2
v 0.9 1.5 -0.2
v 1 1.5 -0.2
v 1 1.6 -0.2
v 1.1 1.5 -0.2
v 1.1 1.6 -0.2
v -1.1 1.4 -0.3
v -1.1 1.5 -0.3
v -1 1.4 -0.3
v -1 1.5 -0.3
v -0.9 1.3 -0.3
v -0.9 1.4 -0.3
v 0.9 1.3 -0.3
v 0.9 1.4 -0.3
v 1 1.4 -0.3
v 1 1.5 -0.3
v 1.1 1.4 -0.3
v 1.1 1.5 -0.3
v -1.2 0 -0.4
v -1.2 0.1 -0.4
v -1.1 0 -0.4
v -1.1 0.1 -0.4
v -1.1 1.3 -0.4
v -1.1 1.4 -0.4
v -1 1.3 -0.4
v -1 1.4 -0.4
v -0.9 0.1 -0.4
v -0.9 1.3 -0.4
v 0.9 0.1 -0.4
v 0.9 1.3 -0.4
v 1 1.3 -0.4
v 1 1.4 -0.4
v 1.1 0 -0.4
v 1.1 0.1 -0.4
v 1.1 1.3 -0.4
v 1.1 1.4 -0.4
v 1.2 0 -0.4
v 1.2 0.1 -0.4
v -1.1 0.1 -0.5
v -1.1 0.9 -0.5
v -1.1 1 -0.5
v -1.1 1.3 -0.5
v -1 0.1 -0.5
v -1 0.9 -0.5
v -1 1 -0.5
v -1 1.3 -0.5
v 1 0.1 -0.5
v 1 0.9 -0.5
v 1 1 -0.5
v 1 1.3 -0.5
v 1.1 0.1 -0.5
v 1.1 0.9 -0.5
v 1.1 1 -0.5
v 1.1 1.3 -0.5
v -1.1 0.1 0.5
v -1.1 0.9 0.5
v -1.1 1 0.5
v -1.1 1.3 0.5
v -1 0.1 0.5
v -1 0.9 0.5
v -1 1 0.5
v -1 1.3 0.5
v 1 0.1 0.5
v 1 0.9 0.5
v 1 1 0.5
v 1 1.3 0.5
v 1.1 0.1 0.5
v 1.1 0.9 0.5
v 1.1 1 0.5
v 1.1 1.3 0.5
v -1.2 0 0.4
v -1.2 0.1 0.4
v -1.1 0 0.4
v -1.1 0.1 0.4
v -1.1 1.3 0.4
v -1.1 1.4 0.4
v -1 1.3 0.4
v -1 1.4 0.4
v -0.9 0.1 0.4
v -0.9 1.3 0.4
v 0.9 0.1 0.4
v 0.9 1.3 0.4
v 1 1.3 0.4
v 1 1.4 0.4
v 1.1 0 0.4
v 1.1 0.1 0.4
v 1.1 1.3 0.4
v 1.1 1.4 0.4
v 1.2 0 0.4
v 1.2 0.1 0.4
v -1.1 1.4 0.3
v -1.1 1.5 0.3
v -1 1.4 0.3
v -1 1.5 0.3
v -0.9 1.3 0.3
v -0.9 1.4 0.3
v 0.9 1.3 0.3
v 0.9 1.4 0.3
v 1 1.4 0.3
v 1 1.5 0.3
v 1.1 1.4 0.3
v 1.1 1.5 0.3
v -1.1 1.5 0.2
v -1.1 1.6 0.2
v -1 1.5 0.2
v -1 1.6 0.2
v -0.9 1.4 0.2
v -0.9 1.5 0.2
v 0.9 1.4 0.2
v 0.9 1.5 0.2
v 1 1.5 0.2
v 1 1.6 0.2
v 1.1 1.5 0.2
v 1.1 1.6 0.2
v -1.1 1.6 -0.3
v -1.1 1.7 -0.3
v -0.9 1.5 -0.3
v -0.9 1.6 -0.3
v -0.9 1.7 -0.3
v -0.4 1.5 -0.3
v -0.4 1.6 -0.3
v -0.3 1.5 -0.3
v -0.3 1.6 -0.3
v 0.3 1.5 -0.3
v 0.3 1.6 -0.3
v 0.4 1.5 -0.3
v 0.4 1.6 -0.3
v 0.9 1.5 -0.3
v 0.9 1.6 -0.3
v 0.9 1.7 -0.3
v 1.1 1.6 -0.3
v 1.1 1.7 -0.3
v -1.1 1.5 -0.4
v -1.1 1.6 -0.4
v -0.9 1.4 -0.4
v -0.9 1.5 -0.4
v -0.9 1.6 -0.4
v -0.4 1.4 -0.4
v -0.4 1.5 -0.4
v -0.4 1.6 -0.4
v -0.4 1.7 -0.4
v -0.3 1.4 -0.4
v -0.3 1.5 -0.4
v -0.3 1.6 -0.4
v -0.3 1.7 -0.4
v 0.3 1.4 -0.4
v 0.3 1.5 -0.4
v 0.3 1.6 -0.4
v 0.3 1.7 -0.4
v 0.4 1.4 -0.4
v 0.4 1.5 -0.4
v 0.4 1.6 -0.4
v 0.4 1.7 -0.4
v 0.9 1.4 -0.4
v 0.9 1.5 -0.4
v 0.9 1.6 -0.4
v 1.1 1.5 -0.4
v 1.1 1.6 -0.4
v -1.1 1.4 -0.5
v -1.1 1.5 -0.5
v -0.9 0.1 -0.5
v -0.9 0.9 -0.5
v -0.9 1 -0.5
v -0.9 1.4 -0.5
v -0.9 1.5 -0.5
v -0.4 0.1 -0.5
v -0.4 0.9 -0.5
v -0.4 1 -0.5
v -0.4 1.4 -0.5
v -0.4 1.5 -0.5
v -0.4 1.6 -0.5
v -0.3 0.1 -0.5
v -0.3 0.9 -0.5
v -0.3 1 -0.5
v -0.3 1.4 -0.5
v -0.3 1.5 -0.5
v -0.3 1.6 -0.5
v 0.3 0.1 -0.5
v 0.3 0.9 -0.5
v 0.3 1 -0.5
v 0.3 1.4 -0.5
v 0.3 1.5 -0.5
v 0.3 1.6 -0.5
v 0.4 0.1 -0.5
v 0.4 0.9 -0.5
v 0.4 1 -0.5
v 0.4 1.4 -0.5
v 0.4 1.5 -0.5
v 0.4 1.6 -0.5
v 0.9 0.1 -0.5
v 0.9 0.9 -0.5
v 0.9 1 -0.5
v 0.9 1.4 -0.5
v 0.9 1.5 -0.5
v 1.1 1.4 -0.5
v 1.1 1.5 -0.5
v -1.1 0.1 -0.6
v -1.1 1.4 -0.6
v -0.9 0 -0.6
v -0.9 0.1 -0.6
v -0.9 0.9 -0.6
v -0.9 1 -0.6
v -0.9 1.4 -0.6
v -0.4 0.1 -0.6
v -0.4 0.9 -0.6
v -0.4 1 -0.6
v -0.4 1.5 -0.6
v -0.3 0.1 -0.6
v -0.3 0.9 -0.6
v -0.3 1 -0.6
v -0.3 1.5 -0.6
v 0.3 0.1 -0.6
v 0.3 0.9 -0.6
v 0.3 1 -0.6
v 0.3 1.5 -0.6
v 0.4 0.1 -0.6
v 0.4 0.9 -0.6
v 0.4 1 -0.6
v 0.4 1.5 -0.6
v 0.9 0 -0.6
v 0.9 0.1 -0.6
v 0.9 0.9 -0.6
v 0.9 1 -0.6
v 0.9 1.4 -0.6
v 1.1 0.1 -0.6
v 1.1 1.4 -0.6
v -1.2 0 -0.7
v -1.2 0.1 -0.7
v -0.9 0 -0.7
v -0.9 0.1 -0.7
v 0.9 0 -0.7
v 0.9 0.1 -0.7
v 1.2 0 -0.7
v 1.2 0.1 -0.7
v -1.2 0 0.7
v -0.9 0 0.7
v 0.9 0 0.7
v 1.2 0 0.7
v -0.9 0 0.6
v 0.9 0 0.6
v -1 0 0.5
v 1 0 0.5
v -1.2 0 0.4
v -1.1 0 0.4
v 1.1 0 0.4
v 1.2 0 0.4
v -1.2 0 -0.4
v -1.1 0 -0.4
v 1.1 0 -0.4
v 1.2 0 -0.4
v -1 0 -0.5
v 1 0 -0.5
v -0.9 0 -0.6
v 0.9 0 -0.6
v -1.2 0 -0.7
v -0.9 0 -0.7
v 0.9 0 -0.7
v 1.2 0 -0.7
v -0.0999999 0.5 0.6
v 0.1 0.5 0.6
v -0.0999999 0.5 0.5
v 0.1 0.5 0.5
v -0.2 0.7 0.6
v -0.0999999 0.7 0.6
v 0.1 0.7 0.6
v 0.2 0.7 0.6
v -0.2 0.7 0.5
v -0.0999999 0.7 0.5
v 0.1 0.7 0.5
v 0.2 0.7 0.5
v -0.9 0.9 0.6
v -0.4 0.9 0.6
v -0.3 0.9 0.6
v 0.3 0.9 0.6
v 0.4 0.9 0.6
v 0.9 0.9 0.6
v -1.1 0.9 0.5
v -1 0.9 0.5
v -0.9 0.9 0.5
v -0.4 0.9 0.5
v -0.3 0.9 0.5
v 0.3 0.9 0.5
v 0.4 0.9 0.5
v 0.9 0.9 0.5
v 1 0.9 0.5
v 1.1 0.9 0.5
v -1.1 0.9 -0.5
v -1 0.9 -0.5
v -0.9 0.9 -0.5
v -0.4 0.9 -0.5
v -0.3 0.9 -0.5
v 0.3 0.9 -0.5
v 0.4 0.9 -0.5
v 0.9 0.9 -0.5
v 1 0.9 -0.5
v 1.1 0.9 -0.5
v -0.9 0.9 -0.6
v -0.4 0.9 -0.6
v -0.3 0.9 -0.6
v 0.3 0.9 -0.6
v 0.4 0.9 -0.6
v 0.9 0.9 -0.6
v -1.1 1.3 0.5
v -1 1.3 0.5
v 1 1.3 0.5
v 1.1 1.3 0.5
v -1.1 1.3 0.4
v -1 1.3 0.4
v -0.9 1.3 0.4
v 0.9 1.3 0.4
v 1 1.3 0.4
v 1.1 1.3 0.4
v -0.9 1.3 0.3
v 0.9 1.3 0.3
v -0.9 1.3 -0.3
v 0.9 1.3 -0.3
v -1.1 1.3 -0.4
v -1 1.3 -0.4
v -0.9 1.3 -0.4
v 0.9 1.3 -0.4
v 1 1.3 -0.4
v 1.1 1.3 -0.4
v -1.1 1.3 -0.5
v -1 1.3 -0.5
v 1 1.3 -0.5
v 1.1 1.3 -0.5
v -1.1 1.4 0.4
v -1 1.4 0.4
v 1 1.4 0.4
v 1.1 1.4 0.4
v -1.1 1.4 0.3
v -1 1.4 0.3
v -0.9 1.4 0.3
v 0.9 1.4 0.3
v 1 1.4 0.3
v 1.1 1.4 0.3
v -0.9 1.4 0.2
v 0.9 1.4 0.2
v -0.9 1.4 -0.2
v 0.9 1.4 -0.2
v -1.1 1.4 -0.3
v -1 1.4 -0.3
v -0.9 1.4 -0.3
v 0.9 1.4 -0.3
v 1 1.4 -0.3
v 1.1 1.4 -0.3
v -1.1 1.4 -0.4
v -1 1.4 -0.4
v 1 1.4 -0.4
v 1.1 1.4 -0.4
v -1.1 1.5 0.3
v -1 1.5 0.3
v 1 1.5 0.3
v 1.1 1.5 0.3
v -1.1 1.5 0.2
v -1 1.5 0.2
v -0.9 1.5 0.2
v 0.9 1.5 0.2
v 1 1.5 0.2
v 1.1 1.5 0.2
v -1.1 1.5 -0.2
v -1 1.5 -0.2
v -0.9 1.5 -0.2
v 0.9 1.5 -0.2
v 1 1.5 -0.2
v 1.1 1.5 -0.2
v -1.1 1.5 -0.3
v -1 1.5 -0.3
v 1 1.5 -0.3
v 1.1 1.5 -0.3
v -1.1 1.6 0.2
v -1 1.6 0.2
v 1 1.6 0.2
v 1.1 1.6 0.2
v -1.1 1.6 -0.2
v -1 1.6 -0.2
v 1 1.6 -0.2
v 1.1 1.6 -0.2
v -1.2 0.1 0.7
v -0.9 0.1 0.7
v 0.9 0.1 0.7
v 1.2 0.1 0.7
v -1.1 0.1 0.6
v -0.9 0.1 0.6
v -0.4 0.1 0.6
v -0.3 0.1 0.6
v 0.3 0.1 0.6
v 0.4 0.1 0.6
v 0.9 0.1 0.6
v 1.1 0.1 0.6
v -1.1 0.1 0.5
v -1 0.1 0.5
v -0.9 0.1 0.5
v -0.4 0.1 0.5
v -0.3 0.1 0.5
v 0.3 0.1 0.5
v 0.4 0.1 0.5
v 0.9 0.1 0.5
v 1 0.1 0.5
v 1.1 0.1 0.5
v -1.2 0.1 0.4
v -1.1 0.1 0.4
v -0.9 0.1 0.4
v 0.9 0.1 0.4
v 1.1 0.1 0.4
v 1.2 0.1 0.4
v -1.2 0.1 -0.4
v -1.1 0.1 -0.4
v -0.9 0.1 -0.4
v 0.9 0.1 -0.4
v 1.1 0.1 -0.4
v 1.2 0.1 -0.4
v -1.1 0.1 -0.5
v -1 0.1 -0.5
v -0.9 0.1 -0.5
v -0.4 0.1 -0.5
v -0.3 0.1 -0.5
v 0.3 0.1 -0.5
v 0.4 0.1 -0.5
v 0.9 0.1 -0.5
v 1 0.1 -0.5
v 1.1 0.1 -0.5
v -1.1 0.1 -0.6
v -0.9 0.1 -0.6
v -0.4 0.1 -0.6
v -0.3 0.1 -0.6
v 0.3 0.1 -0.6
v 0.4 0.1 -0.6
v 0.9 0.1 -0.6
v 1.1 0.1 -0.6
v -1.2 0.1 -0.7
v -0.9 0.1 -0.7
v 0.9 0.1 -0.7
v 1.2 0.1 -0.7
v -0.2 0.8 0.6
v 0.2 0.8 0.6
v -0.2 0.8 0.5
v 0.2 0.8 0.5
v -0.9 1 0.6
v -0.4 1 0.6
v -0.3 1 0.6
v 0.3 1 0.6
v 0.4 1 0.6
v 0.9 1 0.6
v -1.1 1 0.5
v -1 1 0.5
v -0.9 1 0.5
v -0.4 1 0.5
v -0.3 1 0.5
v 0.3 1 0.5
v 0.4 1 0.5
v 0.9 1 0.5
v 1 1 0.5
v 1.1 1 0.5
v -1.1 1 -0.5
v -1 1 -0.5
v -0.9 1 -0.5
v -0.4 1 -0.5
v -0.3 1 -0.5
v 0.3 1 -0.5
v 0.4 1 -0.5
v 0.9 1 -0.5
v 1 1 -0.5
v 1.1 1 -0.5
v -0.9 1 -0.6
v -0.4 1 -0.6
v -0.3 1 -0.6
v 0.3 1 -0.6
v 0.4 1 -0.6
v 0.9 1 -0.6
v -1.1 1.4 0.6
v -0.9 1.4 0.6
v 0.9 1.4 0.6
v 1.1 1.4 0.6
v -1.1 1.4 0.5
v -0.9 1.4 0.5
v -0.4 1.4 0.5
v -0.3 1.4 0.5
v 0.3 1.4 0.5
v 0.4 1.4 0.5
v 0.9 1.4 0.5
v 1.1 1.4 0.5
v -0.9 1.4 0.4
v -0.4 1.4 0.4
v -0.3 1.4 0.4
v 0.3 1.4 0.4
v 0.4 1.4 0.4
v 0.9 1.4 0.4
v -0.9 1.4 -0.4
v -0.4 1.4 -0.4
v -0.3 1.4 -0.4
v 0.3 1.4 -0.4
v 0.4 1.4 -0.4
v 0.9 1.4 -0.4
v -1.1 1.4 -0.5
v -0.9 1.4 -0.5
v -0.4 1.4 -0.5
v -0.3 1.4 -0.5
v 0.3 1.4 -0.5
v 0.4 1.4 -0.5
v 0.9 1.4 -0.5
v 1.1 1.4 -0.5
v -1.1 1.4 -0.6
v -0.9 1.4 -0.6
v 0.9 1.4 -0.6
v 1.1 1.4 -0.6
v -0.4 1.5 0.6
v -0.3 1.5 0.6
v 0.3 1.5 0.6
v 0.4 1.5 0.6
v -1.1 1.5 0.5
v -0.9 1.5 0.5
v -0.4 1.5 0.5
v -0.3 1.5 0.5
v 0.3 1.5 0.5
v 0.4 1.5 0.5
v 0.9 1.5 0.5
v 1.1 1.5 0.5
v -1.1 1.5 0.4
v -0.9 1.5 0.4
v -0.4 1.5 0.4
v -0.3 1.5 0.4
v 0.3 1.5 0.4
v 0.4 1.5 0.4
v 0.9 1.5 0.4
v 1.1 1.5 0.4
v -0.9 1.5 0.3
v -0.4 1.5 0.3
v -0.3 1.5 0.3
v 0.3 1.5 0.3
v 0.4 1.5 0.3
v 0.9 1.5 0.3
v -0.9 1.5 -0.3
v -0.4 1.5 -0.3
v -0.3 1.5 -0.3
v 0.3 1.5 -0.3
v 0.4 1.5 -0.3
v 0.9 1.5 -0.3
v -1.1 1.5 -0.4
v -0.9 1.5 -0.4
v -0.4 1.5 -0.4
v -0.3 1.5 -0.4
v 0.3 1.5 -0.4
v 0.4 1.5 -0.4
v 0.9 1.5 -0.4
v 1.1 1.5 -0.4
v -1.1 1.5 -0.5
v -0.9 1.5 -0.5
v -0.4 1.5 -0.5
v -0.3 1.5 -0.5
v 0.3 1.5 -0.5
v 0.4 1.5 -0.5
v 0.9 1.5 -0.5
v 1.1 1.5 -0.5
v -0.4 1.5 -0.6
v -0.3 1.5 -0.6
v 0.3 1.5 -0.6
v 0.4 1.5 -0.6
v -0.4 1.6 0.5
v -0.3 1.6 0.5
v 0.3 1.6 0.5
v 0.4 1.6 0.5
v -1.1 1.6 0.4
v -0.9 1.6 0.4
v -0.4 1.6 0.4
v -0.3 1.6 0.4
v 0.3 1.6 0.4
v 0.4 1.6 0.4
v 0.9 1.6 0.4
v 1.1 1.6 0.4
v -1.1 1.6 0.3
v -0.9 1.6 0.3
v -0.4 1.6 0.3
v -0.3 1.6 0.3
v 0.3 1.6 0.3
v 0.4 1.6 0.3
v 0.9 1.6 0.3
v 1.1 1.6 0.3
v -1.1 1.6 -0.3
v -0.9 1.6 -0.3
v -0.4 1.6 -0.3
v -0.3 1.6 -0.3
v 0.3 1.6 -0.3
v 0.4 1.6 -0.3
v 0.9 1.6 -0.3
v 1.1 1.6 -0.3
v -1.1 1.6 -0.4
v -0.9 1.6 -0.4
v -0.4 1.6 -0.4
v -0.3 1.6 -0.4
v 0.3 1.6 -0.4
v 0.4 1.6 -0.4
v 0.9 1.6 -0.4
v 1.1 1.6 -0.4
v -0.4 1.6 -0.5
v -0.3 1.6 -0.5
v 0.3 1.6 -0.5
v 0.4 1.6 -0.5
v -0.4 1.7 0.4
v -0.3 1.7 0.4
v 0.3 1.7 0.4
v 0.4 1.7 0.4
v -1.1 1.7 0.3
v -0.9 1.7 0.3
v 0.9 1.7 0.3
v 1.1 1.7 0.3
v -1.1 1.7 -0.3
v -0.9 1.7 -0.3
v 0.9 1.7 -0.3
v 1.1 1.7 -0.3
v -0.4 1.7 -0.4
v -0.3 1.7 -0.4
v 0.3 1.7 -0.4
v 0.4 1.7 -0.4

# faces
f 5/2/1 2/2/1 1/2/1
f 6/2/1 2/2/1 5/2/1
f 7/2/1 4/2/1 3/2/1
f 8/2/1 4/2/1 7/2/1
f 13/2/1 10/2/1 9/2/1
f 14/2/1 10/2/1 13/2/1
f 17/2/1 12/2/1 11/2/1
f 18/2/1 16/2/1 15/2/1
f 19/2/1 17/2/1 11/2/1
f 19/2/1 18/2/1 17/2/1
f 20/2/1 16/2/1 18/2/1
f 20/2/1 18/2/1 19/2/1
f 21/2/1 19/2/1 11/2/1
f 24/2/1 16/2/1 20/2/1
f 25/2/1 22/2/1 21/2/1
f 25/2/1 21/2/1 11/2/1
f 26/2/1 22/2/1 25/2/1
f 27/2/1 22/2/1 26/2/1
f 30/2/1 24/2/1 23/2/1
f 31/2/1 16/2/1 24/2/1
f 31/2/1 24/2/1 30/2/1
f 32/2/1 16/2/1 31/2/1
f 33/2/1 28/2/1 27/2/1
f 33/2/1 27/2/1 26/2/1
f 34/2/1 28/2/1 33/2/1
f 35/2/1 28/2/1 34/2/1
f 38/2/1 30/2/1 29/2/1
f 38/2/1 31/2/1 30/2/1
f 39/2/1 31/2/1 38/2/1
f 40/2/1 31/2/1 39/2/1
f 41/2/1 36/2/1 35/2/1
f 41/2/1 35/2/1 34/2/1
f 42/2/1 36/2/1 41/2/1
f 43/2/1 36/2/1 42/2/1
f 44/2/1 39/2/1 38/2/1
f 44/2/1 38/2/1 37/2/1
f 45/2/1 39/2/1 44/2/1
f 46/2/1 39/2/1 45/2/1
f 47/2/1 43/2/1 42/2/1
f 47/2/1 45/2/1 44/2/1
f 47/2/1 44/2/1 43/2/1
f 48/2/1 45/2/1 47/2/1
f 51/1/1 50/1/1 49/1/1
f 52/1/1 50/1/1 51/1/1
f 55/1/1 54/1/1 53/1/1
f 56/1/1 54/1/1 55/1/1
f 57/1/1 54/1/1 56/1/1
f 58/1/1 54/1/1 57/1/1
f 59/1/1 57/1/1 56/1/1
f 60/1/1 57/1/1 59/1/1
f 61/1/1 57/1/1 60/1/1
f 62/1/1 57/1/1 61/1/1
f 63/1/1 61/1/1 60/1/1
f 64/1/1 61/1/1 63/1/1
f 65/1/1 61/1/1 64/1/1
f 66/1/1 61/1/1 65/1/1
f 67/1/1 65/1/1 64/1/1
f 68/1/1 65/1/1 67/1/1
f 73/2/1 70/2/1 69/2/1
f 74/2/1 70/2/1 73/2/1
f 75/2/1 72/2/1 71/2/1
f 76/2/1 72/2/1 75/2/1
f 81/2/1 78/2/1 77/2/1
f 84/2/1 80/2/1 79/2/1
f 85/2/1 82/2/1 81/2/1
f 85/2/1 81/2/1 77/2/1
f 86/2/1 82/2/1 85/2/1
f 87/2/1 82/2/1 86/2/1
f 90/2/1 84/2/1 83/2/1
f 91/2/1 80/2/1 84/2/1
f 91/2/1 84/2/1 90/2/1
f 92/2/1 80/2/1 91/2/1
f 93/2/1 88/2/1 87/2/1
f 93/2/1 87/2/1 86/2/1
f 94/2/1 88/2/1 93/2/1
f 95/2/1 88/2/1 94/2/1
f 96/2/1 90/2/1 89/2/1
f 96/2/1 91/2/1 90/2/1
f 97/2/1 91/2/1 96/2/1
f 98/2/1 91/2/1 97/2/1
f 99/2/1 95/2/1 94/2/1
f 99/2/1 97/2/1 96/2/1
f 99/2/1 96/2/1 95/2/1
f 100/2/1 97/2/1 99/2/1
f 103/2/1 102/2/1 101/2/1
f 104/2/1 102/2/1 103/2/1
f 107/2/1 106/2/1 105/2/1
f 108/2/1 106/2/1 107/2/1
f 113/2/1 110/2/1 109/2/1
f 114/2/1 110/2/1 113/2/1
f 115/2/1 112/2/1 111/2/1
f 116/2/1 112/2/1 115/2/1
f 121/2/1 118/2/1 117/2/1
f 124/2/1 120/2/1 119/2/1
f 125/2/1 122/2/1 121/2/1
f 125/2/1 121/2/1 117/2/1
f 126/2/1 122/2/1 125/2/1
f 127/2/1 122/2/1 126/2/1
f 130/2/1 124/2/1 123/2/1
f 131/2/1 120/2/1 124/2/1
f 131/2/1 124/2/1 130/2/1
f 132/2/1 120/2/1 131/2/1
f 133/2/1 128/2/1 127/2/1
f 133/2/1 127/2/1 126/2/1
f 134/2/1 128/2/1 133/2/1
f 135/2/1 128/2/1 134/2/1
f 136/2/1 130/2/1 129/2/1
f 136/2/1 131/2/1 130/2/1
f 137/2/1 131/2/1 136/2/1
f 138/2/1 131/2/1 137/2/1
f 139/2/1 135/2/1 134/2/1
f 139/2/1 137/2/1 136/2/1
f 139/2/1 136/2/1 135/2/1
f 140/2/1 137/2/1 139/2/1
f 145/2/1 142/2/1 141/2/1
f 146/2/1 142/2/1 145/2/1
f 151/2/1 144/2/1 143/2/1
f 152/2/1 144/2/1 151/2/1
f 153/2/1 147/2/1 146/2/1
f 154/2/1 147/2/1 153/2/1
f 155/2/1 151/2/1 150/2/1
f 156/2/1 151/2/1 155/2/1
f 161/1/1 149/1/1 148/1/1
f 162/1/1 149/1/1 161/1/1
f 163/1/1 149/1/1 162/1/1
f 164/1/1 149/1/1 163/1/1
f 165/2/1 158/2/1 157/2/1
f 166/2/1 158/2/1 165/2/1
f 168/1/1 163/1/1 162/1/1
f 169/1/1 163/1/1 168/1/1
f 170/1/1 163/1/1 169/1/1
f 171/1/1 163/1/1 170/1/1
f 173/2/1 160/2/1 159/2/1
f 174/2/1 160/2/1 173/2/1
f 175/2/1 167/2/1 166/2/1
f 176/2/1 167/2/1 175/2/1
f 178/1/1 170/1/1 169/1/1
f 179/1/1 170/1/1 178/1/1
f 181/2/1 173/2/1 172/2/1
f 182/2/1 173/2/1 181/2/1
f 183/2/1 177/2/1 176/2/1
f 184/2/1 177/2/1 183/2/1
f 185/2/1 181/2/1 180/2/1
f 186/2/1 181/2/1 185/2/1
f 187/2/1 185/2/1 184/2/1
f 188/2/1 185/2/1 187/2/1
f 189/2/2 190/2/2 193/2/2
f 193/2/2 190/2/2 194/2/2
f 191/2/2 192/2/2 199/2/2
f 199/2/2 192/2/2 200/2/2
f 194/2/2 195/2/2 201/2/2
f 201/2/2 195/2/2 202/2/2
f 198/2/2 199/2/2 203/2/2
f 203/2/2 199/2/2 204/2/2
f 196/1/2 197/1/2 209/1/2
f 209/1/2 197/1/2 210/1/2
f 210/1/2 197/1/2 211/1/2
f 211/1/2 197/1/2 212/1/2
f 205/2/2 206/2/2 213/2/2
f 213/2/2 206/2/2 214/2/2
f 210/1/2 211/1/2 216/1/2
f 216/1/2 211/1/2 217/1/2
f 217/1/2 211/1/2 218/1/2
f 218/1/2 211/1/2 219/1/2
f 207/2/2 208/2/2 221/2/2
f 221/2/2 208/2/2 222/2/2
f 214/2/2 215/2/2 223/2/2
f 223/2/2 215/2/2 224/2/2
f 217/1/2 218/1/2 226/1/2
f 226/1/2 218/1/2 227/1/2
f 220/2/2 221/2/2 229/2/2
f 229/2/2 221/2/2 230/2/2
f 224/2/2 225/2/2 231/2/2
f 231/2/2 225/2/2 232/2/2
f 228/2/2 229/2/2 233/2/2
f 233/2/2 229/2/2 234/2/2
f 232/2/2 233/2/2 235/2/2
f 235/2/2 233/2/2 236/2/2
f 237/2/2 238/2/2 241/2/2
f 241/2/2 238/2/2 242/2/2
f 239/2/2 240/2/2 243/2/2
f 243/2/2 240/2/2 244/2/2
f 245/2/2 246/2/2 249/2/2
f 247/2/2 248/2/2 252/2/2
f 249/2/2 250/2/2 253/2/2
f 245/2/2 249/2/2 253/2/2
f 253/2/2 250/2/2 254/2/2
f 254/2/2 250/2/2 255/2/2
f 251/2/2 252/2/2 258/2/2
f 252/2/2 248/2/2 259/2/2
f 258/2/2 252/2/2 259/2/2
f 259/2/2 248/2/2 260/2/2
f 255/2/2 256/2/2 261/2/2
f 254/2/2 255/2/2 261/2/2
f 261/2/2 256/2/2 262/2/2
f 262/2/2 256/2/2 263/2/2
f 257/2/2 258/2/2 264/2/2
f 258/2/2 259/2/2 264/2/2
f 264/2/2 259/2/2 265/2/2
f 265/2/2 259/2/2 266/2/2
f 262/2/2 263/2/2 267/2/2
f 264/2/2 265/2/2 267/2/2
f 263/2/2 264/2/2 267/2/2
f 267/2/2 265/2/2 268/2/2
f 269/2/2 270/2/2 271/2/2
f 271/2/2 270/2/2 272/2/2
f 273/2/2 274/2/2 275/2/2
f 275/2/2 274/2/2 276/2/2
f 277/2/2 278/2/2 281/2/2
f 281/2/2 278/2/2 282/2/2
f 279/2/2 280/2/2 283/2/2
f 283/2/2 280/2/2 284/2/2
f 285/2/2 286/2/2 289/2/2
f 287/2/2 288/2/2 292/2/2
f 289/2/2 290/2/2 293/2/2
f 285/2/2 289/2/2 293/2/2
f 293/2/2 290/2/2 294/2/2
f 294/2/2 290/2/2 295/2/2
f 291/2/2 292/2/2 298/2/2
f 292/2/2 288/2/2 299/2/2
f 298/2/2 292/2/2 299/2/2
f 299/2/2 288/2/2 300/2/2
f 295/2/2 296/2/2 301/2/2
f 294/2/2 295/2/2 301/2/2
f 301/2/2 296/2/2 302/2/2
f 302/2/2 296/2/2 303/2/2
f 297/2/2 298/2/2 304/2/2
f 298/2/2 299/2/2 304/2/2
f 304/2/2 299/2/2 305/2/2
f 305/2/2 299/2/2 306/2/2
f 302/2/2 303/2/2 307/2/2
f 304/2/2 305/2/2 307/2/2
f 303/2/2 304/2/2 307/2/2
f 307/2/2 305/2/2 308/2/2
f 309/1/2 310/1/2 311/1/2
f 311/1/2 310/1/2 312/1/2
f 313/1/2 314/1/2 315/1/2
f 315/1/2 314/1/2 316/1/2
f 316/1/2 314/1/2 317/1/2
f 317/1/2 314/1/2 318/1/2
f 316/1/2 317/1/2 319/1/2
f 319/1/2 317/1/2 320/1/2
f 320/1/2 317/1/2 321/1/2
f 321/1/2 317/1/2 322/1/2
f 320/1/2 321/1/2 323/1/2
f 323/1/2 321/1/2 324/1/2
f 324/1/2 321/1/2 325/1/2
f 325/1/2 321/1/2 326/1/2
f 324/1/2 325/1/2 327/1/2
f 327/1/2 325/1/2 328/1/2
f 329/2/2 330/2/2 333/2/2
f 333/2/2 330/2/2 334/2/2
f 331/2/2 332/2/2 337/2/2
f 335/2/2 336/2/2 338/2/2
f 331/2/2 337/2/2 339/2/2
f 337/2/2 338/2/2 339/2/2
f 338/2/2 336/2/2 340/2/2
f 339/2/2 338/2/2 340/2/2
f 331/2/2 339/2/2 341/2/2
f 340/2/2 336/2/2 344/2/2
f 341/2/2 342/2/2 345/2/2
f 331/2/2 341/2/2 345/2/2
f 345/2/2 342/2/2 346/2/2
f 346/2/2 342/2/2 347/2/2
f 343/2/2 344/2/2 350/2/2
f 344/2/2 336/2/2 351/2/2
f 350/2/2 344/2/2 351/2/2
f 351/2/2 336/2/2 352/2/2
f 347/2/2 348/2/2 353/2/2
f 346/2/2 347/2/2 353/2/2
f 353/2/2 348/2/2 354/2/2
f 354/2/2 348/2/2 355/2/2
f 349/2/2 350/2/2 358/2/2
f 350/2/2 351/2/2 358/2/2
f 358/2/2 351/2/2 359/2/2
f 359/2/2 351/2/2 360/2/2
f 355/2/2 356/2/2 361/2/2
f 354/2/2 355/2/2 361/2/2
f 361/2/2 356/2/2 362/2/2
f 362/2/2 356/2/2 363/2/2
f 358/2/2 359/2/2 364/2/2
f 357/2/2 358/2/2 364/2/2
f 364/2/2 359/2/2 365/2/2
f 365/2/2 359/2/2 366/2/2
f 362/2/2 363/2/2 367/2/2
f 364/2/2 365/2/2 367/2/2
f 363/2/2 364/2/2 367/2/2
f 367/2/2 365/2/2 368/2/2
f 369/2/2 370/2/2 373/2/2
f 373/2/2 370/2/2 374/2/2
f 371/2/2 372/2/2 375/2/2
f 375/2/2 372/2/2 376/2/2
f 379/2/3 378/2/3 377/2/3
f 380/2/3 378/2/3 379/2/3
f 383/2/3 382/2/3 381/2/3
f 384/2/3 382/2/3 383/2/3
f 388/2/3 386/2/3 385/2/3
f 389/2/3 386/2/3 388/2/3
f 390/2/3 386/2/3 389/2/3
f 391/2/3 386/2/3 390/2/3
f 392/2/3 388/2/3 387/2/3
f 393/2/3 390/2/3 389/2/3
f 394/2/3 390/2/3 393/2/3
f 396/2/3 394/2/3 393/2/3
f 396/2/3 395/2/3 394/2/3
f 396/2/3 393/2/3 392/2/3
f 396/2/3 392/2/3 387/2/3
f 397/2/3 395/2/3 396/2/3
f 398/2/3 395/2/3 397/2/3
f 399/2/3 395/2/3 398/2/3
f 403/2/3 401/2/3 400/2/3
f 404/2/3 403/2/3 402/2/3
f 405/2/3 401/2/3 403/2/3
f 405/2/3 403/2/3 404/2/3
f 406/2/3 401/2/3 405/2/3
f 407/2/3 401/2/3 406/2/3
f 408/2/3 396/2/3 387/2/3
f 409/2/3 398/2/3 397/2/3
f 410/2/3 398/2/3 409/2/3
f 412/2/3 408/2/3 387/2/3
f 412/2/3 411/2/3 410/2/3
f 412/2/3 410/2/3 409/2/3
f 412/2/3 409/2/3 408/2/3
f 413/2/3 411/2/3 412/2/3
f 414/2/3 411/2/3 413/2/3
f 415/2/3 411/2/3 414/2/3
f 416/2/3 412/2/3 387/2/3
f 417/2/3 412/2/3 416/2/3
f 418/2/3 414/2/3 413/2/3
f 419/2/3 414/2/3 418/2/3
f 421/2/3 420/2/3 419/2/3
f 421/2/3 419/2/3 418/2/3
f 421/2/3 418/2/3 417/2/3
f 422/2/3 420/2/3 421/2/3
f 428/2/3 424/2/3 423/2/3
f 429/2/3 424/2/3 428/2/3
f 430/1/3 426/1/3 425/1/3
f 431/1/3 426/1/3 430/1/3
f 432/1/3 428/1/3 427/1/3
f 433/1/3 428/1/3 432/1/3
f 440/2/3 435/2/3 434/2/3
f 441/2/3 435/2/3 440/2/3
f 442/1/3 437/1/3 436/1/3
f 443/1/3 437/1/3 442/1/3
f 444/1/3 442/1/3 436/1/3
f 445/1/3 442/1/3 444/1/3
f 446/1/3 444/1/3 436/1/3
f 448/1/3 447/1/3 446/1/3
f 449/1/3 437/1/3 443/1/3
f 450/1/3 448/1/3 446/1/3
f 450/1/3 449/1/3 448/1/3
f 450/1/3 446/1/3 436/1/3
f 451/1/3 437/1/3 449/1/3
f 451/1/3 449/1/3 450/1/3
f 452/1/3 439/1/3 438/1/3
f 453/1/3 439/1/3 452/1/3
f 460/2/3 455/2/3 454/2/3
f 461/2/3 455/2/3 460/2/3
f 462/1/3 457/1/3 456/1/3
f 463/1/3 457/1/3 462/1/3
f 464/1/3 459/1/3 458/1/3
f 465/1/3 459/1/3 464/1/3
f 467/2/3 466/2/3 465/2/3
f 468/2/3 466/2/3 467/2/3
f 472/2/3 470/2/3 469/2/3
f 473/2/3 470/2/3 472/2/3
f 474/1/3 472/1/3 471/1/3
f 475/1/3 472/1/3 474/1/3
f 480/2/3 477/2/3 476/2/3
f 481/2/3 477/2/3 480/2/3
f 482/1/3 479/1/3 478/1/3
f 483/1/3 479/1/3 482/1/3
f 488/2/3 485/2/3 484/2/3
f 489/2/3 485/2/3 488/2/3
f 490/1/3 487/1/3 486/1/3
f 491/1/3 487/1/3 490/1/3
f 493/2/3 492/2/3 491/2/3
f 494/2/3 492/2/3 493/2/3
f 498/2/3 496/2/3 495/2/3
f 499/2/3 496/2/3 498/2/3
f 500/1/3 498/1/3 497/1/3
f 501/1/3 498/1/3 500/1/3
f 504/1/3 503/1/3 502/1/3
f 505/1/3 503/1/3 504/1/3
f 508/1/3 507/1/3 506/1/3
f 509/1/3 507/1/3 508/1/3
f 511/2/3 510/2/3 509/2/3
f 512/2/3 510/2/3 511/2/3
f 515/2/3 514/2/3 513/2/3
f 516/2/3 514/2/3 515/2/3
f 519/1/3 518/1/3 517/1/3
f 520/1/3 518/1/3 519/1/3
f 523/2/3 522/2/3 521/2/3
f 524/2/3 522/2/3 523/2/3
f 527/2/3 526/2/3 525/2/3
f 528/2/3 526/2/3 527/2/3
f 531/1/3 530/1/3 529/1/3
f 532/1/3 530/1/3 531/1/3
f 535/2/3 534/2/3 533/2/3
f 536/2/3 534/2/3 535/2/3
f 539/2/3 538/2/3 537/2/3
f 540/2/3 538/2/3 539/2/3
f 543/2/3 542/2/3 541/2/3
f 544/2/3 542/2/3 543/2/3
f 547/1/3 546/1/3 545/1/3
f 548/1/3 546/1/3 547/1/3
f 553/2/3 550/2/3 549/2/3
f 554/2/3 550/2/3 553/2/3
f 555/2/3 552/2/3 551/2/3
f 556/2/3 552/2/3 555/2/3
f 561/2/3 558/2/3 557/2/3
f 562/2/3 558/2/3 561/2/3
f 563/2/3 560/2/3 559/2/3
f 564/2/3 560/2/3 563/2/3
f 569/2/3 566/2/3 565/2/3
f 570/2/3 566/2/3 569/2/3
f 571/2/3 568/2/3 567/2/3
f 572/2/3 568/2/3 571/2/3
f 573/2/4 574/2/4 577/2/4
f 577/2/4 574/2/4 578/2/4
f 575/2/4 576/2/4 579/2/4
f 579/2/4 576/2/4 580/2/4
f 581/2/4 582/2/4 585/2/4
f 585/2/4 582/2/4 586/2/4
f 583/2/4 584/2/4 587/2/4
f 587/2/4 584/2/4 588/2/4
f 589/2/4 590/2/4 591/2/4
f 591/2/4 590/2/4 592/2/4
f 593/2/4 594/2/4 595/2/4
f 595/2/4 594/2/4 596/2/4
f 597/1/4 598/1/4 599/1/4
f 599/1/4 598/1/4 600/1/4
f 601/2/4 602/2/4 605/2/4
f 605/2/4 602/2/4 606/2/4
f 603/2/4 604/2/4 607/2/4
f 607/2/4 604/2/4 608/2/4
f 609/2/4 610/2/4 611/2/4
f 611/2/4 610/2/4 612/2/4
f 613/1/4 614/1/4 615/1/4
f 615/1/4 614/1/4 616/1/4
f 617/2/4 618/2/4 619/2/4
f 619/2/4 618/2/4 620/2/4
f 621/2/4 622/2/4 623/2/4
f 623/2/4 622/2/4 624/2/4
f 625/1/4 626/1/4 627/1/4
f 627/1/4 626/1/4 628/1/4
f 629/2/4 630/2/4 631/2/4
f 631/2/4 630/2/4 632/2/4
f 633/2/4 634/2/4 636/2/4
f 636/2/4 634/2/4 637/2/4
f 635/1/4 636/1/4 638/1/4
f 638/1/4 636/1/4 639/1/4
f 640/1/4 641/1/4 642/1/4
f 642/1/4 641/1/4 643/1/4
f 644/1/4 645/1/4 646/1/4
f 646/1/4 645/1/4 647/1/4
f 647/2/4 648/2/4 649/2/4
f 649/2/4 648/2/4 650/2/4
f 651/2/4 652/2/4 654/2/4
f 654/2/4 652/2/4 655/2/4
f 653/1/4 654/1/4 656/1/4
f 656/1/4 654/1/4 657/1/4
f 658/2/4 659/2/4 662/2/4
f 662/2/4 659/2/4 663/2/4
f 660/1/4 661/1/4 664/1/4
f 664/1/4 661/1/4 665/1/4
f 666/2/4 667/2/4 670/2/4
f 670/2/4 667/2/4 671/2/4
f 668/1/4 669/1/4 672/1/4
f 672/1/4 669/1/4 673/1/4
f 673/2/4 674/2/4 675/2/4
f 675/2/4 674/2/4 676/2/4
f 677/2/4 678/2/4 682/2/4
f 682/2/4 678/2/4 683/2/4
f 679/1/4 680/1/4 684/1/4
f 684/1/4 680/1/4 685/1/4
f 681/1/4 682/1/4 686/1/4
f 686/1/4 682/1/4 687/1/4
f 688/2/4 689/2/4 694/2/4
f 694/2/4 689/2/4 695/2/4
f 690/1/4 691/1/4 696/1/4
f 696/1/4 691/1/4 697/1/4
f 692/1/4 693/1/4 698/1/4
f 698/1/4 693/1/4 699/1/4
f 700/2/4 701/2/4 706/2/4
f 706/2/4 701/2/4 707/2/4
f 702/1/4 703/1/4 708/1/4
f 708/1/4 703/1/4 709/1/4
f 704/1/4 705/1/4 710/1/4
f 710/1/4 705/1/4 711/1/4
f 711/2/4 712/2/4 713/2/4
f 713/2/4 712/2/4 714/2/4
f 715/2/4 716/2/4 718/2/4
f 718/2/4 716/2/4 719/2/4
f 719/2/4 716/2/4 720/2/4
f 720/2/4 716/2/4 721/2/4
f 717/2/4 718/2/4 722/2/4
f 719/2/4 720/2/4 723/2/4
f 723/2/4 720/2/4 724/2/4
f 723/2/4 724/2/4 726/2/4
f 724/2/4 725/2/4 726/2/4
f 722/2/4 723/2/4 726/2/4
f 717/2/4 722/2/4 726/2/4
f 726/2/4 725/2/4 727/2/4
f 727/2/4 725/2/4 728/2/4
f 728/2/4 725/2/4 729/2/4
f 717/2/4 726/2/4 730/2/4
f 727/2/4 728/2/4 731/2/4
f 731/2/4 728/2/4 732/2/4
f 717/2/4 730/2/4 734/2/4
f 732/2/4 733/2/4 734/2/4
f 731/2/4 732/2/4 734/2/4
f 730/2/4 731/2/4 734/2/4
f 734/2/4 733/2/4 735/2/4
f 735/2/4 733/2/4 736/2/4
f 736/2/4 733/2/4 737/2/4
f 717/2/4 734/2/4 738/2/4
f 738/2/4 734/2/4 739/2/4
f 735/2/4 736/2/4 740/2/4
f 740/2/4 736/2/4 741/2/4
f 741/2/4 742/2/4 743/2/4
f 740/2/4 741/2/4 743/2/4
f 739/2/4 740/2/4 743/2/4
f 743/2/4 742/2/4 744/2/4
f 745/2/4 746/2/4 747/2/4
f 747/2/4 746/2/4 748/2/4
f 749/2/4 750/2/4 751/2/4
f 751/2/4 750/2/4 752/2/4
f 757/2/5 754/2/5 753/2/5
f 758/2/5 756/2/5 755/2/5
f 759/2/5 757/2/5 753/2/5
f 759/2/5 758/2/5 757/2/5
f 760/2/5 756/2/5 758/2/5
f 760/2/5 758/2/5 759/2/5
f 761/2/5 759/2/5 753/2/5
f 762/2/5 759/2/5 761/2/5
f 763/2/5 756/2/5 760/2/5
f 764/2/5 756/2/5 763/2/5
f 766/2/5 759/2/5 762/2/5
f 767/2/5 763/2/5 760/2/5
f 769/2/5 766/2/5 765/2/5
f 769/1/5 760/1/5 759/1/5
f 769/2/5 759/2/5 766/2/5
f 770/2/5 768/2/5 767/2/5
f 770/1/5 760/1/5 769/1/5
f 770/2/5 767/2/5 760/2/5
f 771/2/5 770/2/5 769/2/5
f 772/2/5 770/2/5 771/2/5
f 773/2/5 769/2/5 765/2/5
f 773/2/5 771/2/5 769/2/5
f 774/2/5 771/2/5 773/2/5
f 775/2/5 770/2/5 772/2/5
f 776/2/5 768/2/5 770/2/5
f 776/2/5 770/2/5 775/2/5
f 779/2/5 778/2/5 777/2/5
f 780/2/5 778/2/5 779/2/5
f 785/2/5 782/2/5 781/2/5
f 786/2/5 782/2/5 785/2/5
f 787/2/5 784/2/5 783/2/5
f 788/2/5 784/2/5 787/2/5
f 797/2/5 790/2/5 789/2/5
f 798/2/5 790/2/5 797/2/5
f 799/2/5 792/2/5 791/2/5
f 800/2/5 792/2/5 799/2/5
f 801/2/5 794/2/5 793/2/5
f 802/2/5 794/2/5 801/2/5
f 805/2/5 796/2/5 795/2/5
f 806/2/5 796/2/5 805/2/5
f 813/2/5 804/2/5 803/2/5
f 814/2/5 804/2/5 813/2/5
f 815/2/5 808/2/5 807/2/5
f 816/2/5 808/2/5 815/2/5
f 817/2/5 810/2/5 809/2/5
f 818/2/5 810/2/5 817/2/5
f 819/2/5 812/2/5 811/2/5
f 820/2/5 812/2/5 819/2/5
f 825/2/5 822/2/5 821/2/5
f 826/2/5 822/2/5 825/2/5
f 829/2/5 824/2/5 823/2/5
f 830/2/5 824/2/5 829/2/5
f 831/1/5 828/1/5 827/1/5
f 832/1/5 828/1/5 831/1/5
f 837/1/5 834/1/5 833/1/5
f 838/1/5 834/1/5 837/1/5
f 841/2/5 836/2/5 835/2/5
f 842/2/5 836/2/5 841/2/5
f 843/2/5 840/2/5 839/2/5
f 844/2/5 840/2/5 843/2/5
f 849/2/5 846/2/5 845/2/5
f 850/2/5 846/2/5 849/2/5
f 853/2/5 848/2/5 847/2/5
f 854/2/5 848/2/5 853/2/5
f 855/1/5 852/1/5 851/1/5
f 856/1/5 852/1/5 855/1/5
f 861/1/5 858/1/5 857/1/5
f 862/1/5 858/1/5 861/1/5
f 865/2/5 860/2/5 859/2/5
f 866/2/5 860/2/5 865/2/5
f 867/2/5 864/2/5 863/2/5
f 868/2/5 864/2/5 867/2/5
f 873/2/5 870/2/5 869/2/5
f 874/2/5 870/2/5 873/2/5
f 877/2/5 872/2/5 871/2/5
f 878/2/5 872/2/5 877/2/5
f 881/1/5 876/1/5 875/1/5
f 882/1/5 876/1/5 881/1/5
f 885/2/5 880/2/5 879/2/5
f 886/2/5 880/2/5 885/2/5
f 887/2/5 884/2/5 883/2/5
f 888/2/5 884/2/5 887/2/5
f 893/2/5 890/2/5 889/2/5
f 894/2/5 890/2/5 893/2/5
f 895/2/5 892/2/5 891/2/5
f 896/2/5 892/2/5 895/2/5
f 897/2/6 898/2/6 901/2/6
f 901/2/6 898/2/6 902/2/6
f 899/2/6 900/2/6 907/2/6
f 907/2/6 900/2/6 908/2/6
f 897/2/6 901/2/6 909/2/6
f 902/2/6 903/2/6 911/2/6
f 911/2/6 903/2/6 912/2/6
f 904/2/6 905/2/6 913/2/6
f 913/2/6 905/2/6 914/2/6
f 906/2/6 907/2/6 915/2/6
f 915/2/6 907/2/6 916/2/6
f 908/2/6 900/2/6 918/2/6
f 909/2/6 910/2/6 919/2/6
f 897/2/6 909/2/6 919/2/6
f 919/2/6 910/2/6 920/2/6
f 917/2/6 918/2/6 923/2/6
f 918/2/6 900/2/6 923/2/6
f 923/2/6 900/2/6 924/2/6
f 920/2/6 910/2/6 926/2/6
f 921/1/6 922/1/6 927/1/6
f 927/1/6 922/1/6 928/1/6
f 917/2/6 923/2/6 929/2/6
f 925/2/6 926/2/6 931/2/6
f 926/2/6 910/2/6 931/2/6
f 931/2/6 910/2/6 932/2/6
f 929/2/6 930/2/6 939/2/6
f 917/2/6 929/2/6 939/2/6
f 939/2/6 930/2/6 940/2/6
f 925/2/6 931/2/6 941/2/6
f 933/2/6 934/2/6 942/2/6
f 942/2/6 934/2/6 943/2/6
f 935/2/6 936/2/6 944/2/6
f 944/2/6 936/2/6 945/2/6
f 937/2/6 938/2/6 946/2/6
f 946/2/6 938/2/6 947/2/6
f 940/2/6 930/2/6 948/2/6
f 925/2/6 941/2/6 949/2/6
f 941/2/6 942/2/6 949/2/6
f 949/2/6 942/2/6 950/2/6
f 947/2/6 948/2/6 951/2/6
f 948/2/6 930/2/6 952/2/6
f 951/2/6 948/2/6 952/2/6
f 953/2/6 954/2/6 955/2/6
f 955/2/6 954/2/6 956/2/6
f 957/2/6 958/2/6 965/2/6
f 965/2/6 958/2/6 966/2/6
f 959/2/6 960/2/6 967/2/6
f 967/2/6 960/2/6 968/2/6
f 961/2/6 962/2/6 969/2/6
f 969/2/6 962/2/6 970/2/6
f 963/2/6 964/2/6 973/2/6
f 973/2/6 964/2/6 974/2/6
f 971/2/6 972/2/6 981/2/6
f 981/2/6 972/2/6 982/2/6
f 975/2/6 976/2/6 983/2/6
f 983/2/6 976/2/6 984/2/6
f 977/2/6 978/2/6 985/2/6
f 985/2/6 978/2/6 986/2/6
f 979/2/6 980/2/6 987/2/6
f 987/2/6 980/2/6 988/2/6
f 989/2/6 990/2/6 993/2/6
f 993/2/6 990/2/6 994/2/6
f 991/2/6 992/2/6 999/2/6
f 999/2/6 992/2/6 1000/2/6
f 994/1/6 995/1/6 1001/1/6
f 1001/1/6 995/1/6 1002/1/6
f 996/1/6 997/1/6 1003/1/6
f 1003/1/6 997/1/6 1004/1/6
f 998/1/6 999/1/6 1005/1/6
f 1005/1/6 999/1/6 1006/1/6
f 1007/1/6 1008/1/6 1014/1/6
f 1014/1/6 1008/1/6 1015/1/6
f 1009/1/6 1010/1/6 1016/1/6
f 1016/1/6 1010/1/6 1017/1/6
f 1011/1/6 1012/1/6 1018/1/6
f 1018/1/6 1012/1/6 1019/1/6
f 1013/2/6 1014/2/6 1021/2/6
f 1021/2/6 1014/2/6 1022/2/6
f 1019/2/6 1020/2/6 1023/2/6
f 1023/2/6 1020/2/6 1024/2/6
f 1025/2/6 1026/2/6 1031/2/6
f 1031/2/6 1026/2/6 1032/2/6
f 1027/2/6 1028/2/6 1033/2/6
f 1033/2/6 1028/2/6 1034/2/6
f 1029/2/6 1030/2/6 1037/2/6
f 1037/2/6 1030/2/6 1038/2/6
f 1035/2/6 1036/2/6 1043/2/6
f 1043/2/6 1036/2/6 1044/2/6
f 1038/1/6 1039/1/6 1045/1/6
f 1045/1/6 1039/1/6 1046/1/6
f 1040/1/6 1041/1/6 1047/1/6
f 1047/1/6 1041/1/6 1048/1/6
f 1042/1/6 1043/1/6 1049/1/6
f 1049/1/6 1043/1/6 1050/1/6
f 1051/1/6 1052/1/6 1058/1/6
f 1058/1/6 1052/1/6 1059/1/6
f 1053/1/6 1054/1/6 1060/1/6
f 1060/1/6 1054/1/6 1061/1/6
f 1055/1/6 1056/1/6 1062/1/6
f 1062/1/6 1056/1/6 1063/1/6
f 1057/2/6 1058/2/6 1065/2/6
f 1065/2/6 1058/2/6 1066/2/6
f 1063/2/6 1064/2/6 1071/2/6
f 1071/2/6 1064/2/6 1072/2/6
f 1067/2/6 1068/2/6 1073/2/6
f 1073/2/6 1068/2/6 1074/2/6
f 1069/2/6 1070/2/6 1075/2/6
f 1075/2/6 1070/2/6 1076/2/6
f 1077/2/6 1078/2/6 1083/2/6
f 1083/2/6 1078/2/6 1084/2/6
f 1079/2/6 1080/2/6 1085/2/6
f 1085/2/6 1080/2/6 1086/2/6
f 1081/2/6 1082/2/6 1089/2/6
f 1089/2/6 1082/2/6 1090/2/6
f 1087/2/6 1088/2/6 1095/2/6
f 1095/2/6 1088/2/6 1096/2/6
f 1090/1/6 1091/1/6 1098/1/6
f 1098/1/6 1091/1/6 1099/1/6
f 1092/1/6 1093/1/6 1100/1/6
f 1100/1/6 1093/1/6 1101/1/6
f 1094/1/6 1095/1/6 1102/1/6
f 1102/1/6 1095/1/6 1103/1/6
f 1097/2/6 1098/2/6 1105/2/6
f 1105/2/6 1098/2/6 1106/2/6
f 1103/2/6 1104/2/6 1111/2/6
f 1111/2/6 1104/2/6 1112/2/6
f 1107/2/6 1108/2/6 1113/2/6
f 1113/2/6 1108/2/6 1114/2/6
f 1109/2/6 1110/2/6 1115/2/6
f 1115/2/6 1110/2/6 1116/2/6
f 1121/2/6 1122/2/6 1125/2/6
f 1125/2/6 1122/2/6 1126/2/6
f 1123/2/6 1124/2/6 1127/2/6
f 1127/2/6 1124/2/6 1128/2/6
f 1117/2/6 1118/2/6 1129/2/6
f 1129/2/6 1118/2/6 1130/2/6
f 1119/2/6 1120/2/6 1131/2/6
f 1131/2/6 1120/2/6 1132/2/6
